%TF.GenerationSoftware,KiCad,Pcbnew,9.0.6*%
%TF.CreationDate,2026-04-06T18:53:39+01:00*%
%TF.ProjectId,Silverworm_Control_Panel,53696c76-6572-4776-9f72-6d5f436f6e74,rev?*%
%TF.SameCoordinates,Original*%
%TF.FileFunction,Soldermask,Top*%
%TF.FilePolarity,Negative*%
%FSLAX46Y46*%
G04 Gerber Fmt 4.6, Leading zero omitted, Abs format (unit mm)*
G04 Created by KiCad (PCBNEW 9.0.6) date 2026-04-06 18:53:39*
%MOMM*%
%LPD*%
G01*
G04 APERTURE LIST*
G04 Aperture macros list*
%AMRoundRect*
0 Rectangle with rounded corners*
0 $1 Rounding radius*
0 $2 $3 $4 $5 $6 $7 $8 $9 X,Y pos of 4 corners*
0 Add a 4 corners polygon primitive as box body*
4,1,4,$2,$3,$4,$5,$6,$7,$8,$9,$2,$3,0*
0 Add four circle primitives for the rounded corners*
1,1,$1+$1,$2,$3*
1,1,$1+$1,$4,$5*
1,1,$1+$1,$6,$7*
1,1,$1+$1,$8,$9*
0 Add four rect primitives between the rounded corners*
20,1,$1+$1,$2,$3,$4,$5,0*
20,1,$1+$1,$4,$5,$6,$7,0*
20,1,$1+$1,$6,$7,$8,$9,0*
20,1,$1+$1,$8,$9,$2,$3,0*%
G04 Aperture macros list end*
%ADD10C,3.410000*%
%ADD11C,1.500000*%
%ADD12RoundRect,0.250001X-0.499999X-0.499999X0.499999X-0.499999X0.499999X0.499999X-0.499999X0.499999X0*%
%ADD13RoundRect,0.250000X0.295000X0.315000X-0.295000X0.315000X-0.295000X-0.315000X0.295000X-0.315000X0*%
%ADD14RoundRect,0.237500X0.250000X0.237500X-0.250000X0.237500X-0.250000X-0.237500X0.250000X-0.237500X0*%
%ADD15C,5.160000*%
%ADD16C,1.650000*%
%ADD17RoundRect,0.237500X-0.250000X-0.237500X0.250000X-0.237500X0.250000X0.237500X-0.250000X0.237500X0*%
%ADD18R,1.416000X1.416000*%
%ADD19C,1.416000*%
%ADD20C,17.400000*%
%ADD21C,19.000000*%
%ADD22R,1.350000X1.350000*%
%ADD23C,1.350000*%
%ADD24R,1.700000X1.700000*%
%ADD25C,1.700000*%
%ADD26RoundRect,0.250000X-0.625000X0.350000X-0.625000X-0.350000X0.625000X-0.350000X0.625000X0.350000X0*%
%ADD27O,1.750000X1.200000*%
G04 APERTURE END LIST*
D10*
%TO.C,J1*%
X155150000Y-265320000D03*
X144850000Y-265320000D03*
D11*
X153000000Y-258000000D03*
X150000000Y-258000000D03*
X147000000Y-258000000D03*
X153000000Y-261000000D03*
X150000000Y-261000000D03*
D12*
X147000000Y-261000000D03*
%TD*%
D13*
%TO.C,C2*%
X139285000Y-123000000D03*
X140715000Y-123000000D03*
%TD*%
D14*
%TO.C,R4*%
X144587500Y-123000000D03*
X146412500Y-123000000D03*
%TD*%
%TO.C,R1*%
X150087500Y-123000000D03*
X151912500Y-123000000D03*
%TD*%
%TO.C,R7*%
X153175000Y-165000000D03*
X155000000Y-165000000D03*
%TD*%
D13*
%TO.C,C3*%
X129785000Y-151500000D03*
X131215000Y-151500000D03*
%TD*%
%TO.C,C1*%
X129785000Y-146000000D03*
X131215000Y-146000000D03*
%TD*%
D15*
%TO.C,H2*%
X155600000Y-148300000D03*
X144400000Y-148300000D03*
D16*
X150000000Y-155800000D03*
X152500000Y-155800000D03*
X147500000Y-155800000D03*
X152500000Y-141300000D03*
X147500000Y-141300000D03*
%TD*%
D14*
%TO.C,R5*%
X147000000Y-165000000D03*
X145175000Y-165000000D03*
%TD*%
%TO.C,R11*%
X159912500Y-130500000D03*
X158087500Y-130500000D03*
%TD*%
%TO.C,R10*%
X172412500Y-134000000D03*
X170587500Y-134000000D03*
%TD*%
D17*
%TO.C,R9*%
X165087500Y-139000000D03*
X166912500Y-139000000D03*
%TD*%
D18*
%TO.C,LED2*%
X167000000Y-134000000D03*
D19*
X165750000Y-132750000D03*
X164500000Y-134000000D03*
X163250000Y-132750000D03*
%TD*%
D20*
%TO.C,H3*%
X150000000Y-210500000D03*
D21*
X150000000Y-210500000D03*
%TD*%
D14*
%TO.C,R6*%
X147000000Y-169500000D03*
X145175000Y-169500000D03*
%TD*%
%TO.C,R14*%
X159912500Y-80500000D03*
X158087500Y-80500000D03*
%TD*%
D13*
%TO.C,C4*%
X131215000Y-156500000D03*
X129785000Y-156500000D03*
%TD*%
D17*
%TO.C,R3*%
X144587500Y-112500000D03*
X146412500Y-112500000D03*
%TD*%
D14*
%TO.C,R2*%
X152000000Y-112500000D03*
X150175000Y-112500000D03*
%TD*%
%TO.C,R8*%
X155000000Y-169500000D03*
X153175000Y-169500000D03*
%TD*%
D17*
%TO.C,R12*%
X161587500Y-90500000D03*
X163412500Y-90500000D03*
%TD*%
D14*
%TO.C,R13*%
X171912500Y-84500000D03*
X170087500Y-84500000D03*
%TD*%
D16*
%TO.C,H1*%
X147500000Y-91300000D03*
X152500000Y-91300000D03*
X147500000Y-105800000D03*
X152500000Y-105800000D03*
X150000000Y-105800000D03*
D15*
X144400000Y-98300000D03*
X155600000Y-98300000D03*
%TD*%
D22*
%TO.C,SW1*%
X147460000Y-185800000D03*
D23*
X150000000Y-185800000D03*
X152540000Y-185800000D03*
%TD*%
D18*
%TO.C,LED1*%
X166875000Y-84125000D03*
D19*
X165625000Y-82875000D03*
X164375000Y-84125000D03*
X163125000Y-82875000D03*
%TD*%
D24*
%TO.C,J2*%
X161335000Y-141250000D03*
D25*
X161335000Y-143790000D03*
X161335000Y-146330000D03*
X161335000Y-148870000D03*
X161335000Y-151410000D03*
X161335000Y-153950000D03*
X161335000Y-156490000D03*
X161335000Y-159030000D03*
X161335000Y-161570000D03*
X161335000Y-164110000D03*
X161335000Y-166650000D03*
X161335000Y-169190000D03*
X161335000Y-171730000D03*
X161335000Y-174270000D03*
X161335000Y-176810000D03*
%TD*%
D26*
%TO.C,J4*%
X134450000Y-209000000D03*
D27*
X134450000Y-211000000D03*
%TD*%
D26*
%TO.C,J5*%
X164950000Y-209000000D03*
D27*
X164950000Y-211000000D03*
%TD*%
D24*
%TO.C,J3*%
X138475000Y-141250000D03*
D25*
X138475000Y-143790000D03*
X138475000Y-146330000D03*
X138475000Y-148870000D03*
X138475000Y-151410000D03*
X138475000Y-153950000D03*
X138475000Y-156490000D03*
X138475000Y-159030000D03*
X138475000Y-161570000D03*
X138475000Y-164110000D03*
X138475000Y-166650000D03*
X138475000Y-169190000D03*
X138475000Y-171730000D03*
X138475000Y-174270000D03*
X138475000Y-176810000D03*
%TD*%
M02*
