%TF.GenerationSoftware,KiCad,Pcbnew,9.0.6*%
%TF.CreationDate,2026-04-06T18:53:39+01:00*%
%TF.ProjectId,Silverworm_Control_Panel,53696c76-6572-4776-9f72-6d5f436f6e74,rev?*%
%TF.SameCoordinates,Original*%
%TF.FileFunction,Profile,NP*%
%FSLAX46Y46*%
G04 Gerber Fmt 4.6, Leading zero omitted, Abs format (unit mm)*
G04 Created by KiCad (PCBNEW 9.0.6) date 2026-04-06 18:53:39*
%MOMM*%
%LPD*%
G01*
G04 APERTURE LIST*
%TA.AperFunction,Profile*%
%ADD10C,0.250000*%
%TD*%
G04 APERTURE END LIST*
D10*
X126561774Y-61651319D02*
G75*
G02*
X130000001Y-61299999I3438226J-16648581D01*
G01*
X175000001Y-113925000D02*
X178500002Y-113925000D01*
X130000001Y-270000000D02*
G75*
G02*
X126561774Y-269648682I-1J17000000D01*
G01*
X173438228Y-269648681D02*
G75*
G02*
X169999998Y-270000000I-3438228J16648681D01*
G01*
X178500002Y-113925000D02*
G75*
G02*
X187000002Y-118657176I-2J-10000000D01*
G01*
X121500001Y-231625002D02*
X121500001Y-231625000D01*
X186648682Y-74861773D02*
G75*
G02*
X187000001Y-78300003I-16648682J-3438227D01*
G01*
X178500004Y-231625000D02*
G75*
G02*
X187000002Y-236357176I-4J-10000000D01*
G01*
X113000001Y-118657176D02*
G75*
G02*
X121500001Y-113925002I8499999J-5267824D01*
G01*
X187000001Y-252999997D02*
X187000001Y-236357176D01*
X125000001Y-113925000D02*
X121500001Y-113925000D01*
X175000001Y-217375000D02*
X178500003Y-217375000D01*
X125000001Y-99675000D02*
X121500001Y-99675000D01*
X187000001Y-252999997D02*
G75*
G02*
X186648682Y-256438227I-17000001J-3D01*
G01*
X113351320Y-256438227D02*
G75*
G02*
X112999999Y-253000000I16648580J3438227D01*
G01*
X187000001Y-94942824D02*
X187000001Y-78300003D01*
X121500001Y-217375000D02*
G75*
G02*
X112999999Y-212642825I-1J10000000D01*
G01*
X125000001Y-217375000D02*
X121500001Y-217375000D01*
X175000001Y-113925000D02*
G75*
G02*
X175000001Y-99675000I-1J7125000D01*
G01*
X180182339Y-72925988D02*
G75*
G02*
X186648690Y-74861771I2711261J-2711312D01*
G01*
X186648682Y-256438227D02*
G75*
G02*
X180182345Y-258374006I-3755082J775527D01*
G01*
X119817663Y-258374012D02*
G75*
G02*
X113351308Y-256438229I-2711263J2711312D01*
G01*
X124625989Y-68117662D02*
G75*
G02*
X126561772Y-61651309I2711311J2711262D01*
G01*
X125000001Y-99675000D02*
G75*
G02*
X125000001Y-113925000I-1J-7125000D01*
G01*
X113000001Y-118657176D02*
X113000001Y-212642824D01*
X124625989Y-68117662D02*
G75*
G02*
X119817663Y-72925988I-2404163J-2404163D01*
G01*
X158500001Y-210250000D02*
G75*
G02*
X141500001Y-210250000I-8500000J0D01*
G01*
X141500001Y-210250000D02*
G75*
G02*
X158500001Y-210250000I8500000J0D01*
G01*
X113000002Y-253000000D02*
X113000001Y-253000000D01*
X113000001Y-236357176D02*
X113000001Y-253000000D01*
X121500001Y-113925002D02*
X121500001Y-113925000D01*
X125000001Y-231625000D02*
X121500001Y-231625000D01*
X169999998Y-61300000D02*
G75*
G02*
X173438228Y-61651319I2J-17000000D01*
G01*
X130000001Y-270000000D02*
X169999998Y-270000000D01*
X130000001Y-61300001D02*
X130000001Y-61300000D01*
X173438228Y-61651319D02*
G75*
G02*
X175374005Y-68117654I-775528J-3755081D01*
G01*
X113000001Y-78300000D02*
X113000001Y-94942826D01*
X119817663Y-258374012D02*
G75*
G02*
X124625989Y-263182338I2404163J-2404163D01*
G01*
X180182339Y-72925988D02*
G75*
G02*
X175374013Y-68117662I-2404163J2404163D01*
G01*
X169999998Y-61300000D02*
X130000001Y-61300000D01*
X174619849Y-255969848D02*
G75*
G02*
X171319849Y-255969848I-1650000J0D01*
G01*
X171319849Y-255969848D02*
G75*
G02*
X174619849Y-255969848I1650000J0D01*
G01*
X128680153Y-255969848D02*
G75*
G02*
X125380153Y-255969848I-1650000J0D01*
G01*
X125380153Y-255969848D02*
G75*
G02*
X128680153Y-255969848I1650000J0D01*
G01*
X175374013Y-263182338D02*
G75*
G02*
X180182339Y-258374012I2404163J2404163D01*
G01*
X113000001Y-78300000D02*
G75*
G02*
X113351320Y-74861773I16999999J0D01*
G01*
X174619849Y-75330152D02*
G75*
G02*
X171319849Y-75330152I-1650000J0D01*
G01*
X171319849Y-75330152D02*
G75*
G02*
X174619849Y-75330152I1650000J0D01*
G01*
X175000001Y-231625000D02*
X178500004Y-231625000D01*
X126561774Y-269648681D02*
G75*
G02*
X124625996Y-263182345I775526J3755081D01*
G01*
X175000001Y-99675000D02*
X178500003Y-99675000D01*
X113351320Y-74861773D02*
G75*
G02*
X119817655Y-72925996I3755080J-775527D01*
G01*
X125000001Y-217375000D02*
G75*
G02*
X125000001Y-231625000I-1J-7125000D01*
G01*
X187000001Y-94942824D02*
G75*
G02*
X178500003Y-99674999I-8500001J5267824D01*
G01*
X187000001Y-212642825D02*
X187000001Y-118657177D01*
X128680153Y-75330152D02*
G75*
G02*
X125380153Y-75330152I-1650000J0D01*
G01*
X125380153Y-75330152D02*
G75*
G02*
X128680153Y-75330152I1650000J0D01*
G01*
X175000001Y-231625000D02*
G75*
G02*
X175000001Y-217375000I-1J7125000D01*
G01*
X175374013Y-263182338D02*
G75*
G02*
X173438230Y-269648692I-2711313J-2711262D01*
G01*
X121500001Y-99675000D02*
G75*
G02*
X113000000Y-94942827I-1J10000000D01*
G01*
X187000001Y-212642825D02*
G75*
G02*
X178500003Y-217375000I-8500001J5267825D01*
G01*
X158500001Y-238750000D02*
G75*
G02*
X141500001Y-238750000I-8500000J0D01*
G01*
X141500001Y-238750000D02*
G75*
G02*
X158500001Y-238750000I8500000J0D01*
G01*
X113000001Y-236357176D02*
G75*
G02*
X121500001Y-231625002I8499999J-5267824D01*
G01*
M02*
