%TF.GenerationSoftware,KiCad,Pcbnew,9.0.6*%
%TF.CreationDate,2026-04-06T18:53:39+01:00*%
%TF.ProjectId,Silverworm_Control_Panel,53696c76-6572-4776-9f72-6d5f436f6e74,rev?*%
%TF.SameCoordinates,Original*%
%TF.FileFunction,Legend,Top*%
%TF.FilePolarity,Positive*%
%FSLAX46Y46*%
G04 Gerber Fmt 4.6, Leading zero omitted, Abs format (unit mm)*
G04 Created by KiCad (PCBNEW 9.0.6) date 2026-04-06 18:53:39*
%MOMM*%
%LPD*%
G01*
G04 APERTURE LIST*
%ADD10C,0.200000*%
%ADD11C,0.300000*%
%ADD12C,0.150000*%
%ADD13C,0.254000*%
%ADD14C,0.120000*%
%ADD15C,0.100000*%
G04 APERTURE END LIST*
D10*
X171000000Y-205000000D02*
G75*
G02*
X167000000Y-209000000I-4000000J0D01*
G01*
D11*
G36*
X161595896Y-199620964D02*
G01*
X161690627Y-199644808D01*
X161783357Y-199685061D01*
X161875061Y-199743056D01*
X161948670Y-199806978D01*
X162003056Y-199873585D01*
X162040733Y-199943428D01*
X162063191Y-200017554D01*
X162070791Y-200097422D01*
X162062131Y-200199952D01*
X162037089Y-200291104D01*
X161996172Y-200372965D01*
X161938687Y-200447082D01*
X161862787Y-200514344D01*
X161767532Y-200573225D01*
X161663616Y-200615571D01*
X161549491Y-200641574D01*
X161423242Y-200650540D01*
X161337146Y-200643396D01*
X161331010Y-201115915D01*
X161321526Y-201166551D01*
X161293091Y-201209429D01*
X161250488Y-201238511D01*
X161196737Y-201248447D01*
X161142883Y-201238550D01*
X161099834Y-201209521D01*
X161071032Y-201166633D01*
X161061457Y-201116189D01*
X161061457Y-200830059D01*
X161065781Y-200651965D01*
X161080914Y-200378606D01*
X161353541Y-200378606D01*
X161423242Y-200386758D01*
X161527417Y-200377676D01*
X161614796Y-200352024D01*
X161688581Y-200311012D01*
X161738871Y-200266197D01*
X161773460Y-200216412D01*
X161794197Y-200160612D01*
X161801330Y-200096964D01*
X161790888Y-200044123D01*
X161757912Y-199993322D01*
X161695725Y-199942358D01*
X161625777Y-199905804D01*
X161552451Y-199884092D01*
X161474441Y-199876779D01*
X161416464Y-199877329D01*
X161373966Y-199879893D01*
X161372958Y-200024241D01*
X161353541Y-200378606D01*
X161080914Y-200378606D01*
X161081974Y-200359464D01*
X161102490Y-199886762D01*
X161111625Y-199773965D01*
X161133646Y-199702321D01*
X161164212Y-199659352D01*
X161202614Y-199636655D01*
X161252058Y-199631498D01*
X161348412Y-199617668D01*
X161497980Y-199612997D01*
X161595896Y-199620964D01*
G37*
G36*
X163120241Y-200631306D02*
G01*
X163121249Y-200837020D01*
X163122256Y-201042642D01*
X163125828Y-201106297D01*
X163129492Y-201169862D01*
X163119051Y-201222085D01*
X163088001Y-201264017D01*
X163042301Y-201291712D01*
X162986060Y-201301203D01*
X162933576Y-201292937D01*
X162893249Y-201269479D01*
X162862046Y-201229579D01*
X162773551Y-201256351D01*
X162683229Y-201272383D01*
X162590478Y-201277756D01*
X162495151Y-201270422D01*
X162414393Y-201249702D01*
X162345655Y-201216756D01*
X162295172Y-201177386D01*
X162256729Y-201130899D01*
X162229173Y-201076388D01*
X162212390Y-201012233D01*
X162181791Y-200763935D01*
X162172457Y-200557575D01*
X162179616Y-200421308D01*
X162203231Y-200255508D01*
X162220303Y-200203827D01*
X162247973Y-200169375D01*
X162287027Y-200148278D01*
X162341534Y-200140561D01*
X162396989Y-200149977D01*
X162442925Y-200177656D01*
X162474416Y-200219608D01*
X162484965Y-200271628D01*
X162470128Y-200411854D01*
X162455290Y-200557026D01*
X162464999Y-200807527D01*
X162477909Y-200909913D01*
X162494216Y-200984756D01*
X162543859Y-201002067D01*
X162590570Y-201008112D01*
X162706488Y-201000377D01*
X162840522Y-200975414D01*
X162839515Y-200796353D01*
X162837500Y-200624437D01*
X162842751Y-200421836D01*
X162856917Y-200262286D01*
X162872154Y-200207441D01*
X162899344Y-200171094D01*
X162939177Y-200148789D01*
X162996318Y-200140561D01*
X163052777Y-200150127D01*
X163099816Y-200178297D01*
X163123537Y-200205781D01*
X163136636Y-200236829D01*
X163139750Y-200272910D01*
X163120241Y-200631306D01*
G37*
G36*
X164037800Y-200399214D02*
G01*
X163987059Y-200397749D01*
X163936409Y-200396192D01*
X163839048Y-200404344D01*
X163857549Y-200945280D01*
X163858557Y-200994923D01*
X163859564Y-201053816D01*
X163851398Y-201151364D01*
X163830567Y-201216049D01*
X163800572Y-201257244D01*
X163761716Y-201281112D01*
X163711004Y-201289480D01*
X163658216Y-201280677D01*
X163613642Y-201254675D01*
X163588279Y-201227549D01*
X163573570Y-201197224D01*
X163568579Y-201162443D01*
X163571602Y-201051801D01*
X163574716Y-200941067D01*
X163556215Y-200410205D01*
X163364148Y-200393261D01*
X163305126Y-200378592D01*
X163266863Y-200352266D01*
X163243907Y-200314270D01*
X163235554Y-200260454D01*
X163245356Y-200207200D01*
X163274480Y-200163001D01*
X163318416Y-200133233D01*
X163374864Y-200122976D01*
X163549071Y-200134699D01*
X163543941Y-200027080D01*
X163539820Y-199926605D01*
X163550330Y-199874574D01*
X163581769Y-199832266D01*
X163627816Y-199804229D01*
X163683251Y-199794713D01*
X163734271Y-199803500D01*
X163773790Y-199828804D01*
X163804697Y-199873076D01*
X163826380Y-199943440D01*
X163834926Y-200050436D01*
X163832911Y-200134699D01*
X163936409Y-200122976D01*
X164044883Y-200127800D01*
X164097243Y-200138363D01*
X164142631Y-200164781D01*
X164169456Y-200204787D01*
X164179217Y-200263110D01*
X164169096Y-200316876D01*
X164139192Y-200360380D01*
X164094519Y-200389258D01*
X164037800Y-200399214D01*
G37*
G36*
X165935018Y-200468824D02*
G01*
X165886446Y-200462992D01*
X165852099Y-200447370D01*
X165828179Y-200422863D01*
X165813110Y-200387766D01*
X165729121Y-200380896D01*
X165592356Y-200388363D01*
X165521667Y-200405278D01*
X165490694Y-200425748D01*
X165482100Y-200448674D01*
X165491453Y-200470507D01*
X165531620Y-200504141D01*
X165630661Y-200556476D01*
X165815904Y-200647715D01*
X165905342Y-200702198D01*
X165974564Y-200762192D01*
X166019813Y-200821831D01*
X166045482Y-200882104D01*
X166053903Y-200944731D01*
X166043548Y-201027632D01*
X166013654Y-201097924D01*
X165963641Y-201158646D01*
X165889955Y-201211169D01*
X165799098Y-201250144D01*
X165691919Y-201274843D01*
X165565173Y-201283618D01*
X165432836Y-201272896D01*
X165316137Y-201242035D01*
X165242714Y-201206347D01*
X165196607Y-201166864D01*
X165170955Y-201123548D01*
X165162447Y-201074424D01*
X165170099Y-201029944D01*
X165191118Y-200999861D01*
X165226994Y-200980468D01*
X165284355Y-200972941D01*
X165336012Y-200979018D01*
X165420642Y-201002250D01*
X165505403Y-201025448D01*
X165557937Y-201031559D01*
X165667759Y-201023333D01*
X165728177Y-201004014D01*
X165757585Y-200978744D01*
X165766948Y-200947387D01*
X165756571Y-200918534D01*
X165716091Y-200881322D01*
X165622509Y-200831433D01*
X165431187Y-200741959D01*
X165351949Y-200696885D01*
X165285901Y-200640281D01*
X165241780Y-200580958D01*
X165216120Y-200517922D01*
X165207510Y-200449315D01*
X165216412Y-200371417D01*
X165241730Y-200306921D01*
X165283235Y-200252793D01*
X165343132Y-200207447D01*
X165425771Y-200170969D01*
X165513032Y-200149757D01*
X165639184Y-200134666D01*
X165815125Y-200128838D01*
X165910346Y-200136544D01*
X165966800Y-200155216D01*
X166003462Y-200184470D01*
X166026070Y-200226546D01*
X166034394Y-200286099D01*
X166025630Y-200378511D01*
X166004387Y-200431740D01*
X165974725Y-200459563D01*
X165935018Y-200468824D01*
G37*
G36*
X166830712Y-200174548D02*
G01*
X166916179Y-200204969D01*
X166991338Y-200255213D01*
X167057924Y-200327499D01*
X167104362Y-200403265D01*
X167138184Y-200488191D01*
X167159218Y-200583839D01*
X167166551Y-200692123D01*
X167158141Y-200809499D01*
X167133822Y-200914844D01*
X167094325Y-201010061D01*
X167039515Y-201096680D01*
X166977804Y-201164758D01*
X166909831Y-201216423D01*
X166834769Y-201253254D01*
X166751219Y-201275815D01*
X166657305Y-201283618D01*
X166564914Y-201275341D01*
X166480876Y-201251130D01*
X166403465Y-201211033D01*
X166331424Y-201153925D01*
X166266480Y-201078383D01*
X166218814Y-200991544D01*
X166187890Y-200891339D01*
X166174620Y-200774921D01*
X166174650Y-200774280D01*
X166458461Y-200774280D01*
X166466995Y-200852929D01*
X166490594Y-200914142D01*
X166528162Y-200961950D01*
X166567511Y-200991090D01*
X166610094Y-201008190D01*
X166657213Y-201013974D01*
X166714298Y-201007216D01*
X166765337Y-200987359D01*
X166811911Y-200953798D01*
X166853298Y-200902612D01*
X166880071Y-200840065D01*
X166891870Y-200763106D01*
X166889084Y-200643491D01*
X166872722Y-200559349D01*
X166846735Y-200501854D01*
X166813073Y-200464085D01*
X166771300Y-200441698D01*
X166718671Y-200433653D01*
X166658929Y-200440428D01*
X166607027Y-200461098D01*
X166561017Y-200496124D01*
X166519918Y-200547867D01*
X166486247Y-200614858D01*
X166465608Y-200689740D01*
X166458461Y-200774280D01*
X166174650Y-200774280D01*
X166179855Y-200663838D01*
X166202254Y-200560743D01*
X166241600Y-200464021D01*
X166298634Y-200372378D01*
X166366079Y-200297104D01*
X166441737Y-200239623D01*
X166526673Y-200198349D01*
X166622659Y-200172876D01*
X166732043Y-200164009D01*
X166830712Y-200174548D01*
G37*
G36*
X167654182Y-201076622D02*
G01*
X167646851Y-201155421D01*
X167627896Y-201208702D01*
X167599940Y-201243596D01*
X167562636Y-201264437D01*
X167512766Y-201271894D01*
X167456054Y-201261879D01*
X167411283Y-201232785D01*
X167381590Y-201188756D01*
X167371349Y-201132126D01*
X167371349Y-199710450D01*
X167376260Y-199672637D01*
X167390477Y-199640562D01*
X167414397Y-199612814D01*
X167459481Y-199586836D01*
X167515880Y-199577826D01*
X167571742Y-199587256D01*
X167615256Y-199614371D01*
X167644166Y-199655920D01*
X167654182Y-199710450D01*
X167654182Y-201076622D01*
G37*
G36*
X168883296Y-199599688D02*
G01*
X168925375Y-199628934D01*
X168952930Y-199672381D01*
X168962286Y-199725287D01*
X168957434Y-199893936D01*
X168939205Y-200172801D01*
X168921048Y-200451665D01*
X168916215Y-200620315D01*
X168923710Y-200956993D01*
X168939754Y-201111335D01*
X168942868Y-201141377D01*
X168932519Y-201193494D01*
X168901836Y-201235075D01*
X168857468Y-201262721D01*
X168806581Y-201271894D01*
X168760003Y-201264249D01*
X168723240Y-201242239D01*
X168693832Y-201204208D01*
X168622314Y-201239173D01*
X168549393Y-201259071D01*
X168473768Y-201268648D01*
X168394604Y-201271894D01*
X168282037Y-201262257D01*
X168182473Y-201234434D01*
X168093514Y-201189030D01*
X168013402Y-201125257D01*
X167945957Y-201045647D01*
X167898119Y-200956915D01*
X167868849Y-200857219D01*
X167858705Y-200743963D01*
X167859124Y-200738559D01*
X168122029Y-200738559D01*
X168131166Y-200809190D01*
X168158083Y-200871900D01*
X168204003Y-200928886D01*
X168262447Y-200973383D01*
X168325332Y-200999358D01*
X168394604Y-201008112D01*
X168468494Y-201002767D01*
X168514497Y-200989610D01*
X168546061Y-200970993D01*
X168608836Y-200923756D01*
X168642633Y-200891883D01*
X168642633Y-200515352D01*
X168602879Y-200457845D01*
X168554522Y-200418632D01*
X168496476Y-200395075D01*
X168425379Y-200386758D01*
X168350009Y-200392994D01*
X168288656Y-200410350D01*
X168238603Y-200437622D01*
X168197867Y-200474777D01*
X168158070Y-200537886D01*
X168131823Y-200623523D01*
X168122029Y-200738559D01*
X167859124Y-200738559D01*
X167869301Y-200607303D01*
X167899466Y-200489547D01*
X167947813Y-200387460D01*
X168014410Y-200298556D01*
X168080268Y-200237667D01*
X168152747Y-200190749D01*
X168232780Y-200156919D01*
X168321719Y-200136062D01*
X168421257Y-200128838D01*
X168495811Y-200133155D01*
X168558552Y-200145232D01*
X168615752Y-200166127D01*
X168663058Y-200194417D01*
X168679531Y-199871363D01*
X168694840Y-199710724D01*
X168710736Y-199655496D01*
X168737414Y-199619319D01*
X168775196Y-199597487D01*
X168828013Y-199589549D01*
X168883296Y-199599688D01*
G37*
G36*
X169752210Y-200159334D02*
G01*
X169849804Y-200178918D01*
X169930403Y-200209255D01*
X170000245Y-200253923D01*
X170047297Y-200306729D01*
X170075354Y-200368842D01*
X170085101Y-200443270D01*
X170077959Y-200495028D01*
X170056224Y-200544411D01*
X170017882Y-200592901D01*
X169959071Y-200641290D01*
X169886316Y-200683197D01*
X169728537Y-200757152D01*
X169383238Y-200908461D01*
X169437639Y-200959816D01*
X169502124Y-200996388D01*
X169575175Y-201018044D01*
X169661950Y-201025697D01*
X169752048Y-201019002D01*
X169828842Y-201000056D01*
X169894591Y-200969918D01*
X169977032Y-200930546D01*
X170030879Y-200920184D01*
X170079670Y-200927312D01*
X170111113Y-200946117D01*
X170130247Y-200976391D01*
X170137399Y-201022583D01*
X170128314Y-201073556D01*
X170100299Y-201120933D01*
X170048970Y-201166684D01*
X169966307Y-201211078D01*
X169869062Y-201244766D01*
X169767921Y-201265049D01*
X169661950Y-201271894D01*
X169539462Y-201263827D01*
X169433472Y-201240910D01*
X169341453Y-201204460D01*
X169261331Y-201154932D01*
X169199386Y-201099022D01*
X169151919Y-201035868D01*
X169117714Y-200964523D01*
X169096532Y-200883439D01*
X169089139Y-200790583D01*
X169098235Y-200661769D01*
X169100800Y-200650540D01*
X169362722Y-200650540D01*
X169593257Y-200551988D01*
X169723616Y-200489054D01*
X169813533Y-200437133D01*
X169766212Y-200416643D01*
X169707296Y-200403322D01*
X169634198Y-200398482D01*
X169573170Y-200405628D01*
X169519453Y-200426483D01*
X169471257Y-200461496D01*
X169431518Y-200507167D01*
X169395156Y-200568986D01*
X169362722Y-200650540D01*
X169100800Y-200650540D01*
X169124444Y-200547026D01*
X169166836Y-200444161D01*
X169225427Y-200351404D01*
X169291120Y-200278983D01*
X169363654Y-200223965D01*
X169443930Y-200184699D01*
X169533466Y-200160620D01*
X169634289Y-200152285D01*
X169752210Y-200159334D01*
G37*
G36*
X171177965Y-200487783D02*
G01*
X171163927Y-200561092D01*
X171135820Y-200607512D01*
X171094539Y-200634813D01*
X171035541Y-200644678D01*
X170977132Y-200635747D01*
X170938991Y-200611926D01*
X170915403Y-200572953D01*
X170906489Y-200512696D01*
X170901360Y-200410205D01*
X170812027Y-200432231D01*
X170736108Y-200466665D01*
X170671499Y-200513201D01*
X170616785Y-200572539D01*
X170571358Y-200646327D01*
X170572365Y-201160428D01*
X170562248Y-201214011D01*
X170532431Y-201256965D01*
X170487795Y-201285488D01*
X170431040Y-201295341D01*
X170390554Y-201290444D01*
X170358418Y-201276700D01*
X170332671Y-201254309D01*
X170308400Y-201213182D01*
X170299882Y-201159970D01*
X170299882Y-200488149D01*
X170301897Y-200393261D01*
X170304003Y-200298373D01*
X170312807Y-200245018D01*
X170338258Y-200202477D01*
X170378565Y-200174163D01*
X170436169Y-200164009D01*
X170488340Y-200171666D01*
X170526344Y-200192813D01*
X170553847Y-200227787D01*
X170571358Y-200280787D01*
X170665480Y-200221506D01*
X170763203Y-200179851D01*
X170865619Y-200154865D01*
X170974084Y-200146423D01*
X171036284Y-200153890D01*
X171084767Y-200174681D01*
X171122841Y-200208355D01*
X171151986Y-200257089D01*
X171171573Y-200325298D01*
X171178973Y-200419090D01*
X171177965Y-200487783D01*
G37*
G36*
X161408862Y-202807015D02*
G01*
X161487582Y-202741798D01*
X161569238Y-202696923D01*
X161657223Y-202669754D01*
X161752145Y-202660561D01*
X161839694Y-202667758D01*
X161908475Y-202687478D01*
X161962372Y-202717970D01*
X162004204Y-202759022D01*
X162035070Y-202811525D01*
X162059015Y-202885058D01*
X162073905Y-202985710D01*
X162085170Y-203239142D01*
X162105687Y-203440184D01*
X162122141Y-203550330D01*
X162140491Y-203639212D01*
X162145621Y-203677131D01*
X162140710Y-203713428D01*
X162126382Y-203744616D01*
X162102023Y-203772019D01*
X162054900Y-203800072D01*
X162000082Y-203809480D01*
X161951988Y-203802803D01*
X161915097Y-203784109D01*
X161886615Y-203753182D01*
X161865810Y-203706989D01*
X161843860Y-203615150D01*
X161820747Y-203473249D01*
X161806439Y-203334905D01*
X161802337Y-203235387D01*
X161804810Y-203157992D01*
X161807375Y-203080598D01*
X161805360Y-202992487D01*
X161794274Y-202959320D01*
X161776859Y-202941940D01*
X161752054Y-202936067D01*
X161680645Y-202947007D01*
X161612785Y-202980497D01*
X161546157Y-203040389D01*
X161497134Y-203105642D01*
X161417014Y-203238776D01*
X161410862Y-203495002D01*
X161397030Y-203627471D01*
X161381202Y-203684641D01*
X161348428Y-203732105D01*
X161307025Y-203759122D01*
X161254165Y-203768447D01*
X161200101Y-203758912D01*
X161152132Y-203730070D01*
X161127120Y-203702066D01*
X161112561Y-203670908D01*
X161107619Y-203635365D01*
X161118885Y-203581051D01*
X161123869Y-203533156D01*
X161131158Y-203304630D01*
X161129045Y-203064878D01*
X161133265Y-202619712D01*
X161135280Y-202585915D01*
X161141416Y-202424165D01*
X161131616Y-202330467D01*
X161121907Y-202236769D01*
X161132498Y-202183433D01*
X161163856Y-202141057D01*
X161209889Y-202113162D01*
X161265339Y-202103688D01*
X161312004Y-202110500D01*
X161348985Y-202129904D01*
X161378698Y-202162628D01*
X161401626Y-202212223D01*
X161415362Y-202281824D01*
X161421135Y-202400534D01*
X161414999Y-202608354D01*
X161408862Y-202807015D01*
G37*
G36*
X162923180Y-202679334D02*
G01*
X163020774Y-202698918D01*
X163101373Y-202729255D01*
X163171215Y-202773923D01*
X163218267Y-202826729D01*
X163246324Y-202888842D01*
X163256071Y-202963270D01*
X163248928Y-203015028D01*
X163227194Y-203064411D01*
X163188852Y-203112901D01*
X163130041Y-203161290D01*
X163057286Y-203203197D01*
X162899507Y-203277152D01*
X162554208Y-203428461D01*
X162608609Y-203479816D01*
X162673094Y-203516388D01*
X162746145Y-203538044D01*
X162832920Y-203545697D01*
X162923018Y-203539002D01*
X162999812Y-203520056D01*
X163065561Y-203489918D01*
X163148002Y-203450546D01*
X163201849Y-203440184D01*
X163250640Y-203447312D01*
X163282083Y-203466117D01*
X163301217Y-203496391D01*
X163308369Y-203542583D01*
X163299284Y-203593556D01*
X163271269Y-203640933D01*
X163219940Y-203686684D01*
X163137277Y-203731078D01*
X163040032Y-203764766D01*
X162938891Y-203785049D01*
X162832920Y-203791894D01*
X162710432Y-203783827D01*
X162604442Y-203760910D01*
X162512423Y-203724460D01*
X162432301Y-203674932D01*
X162370356Y-203619022D01*
X162322889Y-203555868D01*
X162288684Y-203484523D01*
X162267502Y-203403439D01*
X162260109Y-203310583D01*
X162269205Y-203181769D01*
X162271770Y-203170540D01*
X162533692Y-203170540D01*
X162764227Y-203071988D01*
X162894586Y-203009054D01*
X162984503Y-202957133D01*
X162937182Y-202936643D01*
X162878266Y-202923322D01*
X162805168Y-202918482D01*
X162744140Y-202925628D01*
X162690423Y-202946483D01*
X162642227Y-202981496D01*
X162602488Y-203027167D01*
X162566126Y-203088986D01*
X162533692Y-203170540D01*
X162271770Y-203170540D01*
X162295414Y-203067026D01*
X162337806Y-202964161D01*
X162396397Y-202871404D01*
X162462090Y-202798983D01*
X162534624Y-202743965D01*
X162614900Y-202704699D01*
X162704436Y-202680620D01*
X162805259Y-202672285D01*
X162923180Y-202679334D01*
G37*
G36*
X164348935Y-203007783D02*
G01*
X164334897Y-203081092D01*
X164306790Y-203127512D01*
X164265509Y-203154813D01*
X164206511Y-203164678D01*
X164148102Y-203155747D01*
X164109961Y-203131926D01*
X164086373Y-203092953D01*
X164077459Y-203032696D01*
X164072330Y-202930205D01*
X163982997Y-202952231D01*
X163907078Y-202986665D01*
X163842469Y-203033201D01*
X163787755Y-203092539D01*
X163742328Y-203166327D01*
X163743335Y-203680428D01*
X163733218Y-203734011D01*
X163703401Y-203776965D01*
X163658765Y-203805488D01*
X163602010Y-203815341D01*
X163561524Y-203810444D01*
X163529388Y-203796700D01*
X163503641Y-203774309D01*
X163479370Y-203733182D01*
X163470852Y-203679970D01*
X163470852Y-203008149D01*
X163472867Y-202913261D01*
X163474973Y-202818373D01*
X163483777Y-202765018D01*
X163509228Y-202722477D01*
X163549535Y-202694163D01*
X163607139Y-202684009D01*
X163659310Y-202691666D01*
X163697314Y-202712813D01*
X163724817Y-202747787D01*
X163742328Y-202800787D01*
X163836450Y-202741506D01*
X163934173Y-202699851D01*
X164036589Y-202674865D01*
X164145054Y-202666423D01*
X164207254Y-202673890D01*
X164255737Y-202694681D01*
X164293811Y-202728355D01*
X164322956Y-202777089D01*
X164342543Y-202845298D01*
X164349943Y-202939090D01*
X164348935Y-203007783D01*
G37*
G36*
X165105245Y-202679334D02*
G01*
X165202840Y-202698918D01*
X165283439Y-202729255D01*
X165353281Y-202773923D01*
X165400332Y-202826729D01*
X165428389Y-202888842D01*
X165438136Y-202963270D01*
X165430994Y-203015028D01*
X165409259Y-203064411D01*
X165370918Y-203112901D01*
X165312107Y-203161290D01*
X165239351Y-203203197D01*
X165081572Y-203277152D01*
X164736274Y-203428461D01*
X164790674Y-203479816D01*
X164855159Y-203516388D01*
X164928210Y-203538044D01*
X165014986Y-203545697D01*
X165105083Y-203539002D01*
X165181877Y-203520056D01*
X165247627Y-203489918D01*
X165330068Y-203450546D01*
X165383914Y-203440184D01*
X165432705Y-203447312D01*
X165464149Y-203466117D01*
X165483282Y-203496391D01*
X165490435Y-203542583D01*
X165481349Y-203593556D01*
X165453334Y-203640933D01*
X165402006Y-203686684D01*
X165319343Y-203731078D01*
X165222098Y-203764766D01*
X165120956Y-203785049D01*
X165014986Y-203791894D01*
X164892498Y-203783827D01*
X164786508Y-203760910D01*
X164694489Y-203724460D01*
X164614366Y-203674932D01*
X164552421Y-203619022D01*
X164504955Y-203555868D01*
X164470749Y-203484523D01*
X164449568Y-203403439D01*
X164442175Y-203310583D01*
X164451271Y-203181769D01*
X164453836Y-203170540D01*
X164715758Y-203170540D01*
X164946292Y-203071988D01*
X165076652Y-203009054D01*
X165166569Y-202957133D01*
X165119247Y-202936643D01*
X165060332Y-202923322D01*
X164987233Y-202918482D01*
X164926206Y-202925628D01*
X164872489Y-202946483D01*
X164824293Y-202981496D01*
X164784554Y-203027167D01*
X164748192Y-203088986D01*
X164715758Y-203170540D01*
X164453836Y-203170540D01*
X164477480Y-203067026D01*
X164519871Y-202964161D01*
X164578463Y-202871404D01*
X164644155Y-202798983D01*
X164716690Y-202743965D01*
X164796966Y-202704699D01*
X164886502Y-202680620D01*
X164987325Y-202672285D01*
X165105245Y-202679334D01*
G37*
G36*
X166768678Y-202629241D02*
G01*
X166811911Y-202657905D01*
X166841121Y-202700304D01*
X166850837Y-202750595D01*
X166849829Y-202760853D01*
X166919454Y-202726577D01*
X166987674Y-202702968D01*
X167057199Y-202688716D01*
X167126526Y-202684009D01*
X167218403Y-202692512D01*
X167296525Y-202716721D01*
X167363583Y-202755852D01*
X167421414Y-202810704D01*
X167470817Y-202883586D01*
X167513750Y-202987042D01*
X167541656Y-203115224D01*
X167551783Y-203273489D01*
X167543221Y-203384271D01*
X167518631Y-203481700D01*
X167478876Y-203568024D01*
X167423739Y-203644982D01*
X167349760Y-203713987D01*
X167265332Y-203762974D01*
X167168370Y-203793099D01*
X167055818Y-203803618D01*
X166966813Y-203798644D01*
X166870346Y-203783101D01*
X166869338Y-204204512D01*
X166859158Y-204259666D01*
X166829313Y-204303613D01*
X166784603Y-204332847D01*
X166727922Y-204342906D01*
X166671202Y-204332911D01*
X166626439Y-204303888D01*
X166596658Y-204260226D01*
X166586505Y-204205428D01*
X166588612Y-203822852D01*
X166588612Y-203417653D01*
X166575864Y-203079316D01*
X166861095Y-203079316D01*
X166870298Y-203288685D01*
X166873368Y-203498711D01*
X166965137Y-203520849D01*
X167055818Y-203528112D01*
X167122494Y-203519374D01*
X167175362Y-203494717D01*
X167217751Y-203454015D01*
X167245102Y-203406731D01*
X167262610Y-203347490D01*
X167268950Y-203273214D01*
X167265141Y-203146674D01*
X167256677Y-203083346D01*
X167235365Y-203025338D01*
X167206899Y-202988292D01*
X167171412Y-202966924D01*
X167126526Y-202959515D01*
X167062433Y-202966774D01*
X166995276Y-202989465D01*
X166930268Y-203025682D01*
X166861095Y-203079316D01*
X166575864Y-203079316D01*
X166574232Y-203035993D01*
X166558845Y-202833943D01*
X166568749Y-202753311D01*
X166596763Y-202688222D01*
X166630472Y-202649291D01*
X166669438Y-202627070D01*
X166715648Y-202619528D01*
X166768678Y-202629241D01*
G37*
G36*
X168020546Y-203596622D02*
G01*
X168013215Y-203675421D01*
X167994261Y-203728702D01*
X167966304Y-203763596D01*
X167929000Y-203784437D01*
X167879130Y-203791894D01*
X167822418Y-203781879D01*
X167777647Y-203752785D01*
X167747955Y-203708756D01*
X167737713Y-203652126D01*
X167737713Y-202230450D01*
X167742624Y-202192637D01*
X167756841Y-202160562D01*
X167780761Y-202132814D01*
X167825846Y-202106836D01*
X167882244Y-202097826D01*
X167938106Y-202107256D01*
X167981620Y-202134371D01*
X168010530Y-202175920D01*
X168020546Y-202230450D01*
X168020546Y-203596622D01*
G37*
G36*
X168886125Y-202679334D02*
G01*
X168983719Y-202698918D01*
X169064318Y-202729255D01*
X169134160Y-202773923D01*
X169181212Y-202826729D01*
X169209269Y-202888842D01*
X169219016Y-202963270D01*
X169211873Y-203015028D01*
X169190138Y-203064411D01*
X169151797Y-203112901D01*
X169092986Y-203161290D01*
X169020231Y-203203197D01*
X168862452Y-203277152D01*
X168517153Y-203428461D01*
X168571553Y-203479816D01*
X168636038Y-203516388D01*
X168709089Y-203538044D01*
X168795865Y-203545697D01*
X168885963Y-203539002D01*
X168962756Y-203520056D01*
X169028506Y-203489918D01*
X169110947Y-203450546D01*
X169164794Y-203440184D01*
X169213585Y-203447312D01*
X169245028Y-203466117D01*
X169264162Y-203496391D01*
X169271314Y-203542583D01*
X169262229Y-203593556D01*
X169234214Y-203640933D01*
X169182885Y-203686684D01*
X169100222Y-203731078D01*
X169002977Y-203764766D01*
X168901836Y-203785049D01*
X168795865Y-203791894D01*
X168673377Y-203783827D01*
X168567387Y-203760910D01*
X168475368Y-203724460D01*
X168395245Y-203674932D01*
X168333301Y-203619022D01*
X168285834Y-203555868D01*
X168251629Y-203484523D01*
X168230447Y-203403439D01*
X168223054Y-203310583D01*
X168232150Y-203181769D01*
X168234715Y-203170540D01*
X168496637Y-203170540D01*
X168727172Y-203071988D01*
X168857531Y-203009054D01*
X168947448Y-202957133D01*
X168900126Y-202936643D01*
X168841211Y-202923322D01*
X168768113Y-202918482D01*
X168707085Y-202925628D01*
X168653368Y-202946483D01*
X168605172Y-202981496D01*
X168565433Y-203027167D01*
X168529071Y-203088986D01*
X168496637Y-203170540D01*
X168234715Y-203170540D01*
X168258359Y-203067026D01*
X168300751Y-202964161D01*
X168359342Y-202871404D01*
X168425035Y-202798983D01*
X168497569Y-202743965D01*
X168577845Y-202704699D01*
X168667381Y-202680620D01*
X168768204Y-202672285D01*
X168886125Y-202679334D01*
G37*
G36*
X170088909Y-202677674D02*
G01*
X170163361Y-202695193D01*
X170250423Y-202727331D01*
X170327233Y-202767605D01*
X170373391Y-202806207D01*
X170397567Y-202843515D01*
X170405120Y-202881204D01*
X170399213Y-202915681D01*
X170381581Y-202945409D01*
X170365644Y-203047900D01*
X170360057Y-203192064D01*
X170368412Y-203373120D01*
X170387718Y-203472333D01*
X170434887Y-203578395D01*
X170474821Y-203678230D01*
X170464481Y-203727596D01*
X170433330Y-203767897D01*
X170388585Y-203794706D01*
X170337526Y-203803618D01*
X170307801Y-203796884D01*
X170260708Y-203770584D01*
X170187957Y-203712485D01*
X170095762Y-203753463D01*
X170021903Y-203780537D01*
X169952301Y-203798452D01*
X169899995Y-203803618D01*
X169776517Y-203794080D01*
X169676400Y-203767641D01*
X169595215Y-203726406D01*
X169529601Y-203670811D01*
X169478637Y-203601544D01*
X169440164Y-203514921D01*
X169415198Y-203407146D01*
X169406651Y-203281091D01*
X169689885Y-203281091D01*
X169696366Y-203372028D01*
X169713560Y-203439217D01*
X169739070Y-203488087D01*
X169776568Y-203526069D01*
X169824612Y-203549171D01*
X169886623Y-203557421D01*
X169948857Y-203552095D01*
X170007065Y-203536355D01*
X170061839Y-203510548D01*
X170114135Y-203474256D01*
X170089779Y-203244945D01*
X170083360Y-203108533D01*
X170087940Y-203033062D01*
X170101862Y-202937991D01*
X170065409Y-202923153D01*
X170038298Y-202918482D01*
X169971190Y-202925244D01*
X169908984Y-202945257D01*
X169850354Y-202978970D01*
X169794391Y-203027933D01*
X169747935Y-203085875D01*
X169715673Y-203146726D01*
X169696409Y-203211384D01*
X169689885Y-203281091D01*
X169406651Y-203281091D01*
X169406136Y-203273489D01*
X169413552Y-203176331D01*
X169435298Y-203086497D01*
X169471196Y-203002637D01*
X169521824Y-202923675D01*
X169588494Y-202848872D01*
X169685064Y-202771019D01*
X169788768Y-202716446D01*
X169901301Y-202683532D01*
X170025017Y-202672285D01*
X170088909Y-202677674D01*
G37*
G36*
X171341089Y-202988824D02*
G01*
X171292517Y-202982992D01*
X171258171Y-202967370D01*
X171234251Y-202942863D01*
X171219181Y-202907766D01*
X171135192Y-202900896D01*
X170998427Y-202908363D01*
X170927738Y-202925278D01*
X170896765Y-202945748D01*
X170888171Y-202968674D01*
X170897524Y-202990507D01*
X170937691Y-203024141D01*
X171036732Y-203076476D01*
X171221976Y-203167715D01*
X171311413Y-203222198D01*
X171380635Y-203282192D01*
X171425884Y-203341831D01*
X171451553Y-203402104D01*
X171459974Y-203464731D01*
X171449619Y-203547632D01*
X171419725Y-203617924D01*
X171369712Y-203678646D01*
X171296026Y-203731169D01*
X171205170Y-203770144D01*
X171097990Y-203794843D01*
X170971244Y-203803618D01*
X170838907Y-203792896D01*
X170722208Y-203762035D01*
X170648786Y-203726347D01*
X170602678Y-203686864D01*
X170577026Y-203643548D01*
X170568518Y-203594424D01*
X170576170Y-203549944D01*
X170597189Y-203519861D01*
X170633065Y-203500468D01*
X170690426Y-203492941D01*
X170742083Y-203499018D01*
X170826714Y-203522250D01*
X170911474Y-203545448D01*
X170964009Y-203551559D01*
X171073831Y-203543333D01*
X171134248Y-203524014D01*
X171163656Y-203498744D01*
X171173019Y-203467387D01*
X171162642Y-203438534D01*
X171122162Y-203401322D01*
X171028580Y-203351433D01*
X170837258Y-203261959D01*
X170758020Y-203216885D01*
X170691972Y-203160281D01*
X170647851Y-203100958D01*
X170622191Y-203037922D01*
X170613581Y-202969315D01*
X170622483Y-202891417D01*
X170647801Y-202826921D01*
X170689306Y-202772793D01*
X170749203Y-202727447D01*
X170831843Y-202690969D01*
X170919103Y-202669757D01*
X171045255Y-202654666D01*
X171221196Y-202648838D01*
X171316417Y-202656544D01*
X171372871Y-202675216D01*
X171409533Y-202704470D01*
X171432141Y-202746546D01*
X171440465Y-202806099D01*
X171431701Y-202898511D01*
X171410459Y-202951740D01*
X171380796Y-202979563D01*
X171341089Y-202988824D01*
G37*
G36*
X172247883Y-202679334D02*
G01*
X172345478Y-202698918D01*
X172426077Y-202729255D01*
X172495918Y-202773923D01*
X172542970Y-202826729D01*
X172571027Y-202888842D01*
X172580774Y-202963270D01*
X172573632Y-203015028D01*
X172551897Y-203064411D01*
X172513555Y-203112901D01*
X172454745Y-203161290D01*
X172381989Y-203203197D01*
X172224210Y-203277152D01*
X171878912Y-203428461D01*
X171933312Y-203479816D01*
X171997797Y-203516388D01*
X172070848Y-203538044D01*
X172157623Y-203545697D01*
X172247721Y-203539002D01*
X172324515Y-203520056D01*
X172390265Y-203489918D01*
X172472706Y-203450546D01*
X172526552Y-203440184D01*
X172575343Y-203447312D01*
X172606786Y-203466117D01*
X172625920Y-203496391D01*
X172633073Y-203542583D01*
X172623987Y-203593556D01*
X172595972Y-203640933D01*
X172544644Y-203686684D01*
X172461980Y-203731078D01*
X172364736Y-203764766D01*
X172263594Y-203785049D01*
X172157623Y-203791894D01*
X172035136Y-203783827D01*
X171929145Y-203760910D01*
X171837126Y-203724460D01*
X171757004Y-203674932D01*
X171695059Y-203619022D01*
X171647593Y-203555868D01*
X171613387Y-203484523D01*
X171592205Y-203403439D01*
X171584813Y-203310583D01*
X171593909Y-203181769D01*
X171596474Y-203170540D01*
X171858395Y-203170540D01*
X172088930Y-203071988D01*
X172219289Y-203009054D01*
X172309207Y-202957133D01*
X172261885Y-202936643D01*
X172202969Y-202923322D01*
X172129871Y-202918482D01*
X172068844Y-202925628D01*
X172015127Y-202946483D01*
X171966931Y-202981496D01*
X171927192Y-203027167D01*
X171890830Y-203088986D01*
X171858395Y-203170540D01*
X171596474Y-203170540D01*
X171620118Y-203067026D01*
X171662509Y-202964161D01*
X171721100Y-202871404D01*
X171786793Y-202798983D01*
X171859327Y-202743965D01*
X171939604Y-202704699D01*
X172029140Y-202680620D01*
X172129963Y-202672285D01*
X172247883Y-202679334D01*
G37*
G36*
X174085707Y-202930205D02*
G01*
X174026934Y-202920365D01*
X173980744Y-202892012D01*
X173949740Y-202848842D01*
X173939253Y-202794834D01*
X173934582Y-202759754D01*
X173930002Y-202723484D01*
X173934909Y-202686928D01*
X173949217Y-202655527D01*
X173973508Y-202627955D01*
X174021006Y-202599767D01*
X174077555Y-202590219D01*
X174132208Y-202598181D01*
X174172838Y-202620318D01*
X174203051Y-202657094D01*
X174223403Y-202712833D01*
X174231245Y-202794834D01*
X174220758Y-202848842D01*
X174189754Y-202892012D01*
X174143689Y-202920401D01*
X174085707Y-202930205D01*
G37*
G36*
X174102102Y-203621901D02*
G01*
X174047153Y-203613191D01*
X174005467Y-203588557D01*
X173973676Y-203546570D01*
X173951809Y-203481386D01*
X173943283Y-203383856D01*
X173948379Y-203347988D01*
X173963419Y-203316535D01*
X173989353Y-203288235D01*
X174037006Y-203261615D01*
X174092851Y-203252606D01*
X174146672Y-203261176D01*
X174187549Y-203285439D01*
X174218766Y-203326850D01*
X174240261Y-203391224D01*
X174248647Y-203487629D01*
X174238081Y-203540788D01*
X174206607Y-203583799D01*
X174160167Y-203612133D01*
X174102102Y-203621901D01*
G37*
G36*
X174830800Y-204162746D02*
G01*
X174779048Y-204184163D01*
X174736553Y-204190498D01*
X174687572Y-204181570D01*
X174644321Y-204154503D01*
X174614251Y-204114491D01*
X174604387Y-204067308D01*
X174610736Y-204028963D01*
X174630320Y-203992444D01*
X174665845Y-203956392D01*
X174771358Y-203877349D01*
X174834962Y-203803361D01*
X174888908Y-203715207D01*
X174933029Y-203610836D01*
X174966540Y-203487700D01*
X174988078Y-203342835D01*
X174995756Y-203172922D01*
X174989750Y-203047631D01*
X174971485Y-202919478D01*
X174940435Y-202787873D01*
X174890373Y-202643916D01*
X174833627Y-202533266D01*
X174771358Y-202449993D01*
X174668867Y-202349426D01*
X174628655Y-202299202D01*
X174608889Y-202260917D01*
X174603288Y-202231274D01*
X174613054Y-202182415D01*
X174643222Y-202138401D01*
X174687255Y-202107892D01*
X174738568Y-202097826D01*
X174777052Y-202105418D01*
X174828694Y-202132722D01*
X174925726Y-202210916D01*
X175015283Y-202311521D01*
X175097538Y-202437777D01*
X175171977Y-202593791D01*
X175223068Y-202736961D01*
X175258744Y-202876991D01*
X175279795Y-203014543D01*
X175286741Y-203150299D01*
X175277687Y-203356129D01*
X175252195Y-203533062D01*
X175212386Y-203684757D01*
X175159820Y-203814502D01*
X175095438Y-203925148D01*
X175019516Y-204019029D01*
X174931655Y-204097878D01*
X174830800Y-204162746D01*
G37*
D12*
X139833333Y-124879580D02*
X139785714Y-124927200D01*
X139785714Y-124927200D02*
X139642857Y-124974819D01*
X139642857Y-124974819D02*
X139547619Y-124974819D01*
X139547619Y-124974819D02*
X139404762Y-124927200D01*
X139404762Y-124927200D02*
X139309524Y-124831961D01*
X139309524Y-124831961D02*
X139261905Y-124736723D01*
X139261905Y-124736723D02*
X139214286Y-124546247D01*
X139214286Y-124546247D02*
X139214286Y-124403390D01*
X139214286Y-124403390D02*
X139261905Y-124212914D01*
X139261905Y-124212914D02*
X139309524Y-124117676D01*
X139309524Y-124117676D02*
X139404762Y-124022438D01*
X139404762Y-124022438D02*
X139547619Y-123974819D01*
X139547619Y-123974819D02*
X139642857Y-123974819D01*
X139642857Y-123974819D02*
X139785714Y-124022438D01*
X139785714Y-124022438D02*
X139833333Y-124070057D01*
X140214286Y-124070057D02*
X140261905Y-124022438D01*
X140261905Y-124022438D02*
X140357143Y-123974819D01*
X140357143Y-123974819D02*
X140595238Y-123974819D01*
X140595238Y-123974819D02*
X140690476Y-124022438D01*
X140690476Y-124022438D02*
X140738095Y-124070057D01*
X140738095Y-124070057D02*
X140785714Y-124165295D01*
X140785714Y-124165295D02*
X140785714Y-124260533D01*
X140785714Y-124260533D02*
X140738095Y-124403390D01*
X140738095Y-124403390D02*
X140166667Y-124974819D01*
X140166667Y-124974819D02*
X140785714Y-124974819D01*
X137880952Y-120934819D02*
X137976190Y-120934819D01*
X137976190Y-120934819D02*
X138071428Y-120982438D01*
X138071428Y-120982438D02*
X138119047Y-121030057D01*
X138119047Y-121030057D02*
X138166666Y-121125295D01*
X138166666Y-121125295D02*
X138214285Y-121315771D01*
X138214285Y-121315771D02*
X138214285Y-121553866D01*
X138214285Y-121553866D02*
X138166666Y-121744342D01*
X138166666Y-121744342D02*
X138119047Y-121839580D01*
X138119047Y-121839580D02*
X138071428Y-121887200D01*
X138071428Y-121887200D02*
X137976190Y-121934819D01*
X137976190Y-121934819D02*
X137880952Y-121934819D01*
X137880952Y-121934819D02*
X137785714Y-121887200D01*
X137785714Y-121887200D02*
X137738095Y-121839580D01*
X137738095Y-121839580D02*
X137690476Y-121744342D01*
X137690476Y-121744342D02*
X137642857Y-121553866D01*
X137642857Y-121553866D02*
X137642857Y-121315771D01*
X137642857Y-121315771D02*
X137690476Y-121125295D01*
X137690476Y-121125295D02*
X137738095Y-121030057D01*
X137738095Y-121030057D02*
X137785714Y-120982438D01*
X137785714Y-120982438D02*
X137880952Y-120934819D01*
X138642857Y-121839580D02*
X138690476Y-121887200D01*
X138690476Y-121887200D02*
X138642857Y-121934819D01*
X138642857Y-121934819D02*
X138595238Y-121887200D01*
X138595238Y-121887200D02*
X138642857Y-121839580D01*
X138642857Y-121839580D02*
X138642857Y-121934819D01*
X139309523Y-120934819D02*
X139404761Y-120934819D01*
X139404761Y-120934819D02*
X139499999Y-120982438D01*
X139499999Y-120982438D02*
X139547618Y-121030057D01*
X139547618Y-121030057D02*
X139595237Y-121125295D01*
X139595237Y-121125295D02*
X139642856Y-121315771D01*
X139642856Y-121315771D02*
X139642856Y-121553866D01*
X139642856Y-121553866D02*
X139595237Y-121744342D01*
X139595237Y-121744342D02*
X139547618Y-121839580D01*
X139547618Y-121839580D02*
X139499999Y-121887200D01*
X139499999Y-121887200D02*
X139404761Y-121934819D01*
X139404761Y-121934819D02*
X139309523Y-121934819D01*
X139309523Y-121934819D02*
X139214285Y-121887200D01*
X139214285Y-121887200D02*
X139166666Y-121839580D01*
X139166666Y-121839580D02*
X139119047Y-121744342D01*
X139119047Y-121744342D02*
X139071428Y-121553866D01*
X139071428Y-121553866D02*
X139071428Y-121315771D01*
X139071428Y-121315771D02*
X139119047Y-121125295D01*
X139119047Y-121125295D02*
X139166666Y-121030057D01*
X139166666Y-121030057D02*
X139214285Y-120982438D01*
X139214285Y-120982438D02*
X139309523Y-120934819D01*
X140595237Y-121934819D02*
X140023809Y-121934819D01*
X140309523Y-121934819D02*
X140309523Y-120934819D01*
X140309523Y-120934819D02*
X140214285Y-121077676D01*
X140214285Y-121077676D02*
X140119047Y-121172914D01*
X140119047Y-121172914D02*
X140023809Y-121220533D01*
X141452380Y-121268152D02*
X141452380Y-121934819D01*
X141023809Y-121268152D02*
X141023809Y-121791961D01*
X141023809Y-121791961D02*
X141071428Y-121887200D01*
X141071428Y-121887200D02*
X141166666Y-121934819D01*
X141166666Y-121934819D02*
X141309523Y-121934819D01*
X141309523Y-121934819D02*
X141404761Y-121887200D01*
X141404761Y-121887200D02*
X141452380Y-121839580D01*
X142261904Y-121411009D02*
X141928571Y-121411009D01*
X141928571Y-121934819D02*
X141928571Y-120934819D01*
X141928571Y-120934819D02*
X142404761Y-120934819D01*
X145333333Y-124884819D02*
X145000000Y-124408628D01*
X144761905Y-124884819D02*
X144761905Y-123884819D01*
X144761905Y-123884819D02*
X145142857Y-123884819D01*
X145142857Y-123884819D02*
X145238095Y-123932438D01*
X145238095Y-123932438D02*
X145285714Y-123980057D01*
X145285714Y-123980057D02*
X145333333Y-124075295D01*
X145333333Y-124075295D02*
X145333333Y-124218152D01*
X145333333Y-124218152D02*
X145285714Y-124313390D01*
X145285714Y-124313390D02*
X145238095Y-124361009D01*
X145238095Y-124361009D02*
X145142857Y-124408628D01*
X145142857Y-124408628D02*
X144761905Y-124408628D01*
X146190476Y-124218152D02*
X146190476Y-124884819D01*
X145952381Y-123837200D02*
X145714286Y-124551485D01*
X145714286Y-124551485D02*
X146333333Y-124551485D01*
X144809523Y-122024819D02*
X144238095Y-122024819D01*
X144523809Y-122024819D02*
X144523809Y-121024819D01*
X144523809Y-121024819D02*
X144428571Y-121167676D01*
X144428571Y-121167676D02*
X144333333Y-121262914D01*
X144333333Y-121262914D02*
X144238095Y-121310533D01*
X145428571Y-121024819D02*
X145523809Y-121024819D01*
X145523809Y-121024819D02*
X145619047Y-121072438D01*
X145619047Y-121072438D02*
X145666666Y-121120057D01*
X145666666Y-121120057D02*
X145714285Y-121215295D01*
X145714285Y-121215295D02*
X145761904Y-121405771D01*
X145761904Y-121405771D02*
X145761904Y-121643866D01*
X145761904Y-121643866D02*
X145714285Y-121834342D01*
X145714285Y-121834342D02*
X145666666Y-121929580D01*
X145666666Y-121929580D02*
X145619047Y-121977200D01*
X145619047Y-121977200D02*
X145523809Y-122024819D01*
X145523809Y-122024819D02*
X145428571Y-122024819D01*
X145428571Y-122024819D02*
X145333333Y-121977200D01*
X145333333Y-121977200D02*
X145285714Y-121929580D01*
X145285714Y-121929580D02*
X145238095Y-121834342D01*
X145238095Y-121834342D02*
X145190476Y-121643866D01*
X145190476Y-121643866D02*
X145190476Y-121405771D01*
X145190476Y-121405771D02*
X145238095Y-121215295D01*
X145238095Y-121215295D02*
X145285714Y-121120057D01*
X145285714Y-121120057D02*
X145333333Y-121072438D01*
X145333333Y-121072438D02*
X145428571Y-121024819D01*
X146190476Y-122024819D02*
X146190476Y-121024819D01*
X146761904Y-122024819D02*
X146333333Y-121453390D01*
X146761904Y-121024819D02*
X146190476Y-121596247D01*
X150833333Y-124884819D02*
X150500000Y-124408628D01*
X150261905Y-124884819D02*
X150261905Y-123884819D01*
X150261905Y-123884819D02*
X150642857Y-123884819D01*
X150642857Y-123884819D02*
X150738095Y-123932438D01*
X150738095Y-123932438D02*
X150785714Y-123980057D01*
X150785714Y-123980057D02*
X150833333Y-124075295D01*
X150833333Y-124075295D02*
X150833333Y-124218152D01*
X150833333Y-124218152D02*
X150785714Y-124313390D01*
X150785714Y-124313390D02*
X150738095Y-124361009D01*
X150738095Y-124361009D02*
X150642857Y-124408628D01*
X150642857Y-124408628D02*
X150261905Y-124408628D01*
X151785714Y-124884819D02*
X151214286Y-124884819D01*
X151500000Y-124884819D02*
X151500000Y-123884819D01*
X151500000Y-123884819D02*
X151404762Y-124027676D01*
X151404762Y-124027676D02*
X151309524Y-124122914D01*
X151309524Y-124122914D02*
X151214286Y-124170533D01*
X150309523Y-122024819D02*
X149738095Y-122024819D01*
X150023809Y-122024819D02*
X150023809Y-121024819D01*
X150023809Y-121024819D02*
X149928571Y-121167676D01*
X149928571Y-121167676D02*
X149833333Y-121262914D01*
X149833333Y-121262914D02*
X149738095Y-121310533D01*
X150928571Y-121024819D02*
X151023809Y-121024819D01*
X151023809Y-121024819D02*
X151119047Y-121072438D01*
X151119047Y-121072438D02*
X151166666Y-121120057D01*
X151166666Y-121120057D02*
X151214285Y-121215295D01*
X151214285Y-121215295D02*
X151261904Y-121405771D01*
X151261904Y-121405771D02*
X151261904Y-121643866D01*
X151261904Y-121643866D02*
X151214285Y-121834342D01*
X151214285Y-121834342D02*
X151166666Y-121929580D01*
X151166666Y-121929580D02*
X151119047Y-121977200D01*
X151119047Y-121977200D02*
X151023809Y-122024819D01*
X151023809Y-122024819D02*
X150928571Y-122024819D01*
X150928571Y-122024819D02*
X150833333Y-121977200D01*
X150833333Y-121977200D02*
X150785714Y-121929580D01*
X150785714Y-121929580D02*
X150738095Y-121834342D01*
X150738095Y-121834342D02*
X150690476Y-121643866D01*
X150690476Y-121643866D02*
X150690476Y-121405771D01*
X150690476Y-121405771D02*
X150738095Y-121215295D01*
X150738095Y-121215295D02*
X150785714Y-121120057D01*
X150785714Y-121120057D02*
X150833333Y-121072438D01*
X150833333Y-121072438D02*
X150928571Y-121024819D01*
X151690476Y-122024819D02*
X151690476Y-121024819D01*
X152261904Y-122024819D02*
X151833333Y-121453390D01*
X152261904Y-121024819D02*
X151690476Y-121596247D01*
X153920833Y-166884819D02*
X153587500Y-166408628D01*
X153349405Y-166884819D02*
X153349405Y-165884819D01*
X153349405Y-165884819D02*
X153730357Y-165884819D01*
X153730357Y-165884819D02*
X153825595Y-165932438D01*
X153825595Y-165932438D02*
X153873214Y-165980057D01*
X153873214Y-165980057D02*
X153920833Y-166075295D01*
X153920833Y-166075295D02*
X153920833Y-166218152D01*
X153920833Y-166218152D02*
X153873214Y-166313390D01*
X153873214Y-166313390D02*
X153825595Y-166361009D01*
X153825595Y-166361009D02*
X153730357Y-166408628D01*
X153730357Y-166408628D02*
X153349405Y-166408628D01*
X154254167Y-165884819D02*
X154920833Y-165884819D01*
X154920833Y-165884819D02*
X154492262Y-166884819D01*
X153397023Y-164024819D02*
X152825595Y-164024819D01*
X153111309Y-164024819D02*
X153111309Y-163024819D01*
X153111309Y-163024819D02*
X153016071Y-163167676D01*
X153016071Y-163167676D02*
X152920833Y-163262914D01*
X152920833Y-163262914D02*
X152825595Y-163310533D01*
X154016071Y-163024819D02*
X154111309Y-163024819D01*
X154111309Y-163024819D02*
X154206547Y-163072438D01*
X154206547Y-163072438D02*
X154254166Y-163120057D01*
X154254166Y-163120057D02*
X154301785Y-163215295D01*
X154301785Y-163215295D02*
X154349404Y-163405771D01*
X154349404Y-163405771D02*
X154349404Y-163643866D01*
X154349404Y-163643866D02*
X154301785Y-163834342D01*
X154301785Y-163834342D02*
X154254166Y-163929580D01*
X154254166Y-163929580D02*
X154206547Y-163977200D01*
X154206547Y-163977200D02*
X154111309Y-164024819D01*
X154111309Y-164024819D02*
X154016071Y-164024819D01*
X154016071Y-164024819D02*
X153920833Y-163977200D01*
X153920833Y-163977200D02*
X153873214Y-163929580D01*
X153873214Y-163929580D02*
X153825595Y-163834342D01*
X153825595Y-163834342D02*
X153777976Y-163643866D01*
X153777976Y-163643866D02*
X153777976Y-163405771D01*
X153777976Y-163405771D02*
X153825595Y-163215295D01*
X153825595Y-163215295D02*
X153873214Y-163120057D01*
X153873214Y-163120057D02*
X153920833Y-163072438D01*
X153920833Y-163072438D02*
X154016071Y-163024819D01*
X154777976Y-164024819D02*
X154777976Y-163024819D01*
X155349404Y-164024819D02*
X154920833Y-163453390D01*
X155349404Y-163024819D02*
X154777976Y-163596247D01*
X130333333Y-153379580D02*
X130285714Y-153427200D01*
X130285714Y-153427200D02*
X130142857Y-153474819D01*
X130142857Y-153474819D02*
X130047619Y-153474819D01*
X130047619Y-153474819D02*
X129904762Y-153427200D01*
X129904762Y-153427200D02*
X129809524Y-153331961D01*
X129809524Y-153331961D02*
X129761905Y-153236723D01*
X129761905Y-153236723D02*
X129714286Y-153046247D01*
X129714286Y-153046247D02*
X129714286Y-152903390D01*
X129714286Y-152903390D02*
X129761905Y-152712914D01*
X129761905Y-152712914D02*
X129809524Y-152617676D01*
X129809524Y-152617676D02*
X129904762Y-152522438D01*
X129904762Y-152522438D02*
X130047619Y-152474819D01*
X130047619Y-152474819D02*
X130142857Y-152474819D01*
X130142857Y-152474819D02*
X130285714Y-152522438D01*
X130285714Y-152522438D02*
X130333333Y-152570057D01*
X130666667Y-152474819D02*
X131285714Y-152474819D01*
X131285714Y-152474819D02*
X130952381Y-152855771D01*
X130952381Y-152855771D02*
X131095238Y-152855771D01*
X131095238Y-152855771D02*
X131190476Y-152903390D01*
X131190476Y-152903390D02*
X131238095Y-152951009D01*
X131238095Y-152951009D02*
X131285714Y-153046247D01*
X131285714Y-153046247D02*
X131285714Y-153284342D01*
X131285714Y-153284342D02*
X131238095Y-153379580D01*
X131238095Y-153379580D02*
X131190476Y-153427200D01*
X131190476Y-153427200D02*
X131095238Y-153474819D01*
X131095238Y-153474819D02*
X130809524Y-153474819D01*
X130809524Y-153474819D02*
X130714286Y-153427200D01*
X130714286Y-153427200D02*
X130666667Y-153379580D01*
X128380952Y-149434819D02*
X128476190Y-149434819D01*
X128476190Y-149434819D02*
X128571428Y-149482438D01*
X128571428Y-149482438D02*
X128619047Y-149530057D01*
X128619047Y-149530057D02*
X128666666Y-149625295D01*
X128666666Y-149625295D02*
X128714285Y-149815771D01*
X128714285Y-149815771D02*
X128714285Y-150053866D01*
X128714285Y-150053866D02*
X128666666Y-150244342D01*
X128666666Y-150244342D02*
X128619047Y-150339580D01*
X128619047Y-150339580D02*
X128571428Y-150387200D01*
X128571428Y-150387200D02*
X128476190Y-150434819D01*
X128476190Y-150434819D02*
X128380952Y-150434819D01*
X128380952Y-150434819D02*
X128285714Y-150387200D01*
X128285714Y-150387200D02*
X128238095Y-150339580D01*
X128238095Y-150339580D02*
X128190476Y-150244342D01*
X128190476Y-150244342D02*
X128142857Y-150053866D01*
X128142857Y-150053866D02*
X128142857Y-149815771D01*
X128142857Y-149815771D02*
X128190476Y-149625295D01*
X128190476Y-149625295D02*
X128238095Y-149530057D01*
X128238095Y-149530057D02*
X128285714Y-149482438D01*
X128285714Y-149482438D02*
X128380952Y-149434819D01*
X129142857Y-150339580D02*
X129190476Y-150387200D01*
X129190476Y-150387200D02*
X129142857Y-150434819D01*
X129142857Y-150434819D02*
X129095238Y-150387200D01*
X129095238Y-150387200D02*
X129142857Y-150339580D01*
X129142857Y-150339580D02*
X129142857Y-150434819D01*
X129809523Y-149434819D02*
X129904761Y-149434819D01*
X129904761Y-149434819D02*
X129999999Y-149482438D01*
X129999999Y-149482438D02*
X130047618Y-149530057D01*
X130047618Y-149530057D02*
X130095237Y-149625295D01*
X130095237Y-149625295D02*
X130142856Y-149815771D01*
X130142856Y-149815771D02*
X130142856Y-150053866D01*
X130142856Y-150053866D02*
X130095237Y-150244342D01*
X130095237Y-150244342D02*
X130047618Y-150339580D01*
X130047618Y-150339580D02*
X129999999Y-150387200D01*
X129999999Y-150387200D02*
X129904761Y-150434819D01*
X129904761Y-150434819D02*
X129809523Y-150434819D01*
X129809523Y-150434819D02*
X129714285Y-150387200D01*
X129714285Y-150387200D02*
X129666666Y-150339580D01*
X129666666Y-150339580D02*
X129619047Y-150244342D01*
X129619047Y-150244342D02*
X129571428Y-150053866D01*
X129571428Y-150053866D02*
X129571428Y-149815771D01*
X129571428Y-149815771D02*
X129619047Y-149625295D01*
X129619047Y-149625295D02*
X129666666Y-149530057D01*
X129666666Y-149530057D02*
X129714285Y-149482438D01*
X129714285Y-149482438D02*
X129809523Y-149434819D01*
X131095237Y-150434819D02*
X130523809Y-150434819D01*
X130809523Y-150434819D02*
X130809523Y-149434819D01*
X130809523Y-149434819D02*
X130714285Y-149577676D01*
X130714285Y-149577676D02*
X130619047Y-149672914D01*
X130619047Y-149672914D02*
X130523809Y-149720533D01*
X131952380Y-149768152D02*
X131952380Y-150434819D01*
X131523809Y-149768152D02*
X131523809Y-150291961D01*
X131523809Y-150291961D02*
X131571428Y-150387200D01*
X131571428Y-150387200D02*
X131666666Y-150434819D01*
X131666666Y-150434819D02*
X131809523Y-150434819D01*
X131809523Y-150434819D02*
X131904761Y-150387200D01*
X131904761Y-150387200D02*
X131952380Y-150339580D01*
X132761904Y-149911009D02*
X132428571Y-149911009D01*
X132428571Y-150434819D02*
X132428571Y-149434819D01*
X132428571Y-149434819D02*
X132904761Y-149434819D01*
X130333333Y-147879580D02*
X130285714Y-147927200D01*
X130285714Y-147927200D02*
X130142857Y-147974819D01*
X130142857Y-147974819D02*
X130047619Y-147974819D01*
X130047619Y-147974819D02*
X129904762Y-147927200D01*
X129904762Y-147927200D02*
X129809524Y-147831961D01*
X129809524Y-147831961D02*
X129761905Y-147736723D01*
X129761905Y-147736723D02*
X129714286Y-147546247D01*
X129714286Y-147546247D02*
X129714286Y-147403390D01*
X129714286Y-147403390D02*
X129761905Y-147212914D01*
X129761905Y-147212914D02*
X129809524Y-147117676D01*
X129809524Y-147117676D02*
X129904762Y-147022438D01*
X129904762Y-147022438D02*
X130047619Y-146974819D01*
X130047619Y-146974819D02*
X130142857Y-146974819D01*
X130142857Y-146974819D02*
X130285714Y-147022438D01*
X130285714Y-147022438D02*
X130333333Y-147070057D01*
X131285714Y-147974819D02*
X130714286Y-147974819D01*
X131000000Y-147974819D02*
X131000000Y-146974819D01*
X131000000Y-146974819D02*
X130904762Y-147117676D01*
X130904762Y-147117676D02*
X130809524Y-147212914D01*
X130809524Y-147212914D02*
X130714286Y-147260533D01*
X128380952Y-143934819D02*
X128476190Y-143934819D01*
X128476190Y-143934819D02*
X128571428Y-143982438D01*
X128571428Y-143982438D02*
X128619047Y-144030057D01*
X128619047Y-144030057D02*
X128666666Y-144125295D01*
X128666666Y-144125295D02*
X128714285Y-144315771D01*
X128714285Y-144315771D02*
X128714285Y-144553866D01*
X128714285Y-144553866D02*
X128666666Y-144744342D01*
X128666666Y-144744342D02*
X128619047Y-144839580D01*
X128619047Y-144839580D02*
X128571428Y-144887200D01*
X128571428Y-144887200D02*
X128476190Y-144934819D01*
X128476190Y-144934819D02*
X128380952Y-144934819D01*
X128380952Y-144934819D02*
X128285714Y-144887200D01*
X128285714Y-144887200D02*
X128238095Y-144839580D01*
X128238095Y-144839580D02*
X128190476Y-144744342D01*
X128190476Y-144744342D02*
X128142857Y-144553866D01*
X128142857Y-144553866D02*
X128142857Y-144315771D01*
X128142857Y-144315771D02*
X128190476Y-144125295D01*
X128190476Y-144125295D02*
X128238095Y-144030057D01*
X128238095Y-144030057D02*
X128285714Y-143982438D01*
X128285714Y-143982438D02*
X128380952Y-143934819D01*
X129142857Y-144839580D02*
X129190476Y-144887200D01*
X129190476Y-144887200D02*
X129142857Y-144934819D01*
X129142857Y-144934819D02*
X129095238Y-144887200D01*
X129095238Y-144887200D02*
X129142857Y-144839580D01*
X129142857Y-144839580D02*
X129142857Y-144934819D01*
X129809523Y-143934819D02*
X129904761Y-143934819D01*
X129904761Y-143934819D02*
X129999999Y-143982438D01*
X129999999Y-143982438D02*
X130047618Y-144030057D01*
X130047618Y-144030057D02*
X130095237Y-144125295D01*
X130095237Y-144125295D02*
X130142856Y-144315771D01*
X130142856Y-144315771D02*
X130142856Y-144553866D01*
X130142856Y-144553866D02*
X130095237Y-144744342D01*
X130095237Y-144744342D02*
X130047618Y-144839580D01*
X130047618Y-144839580D02*
X129999999Y-144887200D01*
X129999999Y-144887200D02*
X129904761Y-144934819D01*
X129904761Y-144934819D02*
X129809523Y-144934819D01*
X129809523Y-144934819D02*
X129714285Y-144887200D01*
X129714285Y-144887200D02*
X129666666Y-144839580D01*
X129666666Y-144839580D02*
X129619047Y-144744342D01*
X129619047Y-144744342D02*
X129571428Y-144553866D01*
X129571428Y-144553866D02*
X129571428Y-144315771D01*
X129571428Y-144315771D02*
X129619047Y-144125295D01*
X129619047Y-144125295D02*
X129666666Y-144030057D01*
X129666666Y-144030057D02*
X129714285Y-143982438D01*
X129714285Y-143982438D02*
X129809523Y-143934819D01*
X131095237Y-144934819D02*
X130523809Y-144934819D01*
X130809523Y-144934819D02*
X130809523Y-143934819D01*
X130809523Y-143934819D02*
X130714285Y-144077676D01*
X130714285Y-144077676D02*
X130619047Y-144172914D01*
X130619047Y-144172914D02*
X130523809Y-144220533D01*
X131952380Y-144268152D02*
X131952380Y-144934819D01*
X131523809Y-144268152D02*
X131523809Y-144791961D01*
X131523809Y-144791961D02*
X131571428Y-144887200D01*
X131571428Y-144887200D02*
X131666666Y-144934819D01*
X131666666Y-144934819D02*
X131809523Y-144934819D01*
X131809523Y-144934819D02*
X131904761Y-144887200D01*
X131904761Y-144887200D02*
X131952380Y-144839580D01*
X132761904Y-144411009D02*
X132428571Y-144411009D01*
X132428571Y-144934819D02*
X132428571Y-143934819D01*
X132428571Y-143934819D02*
X132904761Y-143934819D01*
D13*
X149032380Y-145374318D02*
X149032380Y-144104318D01*
X149032380Y-144709080D02*
X149758095Y-144709080D01*
X149758095Y-145374318D02*
X149758095Y-144104318D01*
X150302380Y-144225270D02*
X150362856Y-144164794D01*
X150362856Y-144164794D02*
X150483809Y-144104318D01*
X150483809Y-144104318D02*
X150786190Y-144104318D01*
X150786190Y-144104318D02*
X150907142Y-144164794D01*
X150907142Y-144164794D02*
X150967618Y-144225270D01*
X150967618Y-144225270D02*
X151028095Y-144346222D01*
X151028095Y-144346222D02*
X151028095Y-144467175D01*
X151028095Y-144467175D02*
X150967618Y-144648603D01*
X150967618Y-144648603D02*
X150241904Y-145374318D01*
X150241904Y-145374318D02*
X151028095Y-145374318D01*
D12*
X145920833Y-166884819D02*
X145587500Y-166408628D01*
X145349405Y-166884819D02*
X145349405Y-165884819D01*
X145349405Y-165884819D02*
X145730357Y-165884819D01*
X145730357Y-165884819D02*
X145825595Y-165932438D01*
X145825595Y-165932438D02*
X145873214Y-165980057D01*
X145873214Y-165980057D02*
X145920833Y-166075295D01*
X145920833Y-166075295D02*
X145920833Y-166218152D01*
X145920833Y-166218152D02*
X145873214Y-166313390D01*
X145873214Y-166313390D02*
X145825595Y-166361009D01*
X145825595Y-166361009D02*
X145730357Y-166408628D01*
X145730357Y-166408628D02*
X145349405Y-166408628D01*
X146825595Y-165884819D02*
X146349405Y-165884819D01*
X146349405Y-165884819D02*
X146301786Y-166361009D01*
X146301786Y-166361009D02*
X146349405Y-166313390D01*
X146349405Y-166313390D02*
X146444643Y-166265771D01*
X146444643Y-166265771D02*
X146682738Y-166265771D01*
X146682738Y-166265771D02*
X146777976Y-166313390D01*
X146777976Y-166313390D02*
X146825595Y-166361009D01*
X146825595Y-166361009D02*
X146873214Y-166456247D01*
X146873214Y-166456247D02*
X146873214Y-166694342D01*
X146873214Y-166694342D02*
X146825595Y-166789580D01*
X146825595Y-166789580D02*
X146777976Y-166837200D01*
X146777976Y-166837200D02*
X146682738Y-166884819D01*
X146682738Y-166884819D02*
X146444643Y-166884819D01*
X146444643Y-166884819D02*
X146349405Y-166837200D01*
X146349405Y-166837200D02*
X146301786Y-166789580D01*
X145397023Y-164024819D02*
X144825595Y-164024819D01*
X145111309Y-164024819D02*
X145111309Y-163024819D01*
X145111309Y-163024819D02*
X145016071Y-163167676D01*
X145016071Y-163167676D02*
X144920833Y-163262914D01*
X144920833Y-163262914D02*
X144825595Y-163310533D01*
X146016071Y-163024819D02*
X146111309Y-163024819D01*
X146111309Y-163024819D02*
X146206547Y-163072438D01*
X146206547Y-163072438D02*
X146254166Y-163120057D01*
X146254166Y-163120057D02*
X146301785Y-163215295D01*
X146301785Y-163215295D02*
X146349404Y-163405771D01*
X146349404Y-163405771D02*
X146349404Y-163643866D01*
X146349404Y-163643866D02*
X146301785Y-163834342D01*
X146301785Y-163834342D02*
X146254166Y-163929580D01*
X146254166Y-163929580D02*
X146206547Y-163977200D01*
X146206547Y-163977200D02*
X146111309Y-164024819D01*
X146111309Y-164024819D02*
X146016071Y-164024819D01*
X146016071Y-164024819D02*
X145920833Y-163977200D01*
X145920833Y-163977200D02*
X145873214Y-163929580D01*
X145873214Y-163929580D02*
X145825595Y-163834342D01*
X145825595Y-163834342D02*
X145777976Y-163643866D01*
X145777976Y-163643866D02*
X145777976Y-163405771D01*
X145777976Y-163405771D02*
X145825595Y-163215295D01*
X145825595Y-163215295D02*
X145873214Y-163120057D01*
X145873214Y-163120057D02*
X145920833Y-163072438D01*
X145920833Y-163072438D02*
X146016071Y-163024819D01*
X146777976Y-164024819D02*
X146777976Y-163024819D01*
X147349404Y-164024819D02*
X146920833Y-163453390D01*
X147349404Y-163024819D02*
X146777976Y-163596247D01*
X158357142Y-132384819D02*
X158023809Y-131908628D01*
X157785714Y-132384819D02*
X157785714Y-131384819D01*
X157785714Y-131384819D02*
X158166666Y-131384819D01*
X158166666Y-131384819D02*
X158261904Y-131432438D01*
X158261904Y-131432438D02*
X158309523Y-131480057D01*
X158309523Y-131480057D02*
X158357142Y-131575295D01*
X158357142Y-131575295D02*
X158357142Y-131718152D01*
X158357142Y-131718152D02*
X158309523Y-131813390D01*
X158309523Y-131813390D02*
X158261904Y-131861009D01*
X158261904Y-131861009D02*
X158166666Y-131908628D01*
X158166666Y-131908628D02*
X157785714Y-131908628D01*
X159309523Y-132384819D02*
X158738095Y-132384819D01*
X159023809Y-132384819D02*
X159023809Y-131384819D01*
X159023809Y-131384819D02*
X158928571Y-131527676D01*
X158928571Y-131527676D02*
X158833333Y-131622914D01*
X158833333Y-131622914D02*
X158738095Y-131670533D01*
X160261904Y-132384819D02*
X159690476Y-132384819D01*
X159976190Y-132384819D02*
X159976190Y-131384819D01*
X159976190Y-131384819D02*
X159880952Y-131527676D01*
X159880952Y-131527676D02*
X159785714Y-131622914D01*
X159785714Y-131622914D02*
X159690476Y-131670533D01*
X158333333Y-129524819D02*
X157761905Y-129524819D01*
X158047619Y-129524819D02*
X158047619Y-128524819D01*
X158047619Y-128524819D02*
X157952381Y-128667676D01*
X157952381Y-128667676D02*
X157857143Y-128762914D01*
X157857143Y-128762914D02*
X157761905Y-128810533D01*
X158952381Y-128524819D02*
X159047619Y-128524819D01*
X159047619Y-128524819D02*
X159142857Y-128572438D01*
X159142857Y-128572438D02*
X159190476Y-128620057D01*
X159190476Y-128620057D02*
X159238095Y-128715295D01*
X159238095Y-128715295D02*
X159285714Y-128905771D01*
X159285714Y-128905771D02*
X159285714Y-129143866D01*
X159285714Y-129143866D02*
X159238095Y-129334342D01*
X159238095Y-129334342D02*
X159190476Y-129429580D01*
X159190476Y-129429580D02*
X159142857Y-129477200D01*
X159142857Y-129477200D02*
X159047619Y-129524819D01*
X159047619Y-129524819D02*
X158952381Y-129524819D01*
X158952381Y-129524819D02*
X158857143Y-129477200D01*
X158857143Y-129477200D02*
X158809524Y-129429580D01*
X158809524Y-129429580D02*
X158761905Y-129334342D01*
X158761905Y-129334342D02*
X158714286Y-129143866D01*
X158714286Y-129143866D02*
X158714286Y-128905771D01*
X158714286Y-128905771D02*
X158761905Y-128715295D01*
X158761905Y-128715295D02*
X158809524Y-128620057D01*
X158809524Y-128620057D02*
X158857143Y-128572438D01*
X158857143Y-128572438D02*
X158952381Y-128524819D01*
X159904762Y-128524819D02*
X160000000Y-128524819D01*
X160000000Y-128524819D02*
X160095238Y-128572438D01*
X160095238Y-128572438D02*
X160142857Y-128620057D01*
X160142857Y-128620057D02*
X160190476Y-128715295D01*
X160190476Y-128715295D02*
X160238095Y-128905771D01*
X160238095Y-128905771D02*
X160238095Y-129143866D01*
X160238095Y-129143866D02*
X160190476Y-129334342D01*
X160190476Y-129334342D02*
X160142857Y-129429580D01*
X160142857Y-129429580D02*
X160095238Y-129477200D01*
X160095238Y-129477200D02*
X160000000Y-129524819D01*
X160000000Y-129524819D02*
X159904762Y-129524819D01*
X159904762Y-129524819D02*
X159809524Y-129477200D01*
X159809524Y-129477200D02*
X159761905Y-129429580D01*
X159761905Y-129429580D02*
X159714286Y-129334342D01*
X159714286Y-129334342D02*
X159666667Y-129143866D01*
X159666667Y-129143866D02*
X159666667Y-128905771D01*
X159666667Y-128905771D02*
X159714286Y-128715295D01*
X159714286Y-128715295D02*
X159761905Y-128620057D01*
X159761905Y-128620057D02*
X159809524Y-128572438D01*
X159809524Y-128572438D02*
X159904762Y-128524819D01*
X170857142Y-135884819D02*
X170523809Y-135408628D01*
X170285714Y-135884819D02*
X170285714Y-134884819D01*
X170285714Y-134884819D02*
X170666666Y-134884819D01*
X170666666Y-134884819D02*
X170761904Y-134932438D01*
X170761904Y-134932438D02*
X170809523Y-134980057D01*
X170809523Y-134980057D02*
X170857142Y-135075295D01*
X170857142Y-135075295D02*
X170857142Y-135218152D01*
X170857142Y-135218152D02*
X170809523Y-135313390D01*
X170809523Y-135313390D02*
X170761904Y-135361009D01*
X170761904Y-135361009D02*
X170666666Y-135408628D01*
X170666666Y-135408628D02*
X170285714Y-135408628D01*
X171809523Y-135884819D02*
X171238095Y-135884819D01*
X171523809Y-135884819D02*
X171523809Y-134884819D01*
X171523809Y-134884819D02*
X171428571Y-135027676D01*
X171428571Y-135027676D02*
X171333333Y-135122914D01*
X171333333Y-135122914D02*
X171238095Y-135170533D01*
X172428571Y-134884819D02*
X172523809Y-134884819D01*
X172523809Y-134884819D02*
X172619047Y-134932438D01*
X172619047Y-134932438D02*
X172666666Y-134980057D01*
X172666666Y-134980057D02*
X172714285Y-135075295D01*
X172714285Y-135075295D02*
X172761904Y-135265771D01*
X172761904Y-135265771D02*
X172761904Y-135503866D01*
X172761904Y-135503866D02*
X172714285Y-135694342D01*
X172714285Y-135694342D02*
X172666666Y-135789580D01*
X172666666Y-135789580D02*
X172619047Y-135837200D01*
X172619047Y-135837200D02*
X172523809Y-135884819D01*
X172523809Y-135884819D02*
X172428571Y-135884819D01*
X172428571Y-135884819D02*
X172333333Y-135837200D01*
X172333333Y-135837200D02*
X172285714Y-135789580D01*
X172285714Y-135789580D02*
X172238095Y-135694342D01*
X172238095Y-135694342D02*
X172190476Y-135503866D01*
X172190476Y-135503866D02*
X172190476Y-135265771D01*
X172190476Y-135265771D02*
X172238095Y-135075295D01*
X172238095Y-135075295D02*
X172285714Y-134980057D01*
X172285714Y-134980057D02*
X172333333Y-134932438D01*
X172333333Y-134932438D02*
X172428571Y-134884819D01*
X171214285Y-132024819D02*
X171023809Y-132024819D01*
X171023809Y-132024819D02*
X170928571Y-132072438D01*
X170928571Y-132072438D02*
X170880952Y-132120057D01*
X170880952Y-132120057D02*
X170785714Y-132262914D01*
X170785714Y-132262914D02*
X170738095Y-132453390D01*
X170738095Y-132453390D02*
X170738095Y-132834342D01*
X170738095Y-132834342D02*
X170785714Y-132929580D01*
X170785714Y-132929580D02*
X170833333Y-132977200D01*
X170833333Y-132977200D02*
X170928571Y-133024819D01*
X170928571Y-133024819D02*
X171119047Y-133024819D01*
X171119047Y-133024819D02*
X171214285Y-132977200D01*
X171214285Y-132977200D02*
X171261904Y-132929580D01*
X171261904Y-132929580D02*
X171309523Y-132834342D01*
X171309523Y-132834342D02*
X171309523Y-132596247D01*
X171309523Y-132596247D02*
X171261904Y-132501009D01*
X171261904Y-132501009D02*
X171214285Y-132453390D01*
X171214285Y-132453390D02*
X171119047Y-132405771D01*
X171119047Y-132405771D02*
X170928571Y-132405771D01*
X170928571Y-132405771D02*
X170833333Y-132453390D01*
X170833333Y-132453390D02*
X170785714Y-132501009D01*
X170785714Y-132501009D02*
X170738095Y-132596247D01*
X171880952Y-132453390D02*
X171785714Y-132405771D01*
X171785714Y-132405771D02*
X171738095Y-132358152D01*
X171738095Y-132358152D02*
X171690476Y-132262914D01*
X171690476Y-132262914D02*
X171690476Y-132215295D01*
X171690476Y-132215295D02*
X171738095Y-132120057D01*
X171738095Y-132120057D02*
X171785714Y-132072438D01*
X171785714Y-132072438D02*
X171880952Y-132024819D01*
X171880952Y-132024819D02*
X172071428Y-132024819D01*
X172071428Y-132024819D02*
X172166666Y-132072438D01*
X172166666Y-132072438D02*
X172214285Y-132120057D01*
X172214285Y-132120057D02*
X172261904Y-132215295D01*
X172261904Y-132215295D02*
X172261904Y-132262914D01*
X172261904Y-132262914D02*
X172214285Y-132358152D01*
X172214285Y-132358152D02*
X172166666Y-132405771D01*
X172166666Y-132405771D02*
X172071428Y-132453390D01*
X172071428Y-132453390D02*
X171880952Y-132453390D01*
X171880952Y-132453390D02*
X171785714Y-132501009D01*
X171785714Y-132501009D02*
X171738095Y-132548628D01*
X171738095Y-132548628D02*
X171690476Y-132643866D01*
X171690476Y-132643866D02*
X171690476Y-132834342D01*
X171690476Y-132834342D02*
X171738095Y-132929580D01*
X171738095Y-132929580D02*
X171785714Y-132977200D01*
X171785714Y-132977200D02*
X171880952Y-133024819D01*
X171880952Y-133024819D02*
X172071428Y-133024819D01*
X172071428Y-133024819D02*
X172166666Y-132977200D01*
X172166666Y-132977200D02*
X172214285Y-132929580D01*
X172214285Y-132929580D02*
X172261904Y-132834342D01*
X172261904Y-132834342D02*
X172261904Y-132643866D01*
X172261904Y-132643866D02*
X172214285Y-132548628D01*
X172214285Y-132548628D02*
X172166666Y-132501009D01*
X172166666Y-132501009D02*
X172071428Y-132453390D01*
X165833333Y-138024819D02*
X165500000Y-137548628D01*
X165261905Y-138024819D02*
X165261905Y-137024819D01*
X165261905Y-137024819D02*
X165642857Y-137024819D01*
X165642857Y-137024819D02*
X165738095Y-137072438D01*
X165738095Y-137072438D02*
X165785714Y-137120057D01*
X165785714Y-137120057D02*
X165833333Y-137215295D01*
X165833333Y-137215295D02*
X165833333Y-137358152D01*
X165833333Y-137358152D02*
X165785714Y-137453390D01*
X165785714Y-137453390D02*
X165738095Y-137501009D01*
X165738095Y-137501009D02*
X165642857Y-137548628D01*
X165642857Y-137548628D02*
X165261905Y-137548628D01*
X166309524Y-138024819D02*
X166500000Y-138024819D01*
X166500000Y-138024819D02*
X166595238Y-137977200D01*
X166595238Y-137977200D02*
X166642857Y-137929580D01*
X166642857Y-137929580D02*
X166738095Y-137786723D01*
X166738095Y-137786723D02*
X166785714Y-137596247D01*
X166785714Y-137596247D02*
X166785714Y-137215295D01*
X166785714Y-137215295D02*
X166738095Y-137120057D01*
X166738095Y-137120057D02*
X166690476Y-137072438D01*
X166690476Y-137072438D02*
X166595238Y-137024819D01*
X166595238Y-137024819D02*
X166404762Y-137024819D01*
X166404762Y-137024819D02*
X166309524Y-137072438D01*
X166309524Y-137072438D02*
X166261905Y-137120057D01*
X166261905Y-137120057D02*
X166214286Y-137215295D01*
X166214286Y-137215295D02*
X166214286Y-137453390D01*
X166214286Y-137453390D02*
X166261905Y-137548628D01*
X166261905Y-137548628D02*
X166309524Y-137596247D01*
X166309524Y-137596247D02*
X166404762Y-137643866D01*
X166404762Y-137643866D02*
X166595238Y-137643866D01*
X166595238Y-137643866D02*
X166690476Y-137596247D01*
X166690476Y-137596247D02*
X166738095Y-137548628D01*
X166738095Y-137548628D02*
X166785714Y-137453390D01*
X165333333Y-140884819D02*
X164761905Y-140884819D01*
X165047619Y-140884819D02*
X165047619Y-139884819D01*
X165047619Y-139884819D02*
X164952381Y-140027676D01*
X164952381Y-140027676D02*
X164857143Y-140122914D01*
X164857143Y-140122914D02*
X164761905Y-140170533D01*
X165952381Y-139884819D02*
X166047619Y-139884819D01*
X166047619Y-139884819D02*
X166142857Y-139932438D01*
X166142857Y-139932438D02*
X166190476Y-139980057D01*
X166190476Y-139980057D02*
X166238095Y-140075295D01*
X166238095Y-140075295D02*
X166285714Y-140265771D01*
X166285714Y-140265771D02*
X166285714Y-140503866D01*
X166285714Y-140503866D02*
X166238095Y-140694342D01*
X166238095Y-140694342D02*
X166190476Y-140789580D01*
X166190476Y-140789580D02*
X166142857Y-140837200D01*
X166142857Y-140837200D02*
X166047619Y-140884819D01*
X166047619Y-140884819D02*
X165952381Y-140884819D01*
X165952381Y-140884819D02*
X165857143Y-140837200D01*
X165857143Y-140837200D02*
X165809524Y-140789580D01*
X165809524Y-140789580D02*
X165761905Y-140694342D01*
X165761905Y-140694342D02*
X165714286Y-140503866D01*
X165714286Y-140503866D02*
X165714286Y-140265771D01*
X165714286Y-140265771D02*
X165761905Y-140075295D01*
X165761905Y-140075295D02*
X165809524Y-139980057D01*
X165809524Y-139980057D02*
X165857143Y-139932438D01*
X165857143Y-139932438D02*
X165952381Y-139884819D01*
X166904762Y-139884819D02*
X167000000Y-139884819D01*
X167000000Y-139884819D02*
X167095238Y-139932438D01*
X167095238Y-139932438D02*
X167142857Y-139980057D01*
X167142857Y-139980057D02*
X167190476Y-140075295D01*
X167190476Y-140075295D02*
X167238095Y-140265771D01*
X167238095Y-140265771D02*
X167238095Y-140503866D01*
X167238095Y-140503866D02*
X167190476Y-140694342D01*
X167190476Y-140694342D02*
X167142857Y-140789580D01*
X167142857Y-140789580D02*
X167095238Y-140837200D01*
X167095238Y-140837200D02*
X167000000Y-140884819D01*
X167000000Y-140884819D02*
X166904762Y-140884819D01*
X166904762Y-140884819D02*
X166809524Y-140837200D01*
X166809524Y-140837200D02*
X166761905Y-140789580D01*
X166761905Y-140789580D02*
X166714286Y-140694342D01*
X166714286Y-140694342D02*
X166666667Y-140503866D01*
X166666667Y-140503866D02*
X166666667Y-140265771D01*
X166666667Y-140265771D02*
X166714286Y-140075295D01*
X166714286Y-140075295D02*
X166761905Y-139980057D01*
X166761905Y-139980057D02*
X166809524Y-139932438D01*
X166809524Y-139932438D02*
X166904762Y-139884819D01*
D13*
X163703809Y-129574318D02*
X163099047Y-129574318D01*
X163099047Y-129574318D02*
X163099047Y-128304318D01*
X164127142Y-128909080D02*
X164550476Y-128909080D01*
X164731904Y-129574318D02*
X164127142Y-129574318D01*
X164127142Y-129574318D02*
X164127142Y-128304318D01*
X164127142Y-128304318D02*
X164731904Y-128304318D01*
X165276190Y-129574318D02*
X165276190Y-128304318D01*
X165276190Y-128304318D02*
X165578571Y-128304318D01*
X165578571Y-128304318D02*
X165760000Y-128364794D01*
X165760000Y-128364794D02*
X165880952Y-128485746D01*
X165880952Y-128485746D02*
X165941429Y-128606699D01*
X165941429Y-128606699D02*
X166001905Y-128848603D01*
X166001905Y-128848603D02*
X166001905Y-129030032D01*
X166001905Y-129030032D02*
X165941429Y-129271937D01*
X165941429Y-129271937D02*
X165880952Y-129392889D01*
X165880952Y-129392889D02*
X165760000Y-129513842D01*
X165760000Y-129513842D02*
X165578571Y-129574318D01*
X165578571Y-129574318D02*
X165276190Y-129574318D01*
X166485714Y-128425270D02*
X166546190Y-128364794D01*
X166546190Y-128364794D02*
X166667143Y-128304318D01*
X166667143Y-128304318D02*
X166969524Y-128304318D01*
X166969524Y-128304318D02*
X167090476Y-128364794D01*
X167090476Y-128364794D02*
X167150952Y-128425270D01*
X167150952Y-128425270D02*
X167211429Y-128546222D01*
X167211429Y-128546222D02*
X167211429Y-128667175D01*
X167211429Y-128667175D02*
X167150952Y-128848603D01*
X167150952Y-128848603D02*
X166425238Y-129574318D01*
X166425238Y-129574318D02*
X167211429Y-129574318D01*
D12*
X145920833Y-171384819D02*
X145587500Y-170908628D01*
X145349405Y-171384819D02*
X145349405Y-170384819D01*
X145349405Y-170384819D02*
X145730357Y-170384819D01*
X145730357Y-170384819D02*
X145825595Y-170432438D01*
X145825595Y-170432438D02*
X145873214Y-170480057D01*
X145873214Y-170480057D02*
X145920833Y-170575295D01*
X145920833Y-170575295D02*
X145920833Y-170718152D01*
X145920833Y-170718152D02*
X145873214Y-170813390D01*
X145873214Y-170813390D02*
X145825595Y-170861009D01*
X145825595Y-170861009D02*
X145730357Y-170908628D01*
X145730357Y-170908628D02*
X145349405Y-170908628D01*
X146777976Y-170384819D02*
X146587500Y-170384819D01*
X146587500Y-170384819D02*
X146492262Y-170432438D01*
X146492262Y-170432438D02*
X146444643Y-170480057D01*
X146444643Y-170480057D02*
X146349405Y-170622914D01*
X146349405Y-170622914D02*
X146301786Y-170813390D01*
X146301786Y-170813390D02*
X146301786Y-171194342D01*
X146301786Y-171194342D02*
X146349405Y-171289580D01*
X146349405Y-171289580D02*
X146397024Y-171337200D01*
X146397024Y-171337200D02*
X146492262Y-171384819D01*
X146492262Y-171384819D02*
X146682738Y-171384819D01*
X146682738Y-171384819D02*
X146777976Y-171337200D01*
X146777976Y-171337200D02*
X146825595Y-171289580D01*
X146825595Y-171289580D02*
X146873214Y-171194342D01*
X146873214Y-171194342D02*
X146873214Y-170956247D01*
X146873214Y-170956247D02*
X146825595Y-170861009D01*
X146825595Y-170861009D02*
X146777976Y-170813390D01*
X146777976Y-170813390D02*
X146682738Y-170765771D01*
X146682738Y-170765771D02*
X146492262Y-170765771D01*
X146492262Y-170765771D02*
X146397024Y-170813390D01*
X146397024Y-170813390D02*
X146349405Y-170861009D01*
X146349405Y-170861009D02*
X146301786Y-170956247D01*
X145397023Y-168524819D02*
X144825595Y-168524819D01*
X145111309Y-168524819D02*
X145111309Y-167524819D01*
X145111309Y-167524819D02*
X145016071Y-167667676D01*
X145016071Y-167667676D02*
X144920833Y-167762914D01*
X144920833Y-167762914D02*
X144825595Y-167810533D01*
X146016071Y-167524819D02*
X146111309Y-167524819D01*
X146111309Y-167524819D02*
X146206547Y-167572438D01*
X146206547Y-167572438D02*
X146254166Y-167620057D01*
X146254166Y-167620057D02*
X146301785Y-167715295D01*
X146301785Y-167715295D02*
X146349404Y-167905771D01*
X146349404Y-167905771D02*
X146349404Y-168143866D01*
X146349404Y-168143866D02*
X146301785Y-168334342D01*
X146301785Y-168334342D02*
X146254166Y-168429580D01*
X146254166Y-168429580D02*
X146206547Y-168477200D01*
X146206547Y-168477200D02*
X146111309Y-168524819D01*
X146111309Y-168524819D02*
X146016071Y-168524819D01*
X146016071Y-168524819D02*
X145920833Y-168477200D01*
X145920833Y-168477200D02*
X145873214Y-168429580D01*
X145873214Y-168429580D02*
X145825595Y-168334342D01*
X145825595Y-168334342D02*
X145777976Y-168143866D01*
X145777976Y-168143866D02*
X145777976Y-167905771D01*
X145777976Y-167905771D02*
X145825595Y-167715295D01*
X145825595Y-167715295D02*
X145873214Y-167620057D01*
X145873214Y-167620057D02*
X145920833Y-167572438D01*
X145920833Y-167572438D02*
X146016071Y-167524819D01*
X146777976Y-168524819D02*
X146777976Y-167524819D01*
X147349404Y-168524819D02*
X146920833Y-167953390D01*
X147349404Y-167524819D02*
X146777976Y-168096247D01*
X158357142Y-82384819D02*
X158023809Y-81908628D01*
X157785714Y-82384819D02*
X157785714Y-81384819D01*
X157785714Y-81384819D02*
X158166666Y-81384819D01*
X158166666Y-81384819D02*
X158261904Y-81432438D01*
X158261904Y-81432438D02*
X158309523Y-81480057D01*
X158309523Y-81480057D02*
X158357142Y-81575295D01*
X158357142Y-81575295D02*
X158357142Y-81718152D01*
X158357142Y-81718152D02*
X158309523Y-81813390D01*
X158309523Y-81813390D02*
X158261904Y-81861009D01*
X158261904Y-81861009D02*
X158166666Y-81908628D01*
X158166666Y-81908628D02*
X157785714Y-81908628D01*
X159309523Y-82384819D02*
X158738095Y-82384819D01*
X159023809Y-82384819D02*
X159023809Y-81384819D01*
X159023809Y-81384819D02*
X158928571Y-81527676D01*
X158928571Y-81527676D02*
X158833333Y-81622914D01*
X158833333Y-81622914D02*
X158738095Y-81670533D01*
X160166666Y-81718152D02*
X160166666Y-82384819D01*
X159928571Y-81337200D02*
X159690476Y-82051485D01*
X159690476Y-82051485D02*
X160309523Y-82051485D01*
X158333333Y-79524819D02*
X157761905Y-79524819D01*
X158047619Y-79524819D02*
X158047619Y-78524819D01*
X158047619Y-78524819D02*
X157952381Y-78667676D01*
X157952381Y-78667676D02*
X157857143Y-78762914D01*
X157857143Y-78762914D02*
X157761905Y-78810533D01*
X158952381Y-78524819D02*
X159047619Y-78524819D01*
X159047619Y-78524819D02*
X159142857Y-78572438D01*
X159142857Y-78572438D02*
X159190476Y-78620057D01*
X159190476Y-78620057D02*
X159238095Y-78715295D01*
X159238095Y-78715295D02*
X159285714Y-78905771D01*
X159285714Y-78905771D02*
X159285714Y-79143866D01*
X159285714Y-79143866D02*
X159238095Y-79334342D01*
X159238095Y-79334342D02*
X159190476Y-79429580D01*
X159190476Y-79429580D02*
X159142857Y-79477200D01*
X159142857Y-79477200D02*
X159047619Y-79524819D01*
X159047619Y-79524819D02*
X158952381Y-79524819D01*
X158952381Y-79524819D02*
X158857143Y-79477200D01*
X158857143Y-79477200D02*
X158809524Y-79429580D01*
X158809524Y-79429580D02*
X158761905Y-79334342D01*
X158761905Y-79334342D02*
X158714286Y-79143866D01*
X158714286Y-79143866D02*
X158714286Y-78905771D01*
X158714286Y-78905771D02*
X158761905Y-78715295D01*
X158761905Y-78715295D02*
X158809524Y-78620057D01*
X158809524Y-78620057D02*
X158857143Y-78572438D01*
X158857143Y-78572438D02*
X158952381Y-78524819D01*
X159904762Y-78524819D02*
X160000000Y-78524819D01*
X160000000Y-78524819D02*
X160095238Y-78572438D01*
X160095238Y-78572438D02*
X160142857Y-78620057D01*
X160142857Y-78620057D02*
X160190476Y-78715295D01*
X160190476Y-78715295D02*
X160238095Y-78905771D01*
X160238095Y-78905771D02*
X160238095Y-79143866D01*
X160238095Y-79143866D02*
X160190476Y-79334342D01*
X160190476Y-79334342D02*
X160142857Y-79429580D01*
X160142857Y-79429580D02*
X160095238Y-79477200D01*
X160095238Y-79477200D02*
X160000000Y-79524819D01*
X160000000Y-79524819D02*
X159904762Y-79524819D01*
X159904762Y-79524819D02*
X159809524Y-79477200D01*
X159809524Y-79477200D02*
X159761905Y-79429580D01*
X159761905Y-79429580D02*
X159714286Y-79334342D01*
X159714286Y-79334342D02*
X159666667Y-79143866D01*
X159666667Y-79143866D02*
X159666667Y-78905771D01*
X159666667Y-78905771D02*
X159714286Y-78715295D01*
X159714286Y-78715295D02*
X159761905Y-78620057D01*
X159761905Y-78620057D02*
X159809524Y-78572438D01*
X159809524Y-78572438D02*
X159904762Y-78524819D01*
X130333333Y-158379580D02*
X130285714Y-158427200D01*
X130285714Y-158427200D02*
X130142857Y-158474819D01*
X130142857Y-158474819D02*
X130047619Y-158474819D01*
X130047619Y-158474819D02*
X129904762Y-158427200D01*
X129904762Y-158427200D02*
X129809524Y-158331961D01*
X129809524Y-158331961D02*
X129761905Y-158236723D01*
X129761905Y-158236723D02*
X129714286Y-158046247D01*
X129714286Y-158046247D02*
X129714286Y-157903390D01*
X129714286Y-157903390D02*
X129761905Y-157712914D01*
X129761905Y-157712914D02*
X129809524Y-157617676D01*
X129809524Y-157617676D02*
X129904762Y-157522438D01*
X129904762Y-157522438D02*
X130047619Y-157474819D01*
X130047619Y-157474819D02*
X130142857Y-157474819D01*
X130142857Y-157474819D02*
X130285714Y-157522438D01*
X130285714Y-157522438D02*
X130333333Y-157570057D01*
X131190476Y-157808152D02*
X131190476Y-158474819D01*
X130952381Y-157427200D02*
X130714286Y-158141485D01*
X130714286Y-158141485D02*
X131333333Y-158141485D01*
X128380952Y-154434819D02*
X128476190Y-154434819D01*
X128476190Y-154434819D02*
X128571428Y-154482438D01*
X128571428Y-154482438D02*
X128619047Y-154530057D01*
X128619047Y-154530057D02*
X128666666Y-154625295D01*
X128666666Y-154625295D02*
X128714285Y-154815771D01*
X128714285Y-154815771D02*
X128714285Y-155053866D01*
X128714285Y-155053866D02*
X128666666Y-155244342D01*
X128666666Y-155244342D02*
X128619047Y-155339580D01*
X128619047Y-155339580D02*
X128571428Y-155387200D01*
X128571428Y-155387200D02*
X128476190Y-155434819D01*
X128476190Y-155434819D02*
X128380952Y-155434819D01*
X128380952Y-155434819D02*
X128285714Y-155387200D01*
X128285714Y-155387200D02*
X128238095Y-155339580D01*
X128238095Y-155339580D02*
X128190476Y-155244342D01*
X128190476Y-155244342D02*
X128142857Y-155053866D01*
X128142857Y-155053866D02*
X128142857Y-154815771D01*
X128142857Y-154815771D02*
X128190476Y-154625295D01*
X128190476Y-154625295D02*
X128238095Y-154530057D01*
X128238095Y-154530057D02*
X128285714Y-154482438D01*
X128285714Y-154482438D02*
X128380952Y-154434819D01*
X129142857Y-155339580D02*
X129190476Y-155387200D01*
X129190476Y-155387200D02*
X129142857Y-155434819D01*
X129142857Y-155434819D02*
X129095238Y-155387200D01*
X129095238Y-155387200D02*
X129142857Y-155339580D01*
X129142857Y-155339580D02*
X129142857Y-155434819D01*
X129809523Y-154434819D02*
X129904761Y-154434819D01*
X129904761Y-154434819D02*
X129999999Y-154482438D01*
X129999999Y-154482438D02*
X130047618Y-154530057D01*
X130047618Y-154530057D02*
X130095237Y-154625295D01*
X130095237Y-154625295D02*
X130142856Y-154815771D01*
X130142856Y-154815771D02*
X130142856Y-155053866D01*
X130142856Y-155053866D02*
X130095237Y-155244342D01*
X130095237Y-155244342D02*
X130047618Y-155339580D01*
X130047618Y-155339580D02*
X129999999Y-155387200D01*
X129999999Y-155387200D02*
X129904761Y-155434819D01*
X129904761Y-155434819D02*
X129809523Y-155434819D01*
X129809523Y-155434819D02*
X129714285Y-155387200D01*
X129714285Y-155387200D02*
X129666666Y-155339580D01*
X129666666Y-155339580D02*
X129619047Y-155244342D01*
X129619047Y-155244342D02*
X129571428Y-155053866D01*
X129571428Y-155053866D02*
X129571428Y-154815771D01*
X129571428Y-154815771D02*
X129619047Y-154625295D01*
X129619047Y-154625295D02*
X129666666Y-154530057D01*
X129666666Y-154530057D02*
X129714285Y-154482438D01*
X129714285Y-154482438D02*
X129809523Y-154434819D01*
X131095237Y-155434819D02*
X130523809Y-155434819D01*
X130809523Y-155434819D02*
X130809523Y-154434819D01*
X130809523Y-154434819D02*
X130714285Y-154577676D01*
X130714285Y-154577676D02*
X130619047Y-154672914D01*
X130619047Y-154672914D02*
X130523809Y-154720533D01*
X131952380Y-154768152D02*
X131952380Y-155434819D01*
X131523809Y-154768152D02*
X131523809Y-155291961D01*
X131523809Y-155291961D02*
X131571428Y-155387200D01*
X131571428Y-155387200D02*
X131666666Y-155434819D01*
X131666666Y-155434819D02*
X131809523Y-155434819D01*
X131809523Y-155434819D02*
X131904761Y-155387200D01*
X131904761Y-155387200D02*
X131952380Y-155339580D01*
X132761904Y-154911009D02*
X132428571Y-154911009D01*
X132428571Y-155434819D02*
X132428571Y-154434819D01*
X132428571Y-154434819D02*
X132904761Y-154434819D01*
X145333333Y-111524819D02*
X145000000Y-111048628D01*
X144761905Y-111524819D02*
X144761905Y-110524819D01*
X144761905Y-110524819D02*
X145142857Y-110524819D01*
X145142857Y-110524819D02*
X145238095Y-110572438D01*
X145238095Y-110572438D02*
X145285714Y-110620057D01*
X145285714Y-110620057D02*
X145333333Y-110715295D01*
X145333333Y-110715295D02*
X145333333Y-110858152D01*
X145333333Y-110858152D02*
X145285714Y-110953390D01*
X145285714Y-110953390D02*
X145238095Y-111001009D01*
X145238095Y-111001009D02*
X145142857Y-111048628D01*
X145142857Y-111048628D02*
X144761905Y-111048628D01*
X145666667Y-110524819D02*
X146285714Y-110524819D01*
X146285714Y-110524819D02*
X145952381Y-110905771D01*
X145952381Y-110905771D02*
X146095238Y-110905771D01*
X146095238Y-110905771D02*
X146190476Y-110953390D01*
X146190476Y-110953390D02*
X146238095Y-111001009D01*
X146238095Y-111001009D02*
X146285714Y-111096247D01*
X146285714Y-111096247D02*
X146285714Y-111334342D01*
X146285714Y-111334342D02*
X146238095Y-111429580D01*
X146238095Y-111429580D02*
X146190476Y-111477200D01*
X146190476Y-111477200D02*
X146095238Y-111524819D01*
X146095238Y-111524819D02*
X145809524Y-111524819D01*
X145809524Y-111524819D02*
X145714286Y-111477200D01*
X145714286Y-111477200D02*
X145666667Y-111429580D01*
X144809523Y-114384819D02*
X144238095Y-114384819D01*
X144523809Y-114384819D02*
X144523809Y-113384819D01*
X144523809Y-113384819D02*
X144428571Y-113527676D01*
X144428571Y-113527676D02*
X144333333Y-113622914D01*
X144333333Y-113622914D02*
X144238095Y-113670533D01*
X145428571Y-113384819D02*
X145523809Y-113384819D01*
X145523809Y-113384819D02*
X145619047Y-113432438D01*
X145619047Y-113432438D02*
X145666666Y-113480057D01*
X145666666Y-113480057D02*
X145714285Y-113575295D01*
X145714285Y-113575295D02*
X145761904Y-113765771D01*
X145761904Y-113765771D02*
X145761904Y-114003866D01*
X145761904Y-114003866D02*
X145714285Y-114194342D01*
X145714285Y-114194342D02*
X145666666Y-114289580D01*
X145666666Y-114289580D02*
X145619047Y-114337200D01*
X145619047Y-114337200D02*
X145523809Y-114384819D01*
X145523809Y-114384819D02*
X145428571Y-114384819D01*
X145428571Y-114384819D02*
X145333333Y-114337200D01*
X145333333Y-114337200D02*
X145285714Y-114289580D01*
X145285714Y-114289580D02*
X145238095Y-114194342D01*
X145238095Y-114194342D02*
X145190476Y-114003866D01*
X145190476Y-114003866D02*
X145190476Y-113765771D01*
X145190476Y-113765771D02*
X145238095Y-113575295D01*
X145238095Y-113575295D02*
X145285714Y-113480057D01*
X145285714Y-113480057D02*
X145333333Y-113432438D01*
X145333333Y-113432438D02*
X145428571Y-113384819D01*
X146190476Y-114384819D02*
X146190476Y-113384819D01*
X146761904Y-114384819D02*
X146333333Y-113813390D01*
X146761904Y-113384819D02*
X146190476Y-113956247D01*
X150920833Y-114384819D02*
X150587500Y-113908628D01*
X150349405Y-114384819D02*
X150349405Y-113384819D01*
X150349405Y-113384819D02*
X150730357Y-113384819D01*
X150730357Y-113384819D02*
X150825595Y-113432438D01*
X150825595Y-113432438D02*
X150873214Y-113480057D01*
X150873214Y-113480057D02*
X150920833Y-113575295D01*
X150920833Y-113575295D02*
X150920833Y-113718152D01*
X150920833Y-113718152D02*
X150873214Y-113813390D01*
X150873214Y-113813390D02*
X150825595Y-113861009D01*
X150825595Y-113861009D02*
X150730357Y-113908628D01*
X150730357Y-113908628D02*
X150349405Y-113908628D01*
X151301786Y-113480057D02*
X151349405Y-113432438D01*
X151349405Y-113432438D02*
X151444643Y-113384819D01*
X151444643Y-113384819D02*
X151682738Y-113384819D01*
X151682738Y-113384819D02*
X151777976Y-113432438D01*
X151777976Y-113432438D02*
X151825595Y-113480057D01*
X151825595Y-113480057D02*
X151873214Y-113575295D01*
X151873214Y-113575295D02*
X151873214Y-113670533D01*
X151873214Y-113670533D02*
X151825595Y-113813390D01*
X151825595Y-113813390D02*
X151254167Y-114384819D01*
X151254167Y-114384819D02*
X151873214Y-114384819D01*
X150397023Y-111524819D02*
X149825595Y-111524819D01*
X150111309Y-111524819D02*
X150111309Y-110524819D01*
X150111309Y-110524819D02*
X150016071Y-110667676D01*
X150016071Y-110667676D02*
X149920833Y-110762914D01*
X149920833Y-110762914D02*
X149825595Y-110810533D01*
X151016071Y-110524819D02*
X151111309Y-110524819D01*
X151111309Y-110524819D02*
X151206547Y-110572438D01*
X151206547Y-110572438D02*
X151254166Y-110620057D01*
X151254166Y-110620057D02*
X151301785Y-110715295D01*
X151301785Y-110715295D02*
X151349404Y-110905771D01*
X151349404Y-110905771D02*
X151349404Y-111143866D01*
X151349404Y-111143866D02*
X151301785Y-111334342D01*
X151301785Y-111334342D02*
X151254166Y-111429580D01*
X151254166Y-111429580D02*
X151206547Y-111477200D01*
X151206547Y-111477200D02*
X151111309Y-111524819D01*
X151111309Y-111524819D02*
X151016071Y-111524819D01*
X151016071Y-111524819D02*
X150920833Y-111477200D01*
X150920833Y-111477200D02*
X150873214Y-111429580D01*
X150873214Y-111429580D02*
X150825595Y-111334342D01*
X150825595Y-111334342D02*
X150777976Y-111143866D01*
X150777976Y-111143866D02*
X150777976Y-110905771D01*
X150777976Y-110905771D02*
X150825595Y-110715295D01*
X150825595Y-110715295D02*
X150873214Y-110620057D01*
X150873214Y-110620057D02*
X150920833Y-110572438D01*
X150920833Y-110572438D02*
X151016071Y-110524819D01*
X151777976Y-111524819D02*
X151777976Y-110524819D01*
X152349404Y-111524819D02*
X151920833Y-110953390D01*
X152349404Y-110524819D02*
X151777976Y-111096247D01*
X153920833Y-171384819D02*
X153587500Y-170908628D01*
X153349405Y-171384819D02*
X153349405Y-170384819D01*
X153349405Y-170384819D02*
X153730357Y-170384819D01*
X153730357Y-170384819D02*
X153825595Y-170432438D01*
X153825595Y-170432438D02*
X153873214Y-170480057D01*
X153873214Y-170480057D02*
X153920833Y-170575295D01*
X153920833Y-170575295D02*
X153920833Y-170718152D01*
X153920833Y-170718152D02*
X153873214Y-170813390D01*
X153873214Y-170813390D02*
X153825595Y-170861009D01*
X153825595Y-170861009D02*
X153730357Y-170908628D01*
X153730357Y-170908628D02*
X153349405Y-170908628D01*
X154492262Y-170813390D02*
X154397024Y-170765771D01*
X154397024Y-170765771D02*
X154349405Y-170718152D01*
X154349405Y-170718152D02*
X154301786Y-170622914D01*
X154301786Y-170622914D02*
X154301786Y-170575295D01*
X154301786Y-170575295D02*
X154349405Y-170480057D01*
X154349405Y-170480057D02*
X154397024Y-170432438D01*
X154397024Y-170432438D02*
X154492262Y-170384819D01*
X154492262Y-170384819D02*
X154682738Y-170384819D01*
X154682738Y-170384819D02*
X154777976Y-170432438D01*
X154777976Y-170432438D02*
X154825595Y-170480057D01*
X154825595Y-170480057D02*
X154873214Y-170575295D01*
X154873214Y-170575295D02*
X154873214Y-170622914D01*
X154873214Y-170622914D02*
X154825595Y-170718152D01*
X154825595Y-170718152D02*
X154777976Y-170765771D01*
X154777976Y-170765771D02*
X154682738Y-170813390D01*
X154682738Y-170813390D02*
X154492262Y-170813390D01*
X154492262Y-170813390D02*
X154397024Y-170861009D01*
X154397024Y-170861009D02*
X154349405Y-170908628D01*
X154349405Y-170908628D02*
X154301786Y-171003866D01*
X154301786Y-171003866D02*
X154301786Y-171194342D01*
X154301786Y-171194342D02*
X154349405Y-171289580D01*
X154349405Y-171289580D02*
X154397024Y-171337200D01*
X154397024Y-171337200D02*
X154492262Y-171384819D01*
X154492262Y-171384819D02*
X154682738Y-171384819D01*
X154682738Y-171384819D02*
X154777976Y-171337200D01*
X154777976Y-171337200D02*
X154825595Y-171289580D01*
X154825595Y-171289580D02*
X154873214Y-171194342D01*
X154873214Y-171194342D02*
X154873214Y-171003866D01*
X154873214Y-171003866D02*
X154825595Y-170908628D01*
X154825595Y-170908628D02*
X154777976Y-170861009D01*
X154777976Y-170861009D02*
X154682738Y-170813390D01*
X153397023Y-168524819D02*
X152825595Y-168524819D01*
X153111309Y-168524819D02*
X153111309Y-167524819D01*
X153111309Y-167524819D02*
X153016071Y-167667676D01*
X153016071Y-167667676D02*
X152920833Y-167762914D01*
X152920833Y-167762914D02*
X152825595Y-167810533D01*
X154016071Y-167524819D02*
X154111309Y-167524819D01*
X154111309Y-167524819D02*
X154206547Y-167572438D01*
X154206547Y-167572438D02*
X154254166Y-167620057D01*
X154254166Y-167620057D02*
X154301785Y-167715295D01*
X154301785Y-167715295D02*
X154349404Y-167905771D01*
X154349404Y-167905771D02*
X154349404Y-168143866D01*
X154349404Y-168143866D02*
X154301785Y-168334342D01*
X154301785Y-168334342D02*
X154254166Y-168429580D01*
X154254166Y-168429580D02*
X154206547Y-168477200D01*
X154206547Y-168477200D02*
X154111309Y-168524819D01*
X154111309Y-168524819D02*
X154016071Y-168524819D01*
X154016071Y-168524819D02*
X153920833Y-168477200D01*
X153920833Y-168477200D02*
X153873214Y-168429580D01*
X153873214Y-168429580D02*
X153825595Y-168334342D01*
X153825595Y-168334342D02*
X153777976Y-168143866D01*
X153777976Y-168143866D02*
X153777976Y-167905771D01*
X153777976Y-167905771D02*
X153825595Y-167715295D01*
X153825595Y-167715295D02*
X153873214Y-167620057D01*
X153873214Y-167620057D02*
X153920833Y-167572438D01*
X153920833Y-167572438D02*
X154016071Y-167524819D01*
X154777976Y-168524819D02*
X154777976Y-167524819D01*
X155349404Y-168524819D02*
X154920833Y-167953390D01*
X155349404Y-167524819D02*
X154777976Y-168096247D01*
X161857142Y-89524819D02*
X161523809Y-89048628D01*
X161285714Y-89524819D02*
X161285714Y-88524819D01*
X161285714Y-88524819D02*
X161666666Y-88524819D01*
X161666666Y-88524819D02*
X161761904Y-88572438D01*
X161761904Y-88572438D02*
X161809523Y-88620057D01*
X161809523Y-88620057D02*
X161857142Y-88715295D01*
X161857142Y-88715295D02*
X161857142Y-88858152D01*
X161857142Y-88858152D02*
X161809523Y-88953390D01*
X161809523Y-88953390D02*
X161761904Y-89001009D01*
X161761904Y-89001009D02*
X161666666Y-89048628D01*
X161666666Y-89048628D02*
X161285714Y-89048628D01*
X162809523Y-89524819D02*
X162238095Y-89524819D01*
X162523809Y-89524819D02*
X162523809Y-88524819D01*
X162523809Y-88524819D02*
X162428571Y-88667676D01*
X162428571Y-88667676D02*
X162333333Y-88762914D01*
X162333333Y-88762914D02*
X162238095Y-88810533D01*
X163190476Y-88620057D02*
X163238095Y-88572438D01*
X163238095Y-88572438D02*
X163333333Y-88524819D01*
X163333333Y-88524819D02*
X163571428Y-88524819D01*
X163571428Y-88524819D02*
X163666666Y-88572438D01*
X163666666Y-88572438D02*
X163714285Y-88620057D01*
X163714285Y-88620057D02*
X163761904Y-88715295D01*
X163761904Y-88715295D02*
X163761904Y-88810533D01*
X163761904Y-88810533D02*
X163714285Y-88953390D01*
X163714285Y-88953390D02*
X163142857Y-89524819D01*
X163142857Y-89524819D02*
X163761904Y-89524819D01*
X161833333Y-92384819D02*
X161261905Y-92384819D01*
X161547619Y-92384819D02*
X161547619Y-91384819D01*
X161547619Y-91384819D02*
X161452381Y-91527676D01*
X161452381Y-91527676D02*
X161357143Y-91622914D01*
X161357143Y-91622914D02*
X161261905Y-91670533D01*
X162452381Y-91384819D02*
X162547619Y-91384819D01*
X162547619Y-91384819D02*
X162642857Y-91432438D01*
X162642857Y-91432438D02*
X162690476Y-91480057D01*
X162690476Y-91480057D02*
X162738095Y-91575295D01*
X162738095Y-91575295D02*
X162785714Y-91765771D01*
X162785714Y-91765771D02*
X162785714Y-92003866D01*
X162785714Y-92003866D02*
X162738095Y-92194342D01*
X162738095Y-92194342D02*
X162690476Y-92289580D01*
X162690476Y-92289580D02*
X162642857Y-92337200D01*
X162642857Y-92337200D02*
X162547619Y-92384819D01*
X162547619Y-92384819D02*
X162452381Y-92384819D01*
X162452381Y-92384819D02*
X162357143Y-92337200D01*
X162357143Y-92337200D02*
X162309524Y-92289580D01*
X162309524Y-92289580D02*
X162261905Y-92194342D01*
X162261905Y-92194342D02*
X162214286Y-92003866D01*
X162214286Y-92003866D02*
X162214286Y-91765771D01*
X162214286Y-91765771D02*
X162261905Y-91575295D01*
X162261905Y-91575295D02*
X162309524Y-91480057D01*
X162309524Y-91480057D02*
X162357143Y-91432438D01*
X162357143Y-91432438D02*
X162452381Y-91384819D01*
X163404762Y-91384819D02*
X163500000Y-91384819D01*
X163500000Y-91384819D02*
X163595238Y-91432438D01*
X163595238Y-91432438D02*
X163642857Y-91480057D01*
X163642857Y-91480057D02*
X163690476Y-91575295D01*
X163690476Y-91575295D02*
X163738095Y-91765771D01*
X163738095Y-91765771D02*
X163738095Y-92003866D01*
X163738095Y-92003866D02*
X163690476Y-92194342D01*
X163690476Y-92194342D02*
X163642857Y-92289580D01*
X163642857Y-92289580D02*
X163595238Y-92337200D01*
X163595238Y-92337200D02*
X163500000Y-92384819D01*
X163500000Y-92384819D02*
X163404762Y-92384819D01*
X163404762Y-92384819D02*
X163309524Y-92337200D01*
X163309524Y-92337200D02*
X163261905Y-92289580D01*
X163261905Y-92289580D02*
X163214286Y-92194342D01*
X163214286Y-92194342D02*
X163166667Y-92003866D01*
X163166667Y-92003866D02*
X163166667Y-91765771D01*
X163166667Y-91765771D02*
X163214286Y-91575295D01*
X163214286Y-91575295D02*
X163261905Y-91480057D01*
X163261905Y-91480057D02*
X163309524Y-91432438D01*
X163309524Y-91432438D02*
X163404762Y-91384819D01*
X170357142Y-86384819D02*
X170023809Y-85908628D01*
X169785714Y-86384819D02*
X169785714Y-85384819D01*
X169785714Y-85384819D02*
X170166666Y-85384819D01*
X170166666Y-85384819D02*
X170261904Y-85432438D01*
X170261904Y-85432438D02*
X170309523Y-85480057D01*
X170309523Y-85480057D02*
X170357142Y-85575295D01*
X170357142Y-85575295D02*
X170357142Y-85718152D01*
X170357142Y-85718152D02*
X170309523Y-85813390D01*
X170309523Y-85813390D02*
X170261904Y-85861009D01*
X170261904Y-85861009D02*
X170166666Y-85908628D01*
X170166666Y-85908628D02*
X169785714Y-85908628D01*
X171309523Y-86384819D02*
X170738095Y-86384819D01*
X171023809Y-86384819D02*
X171023809Y-85384819D01*
X171023809Y-85384819D02*
X170928571Y-85527676D01*
X170928571Y-85527676D02*
X170833333Y-85622914D01*
X170833333Y-85622914D02*
X170738095Y-85670533D01*
X171642857Y-85384819D02*
X172261904Y-85384819D01*
X172261904Y-85384819D02*
X171928571Y-85765771D01*
X171928571Y-85765771D02*
X172071428Y-85765771D01*
X172071428Y-85765771D02*
X172166666Y-85813390D01*
X172166666Y-85813390D02*
X172214285Y-85861009D01*
X172214285Y-85861009D02*
X172261904Y-85956247D01*
X172261904Y-85956247D02*
X172261904Y-86194342D01*
X172261904Y-86194342D02*
X172214285Y-86289580D01*
X172214285Y-86289580D02*
X172166666Y-86337200D01*
X172166666Y-86337200D02*
X172071428Y-86384819D01*
X172071428Y-86384819D02*
X171785714Y-86384819D01*
X171785714Y-86384819D02*
X171690476Y-86337200D01*
X171690476Y-86337200D02*
X171642857Y-86289580D01*
X170714285Y-82524819D02*
X170523809Y-82524819D01*
X170523809Y-82524819D02*
X170428571Y-82572438D01*
X170428571Y-82572438D02*
X170380952Y-82620057D01*
X170380952Y-82620057D02*
X170285714Y-82762914D01*
X170285714Y-82762914D02*
X170238095Y-82953390D01*
X170238095Y-82953390D02*
X170238095Y-83334342D01*
X170238095Y-83334342D02*
X170285714Y-83429580D01*
X170285714Y-83429580D02*
X170333333Y-83477200D01*
X170333333Y-83477200D02*
X170428571Y-83524819D01*
X170428571Y-83524819D02*
X170619047Y-83524819D01*
X170619047Y-83524819D02*
X170714285Y-83477200D01*
X170714285Y-83477200D02*
X170761904Y-83429580D01*
X170761904Y-83429580D02*
X170809523Y-83334342D01*
X170809523Y-83334342D02*
X170809523Y-83096247D01*
X170809523Y-83096247D02*
X170761904Y-83001009D01*
X170761904Y-83001009D02*
X170714285Y-82953390D01*
X170714285Y-82953390D02*
X170619047Y-82905771D01*
X170619047Y-82905771D02*
X170428571Y-82905771D01*
X170428571Y-82905771D02*
X170333333Y-82953390D01*
X170333333Y-82953390D02*
X170285714Y-83001009D01*
X170285714Y-83001009D02*
X170238095Y-83096247D01*
X171380952Y-82953390D02*
X171285714Y-82905771D01*
X171285714Y-82905771D02*
X171238095Y-82858152D01*
X171238095Y-82858152D02*
X171190476Y-82762914D01*
X171190476Y-82762914D02*
X171190476Y-82715295D01*
X171190476Y-82715295D02*
X171238095Y-82620057D01*
X171238095Y-82620057D02*
X171285714Y-82572438D01*
X171285714Y-82572438D02*
X171380952Y-82524819D01*
X171380952Y-82524819D02*
X171571428Y-82524819D01*
X171571428Y-82524819D02*
X171666666Y-82572438D01*
X171666666Y-82572438D02*
X171714285Y-82620057D01*
X171714285Y-82620057D02*
X171761904Y-82715295D01*
X171761904Y-82715295D02*
X171761904Y-82762914D01*
X171761904Y-82762914D02*
X171714285Y-82858152D01*
X171714285Y-82858152D02*
X171666666Y-82905771D01*
X171666666Y-82905771D02*
X171571428Y-82953390D01*
X171571428Y-82953390D02*
X171380952Y-82953390D01*
X171380952Y-82953390D02*
X171285714Y-83001009D01*
X171285714Y-83001009D02*
X171238095Y-83048628D01*
X171238095Y-83048628D02*
X171190476Y-83143866D01*
X171190476Y-83143866D02*
X171190476Y-83334342D01*
X171190476Y-83334342D02*
X171238095Y-83429580D01*
X171238095Y-83429580D02*
X171285714Y-83477200D01*
X171285714Y-83477200D02*
X171380952Y-83524819D01*
X171380952Y-83524819D02*
X171571428Y-83524819D01*
X171571428Y-83524819D02*
X171666666Y-83477200D01*
X171666666Y-83477200D02*
X171714285Y-83429580D01*
X171714285Y-83429580D02*
X171761904Y-83334342D01*
X171761904Y-83334342D02*
X171761904Y-83143866D01*
X171761904Y-83143866D02*
X171714285Y-83048628D01*
X171714285Y-83048628D02*
X171666666Y-83001009D01*
X171666666Y-83001009D02*
X171571428Y-82953390D01*
D13*
X149032380Y-95374318D02*
X149032380Y-94104318D01*
X149032380Y-94709080D02*
X149758095Y-94709080D01*
X149758095Y-95374318D02*
X149758095Y-94104318D01*
X151028095Y-95374318D02*
X150302380Y-95374318D01*
X150665237Y-95374318D02*
X150665237Y-94104318D01*
X150665237Y-94104318D02*
X150544285Y-94285746D01*
X150544285Y-94285746D02*
X150423333Y-94406699D01*
X150423333Y-94406699D02*
X150302380Y-94467175D01*
X145766666Y-191513842D02*
X145948095Y-191574318D01*
X145948095Y-191574318D02*
X146250476Y-191574318D01*
X146250476Y-191574318D02*
X146371428Y-191513842D01*
X146371428Y-191513842D02*
X146431904Y-191453365D01*
X146431904Y-191453365D02*
X146492381Y-191332413D01*
X146492381Y-191332413D02*
X146492381Y-191211461D01*
X146492381Y-191211461D02*
X146431904Y-191090508D01*
X146431904Y-191090508D02*
X146371428Y-191030032D01*
X146371428Y-191030032D02*
X146250476Y-190969556D01*
X146250476Y-190969556D02*
X146008571Y-190909080D01*
X146008571Y-190909080D02*
X145887619Y-190848603D01*
X145887619Y-190848603D02*
X145827142Y-190788127D01*
X145827142Y-190788127D02*
X145766666Y-190667175D01*
X145766666Y-190667175D02*
X145766666Y-190546222D01*
X145766666Y-190546222D02*
X145827142Y-190425270D01*
X145827142Y-190425270D02*
X145887619Y-190364794D01*
X145887619Y-190364794D02*
X146008571Y-190304318D01*
X146008571Y-190304318D02*
X146310952Y-190304318D01*
X146310952Y-190304318D02*
X146492381Y-190364794D01*
X146915714Y-190304318D02*
X147218095Y-191574318D01*
X147218095Y-191574318D02*
X147460000Y-190667175D01*
X147460000Y-190667175D02*
X147701905Y-191574318D01*
X147701905Y-191574318D02*
X148004286Y-190304318D01*
X149153334Y-191574318D02*
X148427619Y-191574318D01*
X148790476Y-191574318D02*
X148790476Y-190304318D01*
X148790476Y-190304318D02*
X148669524Y-190485746D01*
X148669524Y-190485746D02*
X148548572Y-190606699D01*
X148548572Y-190606699D02*
X148427619Y-190667175D01*
X163578809Y-79574318D02*
X162974047Y-79574318D01*
X162974047Y-79574318D02*
X162974047Y-78304318D01*
X164002142Y-78909080D02*
X164425476Y-78909080D01*
X164606904Y-79574318D02*
X164002142Y-79574318D01*
X164002142Y-79574318D02*
X164002142Y-78304318D01*
X164002142Y-78304318D02*
X164606904Y-78304318D01*
X165151190Y-79574318D02*
X165151190Y-78304318D01*
X165151190Y-78304318D02*
X165453571Y-78304318D01*
X165453571Y-78304318D02*
X165635000Y-78364794D01*
X165635000Y-78364794D02*
X165755952Y-78485746D01*
X165755952Y-78485746D02*
X165816429Y-78606699D01*
X165816429Y-78606699D02*
X165876905Y-78848603D01*
X165876905Y-78848603D02*
X165876905Y-79030032D01*
X165876905Y-79030032D02*
X165816429Y-79271937D01*
X165816429Y-79271937D02*
X165755952Y-79392889D01*
X165755952Y-79392889D02*
X165635000Y-79513842D01*
X165635000Y-79513842D02*
X165453571Y-79574318D01*
X165453571Y-79574318D02*
X165151190Y-79574318D01*
X167086429Y-79574318D02*
X166360714Y-79574318D01*
X166723571Y-79574318D02*
X166723571Y-78304318D01*
X166723571Y-78304318D02*
X166602619Y-78485746D01*
X166602619Y-78485746D02*
X166481667Y-78606699D01*
X166481667Y-78606699D02*
X166360714Y-78667175D01*
D14*
%TO.C,C2*%
X139200000Y-123825000D02*
X141520000Y-123825000D01*
X141520000Y-122175000D02*
X139200000Y-122175000D01*
X141520000Y-123825000D02*
X141520000Y-122175000D01*
%TO.C,R4*%
X145754724Y-122477500D02*
X145245276Y-122477500D01*
X145754724Y-123522500D02*
X145245276Y-123522500D01*
%TO.C,R1*%
X151254724Y-122477500D02*
X150745276Y-122477500D01*
X151254724Y-123522500D02*
X150745276Y-123522500D01*
%TO.C,R7*%
X154342224Y-164477500D02*
X153832776Y-164477500D01*
X154342224Y-165522500D02*
X153832776Y-165522500D01*
%TO.C,C3*%
X132020000Y-150675000D02*
X129700000Y-150675000D01*
X132020000Y-152325000D02*
X132020000Y-150675000D01*
X129700000Y-152325000D02*
X132020000Y-152325000D01*
%TO.C,C1*%
X132020000Y-145175000D02*
X129700000Y-145175000D01*
X132020000Y-146825000D02*
X132020000Y-145175000D01*
X129700000Y-146825000D02*
X132020000Y-146825000D01*
D15*
%TO.C,H2*%
X146300000Y-141100000D02*
G75*
G02*
X146300000Y-141000000I0J50000D01*
G01*
X146300000Y-141000000D02*
G75*
G02*
X146300000Y-141100000I0J-50000D01*
G01*
X156200000Y-155250000D02*
X156200000Y-151250000D01*
X156200000Y-141850000D02*
X156200000Y-145250000D01*
X153600000Y-141850000D02*
X156200000Y-141850000D01*
X153300000Y-155250000D02*
X156200000Y-155250000D01*
X148500000Y-141850000D02*
X151500000Y-141850000D01*
X146400000Y-141850000D02*
X143800000Y-141850000D01*
X146300000Y-141100000D02*
X146300000Y-141100000D01*
X146300000Y-141000000D02*
X146300000Y-141000000D01*
X143800000Y-155250000D02*
X146400000Y-155250000D01*
X143800000Y-151250000D02*
X143800000Y-155250000D01*
X143800000Y-141850000D02*
X143800000Y-145550000D01*
D14*
%TO.C,R5*%
X146342224Y-165522500D02*
X145832776Y-165522500D01*
X146342224Y-164477500D02*
X145832776Y-164477500D01*
%TO.C,R11*%
X159254724Y-131022500D02*
X158745276Y-131022500D01*
X159254724Y-129977500D02*
X158745276Y-129977500D01*
%TO.C,R10*%
X171754724Y-134522500D02*
X171245276Y-134522500D01*
X171754724Y-133477500D02*
X171245276Y-133477500D01*
%TO.C,R9*%
X165745276Y-138477500D02*
X166254724Y-138477500D01*
X165745276Y-139522500D02*
X166254724Y-139522500D01*
D15*
%TO.C,LED2*%
X168525000Y-134000000D02*
X168525000Y-134000000D01*
X168625000Y-134000000D02*
X168625000Y-134000000D01*
X168625000Y-134000000D02*
G75*
G02*
X168525000Y-134000000I-50000J0D01*
G01*
X168525000Y-134000000D02*
G75*
G02*
X168625000Y-134000000I50000J0D01*
G01*
D14*
%TO.C,R6*%
X146342224Y-170022500D02*
X145832776Y-170022500D01*
X146342224Y-168977500D02*
X145832776Y-168977500D01*
%TO.C,R14*%
X159254724Y-81022500D02*
X158745276Y-81022500D01*
X159254724Y-79977500D02*
X158745276Y-79977500D01*
%TO.C,C4*%
X132020000Y-155675000D02*
X129700000Y-155675000D01*
X132020000Y-157325000D02*
X132020000Y-155675000D01*
X129700000Y-157325000D02*
X132020000Y-157325000D01*
%TO.C,R3*%
X145245276Y-111977500D02*
X145754724Y-111977500D01*
X145245276Y-113022500D02*
X145754724Y-113022500D01*
%TO.C,R2*%
X151342224Y-113022500D02*
X150832776Y-113022500D01*
X151342224Y-111977500D02*
X150832776Y-111977500D01*
%TO.C,R8*%
X154342224Y-170022500D02*
X153832776Y-170022500D01*
X154342224Y-168977500D02*
X153832776Y-168977500D01*
%TO.C,R12*%
X162245276Y-89977500D02*
X162754724Y-89977500D01*
X162245276Y-91022500D02*
X162754724Y-91022500D01*
%TO.C,R13*%
X171254724Y-85022500D02*
X170745276Y-85022500D01*
X171254724Y-83977500D02*
X170745276Y-83977500D01*
D15*
%TO.C,H1*%
X143800000Y-91850000D02*
X143800000Y-95550000D01*
X143800000Y-101250000D02*
X143800000Y-105250000D01*
X143800000Y-105250000D02*
X146400000Y-105250000D01*
X146300000Y-91000000D02*
X146300000Y-91000000D01*
X146300000Y-91100000D02*
X146300000Y-91100000D01*
X146400000Y-91850000D02*
X143800000Y-91850000D01*
X148500000Y-91850000D02*
X151500000Y-91850000D01*
X153300000Y-105250000D02*
X156200000Y-105250000D01*
X153600000Y-91850000D02*
X156200000Y-91850000D01*
X156200000Y-91850000D02*
X156200000Y-95250000D01*
X156200000Y-105250000D02*
X156200000Y-101250000D01*
X146300000Y-91000000D02*
G75*
G02*
X146300000Y-91100000I0J-50000D01*
G01*
X146300000Y-91100000D02*
G75*
G02*
X146300000Y-91000000I0J50000D01*
G01*
D10*
%TO.C,SW1*%
X145685000Y-185800000D02*
X145685000Y-188740000D01*
X145685000Y-188740000D02*
X154315000Y-188740000D01*
X154315000Y-182860000D02*
X147460000Y-182860000D01*
X154315000Y-188740000D02*
X154315000Y-182860000D01*
D15*
%TO.C,LED1*%
X168400000Y-84125000D02*
X168400000Y-84125000D01*
X168500000Y-84125000D02*
X168500000Y-84125000D01*
X168400000Y-84125000D02*
G75*
G02*
X168500000Y-84125000I50000J0D01*
G01*
X168500000Y-84125000D02*
G75*
G02*
X168400000Y-84125000I-50000J0D01*
G01*
%TD*%
M02*
