%TF.GenerationSoftware,KiCad,Pcbnew,9.0.6*%
%TF.CreationDate,2026-05-20T03:56:18+01:00*%
%TF.ProjectId,CM5IO,434d3549-4f2e-46b6-9963-61645f706362,rev?*%
%TF.SameCoordinates,Original*%
%TF.FileFunction,Soldermask,Top*%
%TF.FilePolarity,Negative*%
%FSLAX46Y46*%
G04 Gerber Fmt 4.6, Leading zero omitted, Abs format (unit mm)*
G04 Created by KiCad (PCBNEW 9.0.6) date 2026-05-20 03:56:18*
%MOMM*%
%LPD*%
G01*
G04 APERTURE LIST*
G04 Aperture macros list*
%AMRoundRect*
0 Rectangle with rounded corners*
0 $1 Rounding radius*
0 $2 $3 $4 $5 $6 $7 $8 $9 X,Y pos of 4 corners*
0 Add a 4 corners polygon primitive as box body*
4,1,4,$2,$3,$4,$5,$6,$7,$8,$9,$2,$3,0*
0 Add four circle primitives for the rounded corners*
1,1,$1+$1,$2,$3*
1,1,$1+$1,$4,$5*
1,1,$1+$1,$6,$7*
1,1,$1+$1,$8,$9*
0 Add four rect primitives between the rounded corners*
20,1,$1+$1,$2,$3,$4,$5,0*
20,1,$1+$1,$4,$5,$6,$7,0*
20,1,$1+$1,$6,$7,$8,$9,0*
20,1,$1+$1,$8,$9,$2,$3,0*%
%AMFreePoly0*
4,1,23,0.500000,-0.750000,0.000000,-0.750000,0.000000,-0.745722,-0.065263,-0.745722,-0.191342,-0.711940,-0.304381,-0.646677,-0.396677,-0.554381,-0.461940,-0.441342,-0.495722,-0.315263,-0.495722,-0.250000,-0.500000,-0.250000,-0.500000,0.250000,-0.495722,0.250000,-0.495722,0.315263,-0.461940,0.441342,-0.396677,0.554381,-0.304381,0.646677,-0.191342,0.711940,-0.065263,0.745722,0.000000,0.745722,
0.000000,0.750000,0.500000,0.750000,0.500000,-0.750000,0.500000,-0.750000,$1*%
%AMFreePoly1*
4,1,23,0.000000,0.745722,0.065263,0.745722,0.191342,0.711940,0.304381,0.646677,0.396677,0.554381,0.461940,0.441342,0.495722,0.315263,0.495722,0.250000,0.500000,0.250000,0.500000,-0.250000,0.495722,-0.250000,0.495722,-0.315263,0.461940,-0.441342,0.396677,-0.554381,0.304381,-0.646677,0.191342,-0.711940,0.065263,-0.745722,0.000000,-0.745722,0.000000,-0.750000,-0.500000,-0.750000,
-0.500000,0.750000,0.000000,0.750000,0.000000,0.745722,0.000000,0.745722,$1*%
G04 Aperture macros list end*
%ADD10R,0.700000X0.200000*%
%ADD11R,0.300000X1.300000*%
%ADD12R,1.800000X2.200000*%
%ADD13RoundRect,0.135000X-0.185000X0.135000X-0.185000X-0.135000X0.185000X-0.135000X0.185000X0.135000X0*%
%ADD14RoundRect,0.075000X0.075000X0.200000X-0.075000X0.200000X-0.075000X-0.200000X0.075000X-0.200000X0*%
%ADD15RoundRect,0.162500X0.162500X-0.837500X0.162500X0.837500X-0.162500X0.837500X-0.162500X-0.837500X0*%
%ADD16R,1.700000X1.700000*%
%ADD17O,1.700000X1.700000*%
%ADD18RoundRect,0.218750X0.218750X0.256250X-0.218750X0.256250X-0.218750X-0.256250X0.218750X-0.256250X0*%
%ADD19RoundRect,0.150000X-0.150000X-0.425000X0.150000X-0.425000X0.150000X0.425000X-0.150000X0.425000X0*%
%ADD20RoundRect,0.075000X-0.075000X-0.500000X0.075000X-0.500000X0.075000X0.500000X-0.075000X0.500000X0*%
%ADD21O,1.000000X2.100000*%
%ADD22O,1.000000X1.800000*%
%ADD23RoundRect,0.250500X-0.499500X-0.499500X0.499500X-0.499500X0.499500X0.499500X-0.499500X0.499500X0*%
%ADD24C,1.500000*%
%ADD25C,2.500000*%
%ADD26R,0.300000X2.600000*%
%ADD27O,1.500000X3.300000*%
%ADD28O,1.500000X2.300000*%
%ADD29C,5.300000*%
%ADD30RoundRect,0.135000X-0.135000X-0.185000X0.135000X-0.185000X0.135000X0.185000X-0.135000X0.185000X0*%
%ADD31RoundRect,0.135000X0.185000X-0.135000X0.185000X0.135000X-0.185000X0.135000X-0.185000X-0.135000X0*%
%ADD32RoundRect,0.250001X0.499999X-0.499999X0.499999X0.499999X-0.499999X0.499999X-0.499999X-0.499999X0*%
%ADD33C,3.410000*%
%ADD34RoundRect,0.135000X0.135000X0.185000X-0.135000X0.185000X-0.135000X-0.185000X0.135000X-0.185000X0*%
%ADD35RoundRect,0.250001X-0.499999X0.499999X-0.499999X-0.499999X0.499999X-0.499999X0.499999X0.499999X0*%
%ADD36RoundRect,0.200000X0.200000X0.275000X-0.200000X0.275000X-0.200000X-0.275000X0.200000X-0.275000X0*%
%ADD37RoundRect,0.250001X-1.599999X1.099999X-1.599999X-1.099999X1.599999X-1.099999X1.599999X1.099999X0*%
%ADD38O,3.700000X2.700000*%
%ADD39RoundRect,0.250000X2.000000X-1.400000X2.000000X1.400000X-2.000000X1.400000X-2.000000X-1.400000X0*%
%ADD40RoundRect,0.250000X1.045000X-0.785000X1.045000X0.785000X-1.045000X0.785000X-1.045000X-0.785000X0*%
%ADD41RoundRect,0.140000X0.140000X0.170000X-0.140000X0.170000X-0.140000X-0.170000X0.140000X-0.170000X0*%
%ADD42RoundRect,0.250000X-0.350000X-0.450000X0.350000X-0.450000X0.350000X0.450000X-0.350000X0.450000X0*%
%ADD43RoundRect,0.140000X0.170000X-0.140000X0.170000X0.140000X-0.170000X0.140000X-0.170000X-0.140000X0*%
%ADD44R,3.000000X3.000000*%
%ADD45RoundRect,0.200000X-0.200000X-0.275000X0.200000X-0.275000X0.200000X0.275000X-0.200000X0.275000X0*%
%ADD46C,3.100000*%
%ADD47C,1.100000*%
%ADD48RoundRect,0.225000X-0.375000X0.225000X-0.375000X-0.225000X0.375000X-0.225000X0.375000X0.225000X0*%
%ADD49RoundRect,0.150000X0.625000X-0.150000X0.625000X0.150000X-0.625000X0.150000X-0.625000X-0.150000X0*%
%ADD50RoundRect,0.250000X0.650000X-0.350000X0.650000X0.350000X-0.650000X0.350000X-0.650000X-0.350000X0*%
%ADD51RoundRect,0.250002X-1.599998X-1.599998X1.599998X-1.599998X1.599998X1.599998X-1.599998X1.599998X0*%
%ADD52C,3.700000*%
%ADD53RoundRect,0.140000X-0.140000X-0.170000X0.140000X-0.170000X0.140000X0.170000X-0.140000X0.170000X0*%
%ADD54RoundRect,0.250000X0.250000X0.475000X-0.250000X0.475000X-0.250000X-0.475000X0.250000X-0.475000X0*%
%ADD55C,1.422400*%
%ADD56RoundRect,0.225000X-0.250000X0.225000X-0.250000X-0.225000X0.250000X-0.225000X0.250000X0.225000X0*%
%ADD57RoundRect,0.250000X0.650000X-0.325000X0.650000X0.325000X-0.650000X0.325000X-0.650000X-0.325000X0*%
%ADD58RoundRect,0.225000X-0.225000X-0.250000X0.225000X-0.250000X0.225000X0.250000X-0.225000X0.250000X0*%
%ADD59FreePoly0,0.000000*%
%ADD60FreePoly1,0.000000*%
%ADD61RoundRect,0.150000X-0.150000X0.512500X-0.150000X-0.512500X0.150000X-0.512500X0.150000X0.512500X0*%
%ADD62RoundRect,0.225000X0.225000X0.250000X-0.225000X0.250000X-0.225000X-0.250000X0.225000X-0.250000X0*%
%ADD63RoundRect,0.250000X-0.250000X-0.475000X0.250000X-0.475000X0.250000X0.475000X-0.250000X0.475000X0*%
%ADD64C,2.100000*%
%ADD65C,1.750000*%
%ADD66RoundRect,0.200000X-0.275000X0.200000X-0.275000X-0.200000X0.275000X-0.200000X0.275000X0.200000X0*%
%ADD67C,2.362200*%
%ADD68R,1.525000X0.650000*%
%ADD69R,2.400000X3.100000*%
%ADD70RoundRect,0.250001X-0.499999X-0.759999X0.499999X-0.759999X0.499999X0.759999X-0.499999X0.759999X0*%
%ADD71O,1.500000X2.020000*%
%ADD72C,1.700000*%
%ADD73C,6.100000*%
%ADD74RoundRect,0.250000X1.500000X0.550000X-1.500000X0.550000X-1.500000X-0.550000X1.500000X-0.550000X0*%
%ADD75R,3.600000X3.600000*%
G04 APERTURE END LIST*
%TO.C,JP1*%
G36*
X253700000Y-147450000D02*
G01*
X254000000Y-147450000D01*
X254000000Y-148950000D01*
X253700000Y-148950000D01*
X253700000Y-147450000D01*
G37*
%TD*%
D10*
%TO.C,J101*%
X197960000Y-84900000D03*
X201040000Y-84900000D03*
X197960000Y-85300000D03*
X201040000Y-85300000D03*
X197960000Y-85700000D03*
X201040000Y-85700000D03*
X197960000Y-86100000D03*
X201040000Y-86100000D03*
X197960000Y-86500000D03*
X201040000Y-86500000D03*
X197960000Y-86900000D03*
X201040000Y-86900000D03*
X197960000Y-87300000D03*
X201040000Y-87300000D03*
X197960000Y-87700000D03*
X201040000Y-87700000D03*
X197960000Y-88100000D03*
X201040000Y-88100000D03*
X197960000Y-88500000D03*
X201040000Y-88500000D03*
X197960000Y-88900000D03*
X201040000Y-88900000D03*
X197960000Y-89300000D03*
X201040000Y-89300000D03*
X197960000Y-89700000D03*
X201040000Y-89700000D03*
X197960000Y-90100000D03*
X201040000Y-90100000D03*
X197960000Y-90500000D03*
X201040000Y-90500000D03*
X197960000Y-90900000D03*
X201040000Y-90900000D03*
X197960000Y-91300000D03*
X201040000Y-91300000D03*
X197960000Y-91700000D03*
X201040000Y-91700000D03*
X197960000Y-92100000D03*
X201040000Y-92100000D03*
X197960000Y-92500000D03*
X201040000Y-92500000D03*
X197960000Y-92900000D03*
X201040000Y-92900000D03*
X197960000Y-93300000D03*
X201040000Y-93300000D03*
X197960000Y-93700000D03*
X201040000Y-93700000D03*
X197960000Y-94100000D03*
X201040000Y-94100000D03*
X197960000Y-94500000D03*
X201040000Y-94500000D03*
X197960000Y-94900000D03*
X201040000Y-94900000D03*
X197960000Y-95300000D03*
X201040000Y-95300000D03*
X197960000Y-95700000D03*
X201040000Y-95700000D03*
X197960000Y-96100000D03*
X201040000Y-96100000D03*
X197960000Y-96500000D03*
X201040000Y-96500000D03*
X197960000Y-96900000D03*
X201040000Y-96900000D03*
X197960000Y-97300000D03*
X201040000Y-97300000D03*
X197960000Y-97700000D03*
X201040000Y-97700000D03*
X197960000Y-98100000D03*
X201040000Y-98100000D03*
X197960000Y-98500000D03*
X201040000Y-98500000D03*
X197960000Y-98900000D03*
X201040000Y-98900000D03*
X197960000Y-99300000D03*
X201040000Y-99300000D03*
X197960000Y-99700000D03*
X201040000Y-99700000D03*
X197960000Y-100100000D03*
X201040000Y-100100000D03*
X197960000Y-100500000D03*
X201040000Y-100500000D03*
X197960000Y-100900000D03*
X201040000Y-100900000D03*
X197960000Y-101300000D03*
X201040000Y-101300000D03*
X197960000Y-101700000D03*
X201040000Y-101700000D03*
X197960000Y-102100000D03*
X201040000Y-102100000D03*
X197960000Y-102500000D03*
X201040000Y-102500000D03*
X197960000Y-102900000D03*
X201040000Y-102900000D03*
X197960000Y-103300000D03*
X201040000Y-103300000D03*
X197960000Y-103700000D03*
X201040000Y-103700000D03*
X197960000Y-104100000D03*
X201040000Y-104100000D03*
X197960000Y-104500000D03*
X201040000Y-104500000D03*
%TD*%
%TO.C,J100*%
X163960000Y-84900000D03*
X167040000Y-84900000D03*
X163960000Y-85300000D03*
X167040000Y-85300000D03*
X163960000Y-85700000D03*
X167040000Y-85700000D03*
X163960000Y-86100000D03*
X167040000Y-86100000D03*
X163960000Y-86500000D03*
X167040000Y-86500000D03*
X163960000Y-86900000D03*
X167040000Y-86900000D03*
X163960000Y-87300000D03*
X167040000Y-87300000D03*
X163960000Y-87700000D03*
X167040000Y-87700000D03*
X163960000Y-88100000D03*
X167040000Y-88100000D03*
X163960000Y-88500000D03*
X167040000Y-88500000D03*
X163960000Y-88900000D03*
X167040000Y-88900000D03*
X163960000Y-89300000D03*
X167040000Y-89300000D03*
X163960000Y-89700000D03*
X167040000Y-89700000D03*
X163960000Y-90100000D03*
X167040000Y-90100000D03*
X163960000Y-90500000D03*
X167040000Y-90500000D03*
X163960000Y-90900000D03*
X167040000Y-90900000D03*
X163960000Y-91300000D03*
X167040000Y-91300000D03*
X163960000Y-91700000D03*
X167040000Y-91700000D03*
X163960000Y-92100000D03*
X167040000Y-92100000D03*
X163960000Y-92500000D03*
X167040000Y-92500000D03*
X163960000Y-92900000D03*
X167040000Y-92900000D03*
X163960000Y-93300000D03*
X167040000Y-93300000D03*
X163960000Y-93700000D03*
X167040000Y-93700000D03*
X163960000Y-94100000D03*
X167040000Y-94100000D03*
X163960000Y-94500000D03*
X167040000Y-94500000D03*
X163960000Y-94900000D03*
X167040000Y-94900000D03*
X163960000Y-95300000D03*
X167040000Y-95300000D03*
X163960000Y-95700000D03*
X167040000Y-95700000D03*
X163960000Y-96100000D03*
X167040000Y-96100000D03*
X163960000Y-96500000D03*
X167040000Y-96500000D03*
X163960000Y-96900000D03*
X167040000Y-96900000D03*
X163960000Y-97300000D03*
X167040000Y-97300000D03*
X163960000Y-97700000D03*
X167040000Y-97700000D03*
X163960000Y-98100000D03*
X167040000Y-98100000D03*
X163960000Y-98500000D03*
X167040000Y-98500000D03*
X163960000Y-98900000D03*
X167040000Y-98900000D03*
X163960000Y-99300000D03*
X167040000Y-99300000D03*
X163960000Y-99700000D03*
X167040000Y-99700000D03*
X163960000Y-100100000D03*
X167040000Y-100100000D03*
X163960000Y-100500000D03*
X167040000Y-100500000D03*
X163960000Y-100900000D03*
X167040000Y-100900000D03*
X163960000Y-101300000D03*
X167040000Y-101300000D03*
X163960000Y-101700000D03*
X167040000Y-101700000D03*
X163960000Y-102100000D03*
X167040000Y-102100000D03*
X163960000Y-102500000D03*
X167040000Y-102500000D03*
X163960000Y-102900000D03*
X167040000Y-102900000D03*
X163960000Y-103300000D03*
X167040000Y-103300000D03*
X163960000Y-103700000D03*
X167040000Y-103700000D03*
X163960000Y-104100000D03*
X167040000Y-104100000D03*
X163960000Y-104500000D03*
X167040000Y-104500000D03*
%TD*%
D11*
%TO.C,J2*%
X88750000Y-76550000D03*
X89250000Y-76550000D03*
X89750000Y-76550000D03*
X90250000Y-76550000D03*
X90750000Y-76550000D03*
X91250000Y-76550000D03*
X91750000Y-76550000D03*
X92250000Y-76550000D03*
X92750000Y-76550000D03*
X93250000Y-76550000D03*
X93750000Y-76550000D03*
X94250000Y-76550000D03*
X94750000Y-76550000D03*
X95250000Y-76550000D03*
X95750000Y-76550000D03*
X96250000Y-76550000D03*
X96750000Y-76550000D03*
X97250000Y-76550000D03*
X97750000Y-76550000D03*
X98250000Y-76550000D03*
X98750000Y-76550000D03*
X99250000Y-76550000D03*
D12*
X101150000Y-73300000D03*
X86850000Y-73300000D03*
%TD*%
D11*
%TO.C,J3*%
X124750000Y-76550000D03*
X125250000Y-76550000D03*
X125750000Y-76550000D03*
X126250000Y-76550000D03*
X126750000Y-76550000D03*
X127250000Y-76550000D03*
X127750000Y-76550000D03*
X128250000Y-76550000D03*
X128750000Y-76550000D03*
X129250000Y-76550000D03*
X129750000Y-76550000D03*
X130250000Y-76550000D03*
X130750000Y-76550000D03*
X131250000Y-76550000D03*
X131750000Y-76550000D03*
X132250000Y-76550000D03*
X132750000Y-76550000D03*
X133250000Y-76550000D03*
X133750000Y-76550000D03*
X134250000Y-76550000D03*
X134750000Y-76550000D03*
X135250000Y-76550000D03*
D12*
X137150000Y-73300000D03*
X122850000Y-73300000D03*
%TD*%
D13*
%TO.C,R10*%
X224500000Y-146865000D03*
X224500000Y-147885000D03*
%TD*%
D14*
%TO.C,U3*%
X159900000Y-137600000D03*
X159400000Y-137600000D03*
X158900000Y-137600000D03*
X158400000Y-137600000D03*
X157900000Y-137600000D03*
X157900000Y-138370000D03*
X158400000Y-138370000D03*
X158900000Y-138370000D03*
X159400000Y-138370000D03*
X159900000Y-138370000D03*
%TD*%
D15*
%TO.C,U2*%
X116650000Y-149010000D03*
X118550000Y-149010000D03*
X117600000Y-145590000D03*
%TD*%
D16*
%TO.C,J11*%
X90870000Y-108470000D03*
D17*
X90870000Y-105930000D03*
X93410000Y-108470000D03*
X93410000Y-105930000D03*
X95950000Y-108470000D03*
X95950000Y-105930000D03*
X98490000Y-108470000D03*
X98490000Y-105930000D03*
X101030000Y-108470000D03*
X101030000Y-105930000D03*
X103570000Y-108470000D03*
X103570000Y-105930000D03*
X106110000Y-108470000D03*
X106110000Y-105930000D03*
X108650000Y-108470000D03*
X108650000Y-105930000D03*
X111190000Y-108470000D03*
X111190000Y-105930000D03*
X113730000Y-108470000D03*
X113730000Y-105930000D03*
X116270000Y-108470000D03*
X116270000Y-105930000D03*
X118810000Y-108470000D03*
X118810000Y-105930000D03*
X121350000Y-108470000D03*
X121350000Y-105930000D03*
X123890000Y-108470000D03*
X123890000Y-105930000D03*
X126430000Y-108470000D03*
X126430000Y-105930000D03*
X128970000Y-108470000D03*
X128970000Y-105930000D03*
X131510000Y-108470000D03*
X131510000Y-105930000D03*
X134050000Y-108470000D03*
X134050000Y-105930000D03*
X136590000Y-108470000D03*
X136590000Y-105930000D03*
X139130000Y-108470000D03*
X139130000Y-105930000D03*
%TD*%
D18*
%TO.C,D2*%
X117037500Y-158700000D03*
X115462500Y-158700000D03*
%TD*%
D16*
%TO.C,J13*%
X145270000Y-151470000D03*
D17*
X142730000Y-151470000D03*
X145270000Y-148930000D03*
X142730000Y-148930000D03*
%TD*%
D19*
%TO.C,J1*%
X187300000Y-153545000D03*
X188100000Y-153545000D03*
D20*
X189250000Y-153545000D03*
X190250000Y-153545000D03*
X190750000Y-153545000D03*
X191750000Y-153545000D03*
D19*
X192900000Y-153545000D03*
X193700000Y-153545000D03*
X193700000Y-153545000D03*
X192900000Y-153545000D03*
D20*
X192250000Y-153545000D03*
X191250000Y-153545000D03*
X189750000Y-153545000D03*
X188750000Y-153545000D03*
D19*
X188100000Y-153545000D03*
X187300000Y-153545000D03*
D21*
X186180000Y-154120000D03*
D22*
X186180000Y-158300000D03*
D21*
X194820000Y-154120000D03*
D22*
X194820000Y-158300000D03*
%TD*%
D18*
%TO.C,D1*%
X120787500Y-158700000D03*
X119212500Y-158700000D03*
%TD*%
D13*
%TO.C,R1*%
X195000000Y-127940000D03*
X195000000Y-128960000D03*
%TD*%
D23*
%TO.C,U5*%
X150785000Y-141310000D03*
D24*
X152055000Y-143850000D03*
X153325000Y-141310000D03*
X154595000Y-143850000D03*
X155865000Y-141310000D03*
X157135000Y-143850000D03*
X158405000Y-141310000D03*
X159675000Y-143850000D03*
X160945000Y-141310000D03*
X162215000Y-143850000D03*
X150785000Y-146370000D03*
X153325000Y-147640000D03*
X159675000Y-147640000D03*
X162215000Y-146370000D03*
X149870000Y-154260000D03*
X152410000Y-154260000D03*
X160590000Y-154260000D03*
X163130000Y-154260000D03*
D25*
X148625000Y-147150000D03*
X164375000Y-147150000D03*
%TD*%
D26*
%TO.C,J7*%
X135000000Y-149420000D03*
X134500000Y-149420000D03*
X134000000Y-149420000D03*
X133500000Y-149420000D03*
X133000000Y-149420000D03*
X132500000Y-149420000D03*
X132000000Y-149420000D03*
X131500000Y-149420000D03*
X131000000Y-149420000D03*
X130500000Y-149420000D03*
X130000000Y-149420000D03*
X129500000Y-149420000D03*
X129000000Y-149420000D03*
X128500000Y-149420000D03*
X128000000Y-149420000D03*
X127500000Y-149420000D03*
X127000000Y-149420000D03*
X126500000Y-149420000D03*
X126000000Y-149420000D03*
D27*
X137750000Y-150150000D03*
X123250000Y-150150000D03*
D28*
X123250000Y-156110000D03*
X137750000Y-156110000D03*
%TD*%
D26*
%TO.C,J6*%
X110000000Y-149420000D03*
X109500000Y-149420000D03*
X109000000Y-149420000D03*
X108500000Y-149420000D03*
X108000000Y-149420000D03*
X107500000Y-149420000D03*
X107000000Y-149420000D03*
X106500000Y-149420000D03*
X106000000Y-149420000D03*
X105500000Y-149420000D03*
X105000000Y-149420000D03*
X104500000Y-149420000D03*
X104000000Y-149420000D03*
X103500000Y-149420000D03*
X103000000Y-149420000D03*
X102500000Y-149420000D03*
X102000000Y-149420000D03*
X101500000Y-149420000D03*
X101000000Y-149420000D03*
D27*
X112750000Y-150150000D03*
X98250000Y-150150000D03*
D28*
X98250000Y-156110000D03*
X112750000Y-156110000D03*
%TD*%
D29*
%TO.C,H2*%
X88250000Y-156200000D03*
%TD*%
%TO.C,H3*%
X86000000Y-107200000D03*
%TD*%
%TO.C,H4*%
X144000000Y-156700000D03*
%TD*%
%TO.C,H5*%
X143750000Y-106950000D03*
%TD*%
%TO.C,H6*%
X215500000Y-155200000D03*
%TD*%
%TO.C,H7*%
X93500000Y-82700000D03*
%TD*%
D16*
%TO.C,J4*%
X123900000Y-102900000D03*
D17*
X123900000Y-100360000D03*
X126440000Y-102900000D03*
X126440000Y-100360000D03*
%TD*%
D30*
%TO.C,R6*%
X114675000Y-94300000D03*
X115695000Y-94300000D03*
%TD*%
%TO.C,R7*%
X114675000Y-95800000D03*
X115695000Y-95800000D03*
%TD*%
D14*
%TO.C,U4*%
X153900000Y-137600000D03*
X153400000Y-137600000D03*
X152900000Y-137600000D03*
X152400000Y-137600000D03*
X151900000Y-137600000D03*
X151900000Y-138370000D03*
X152400000Y-138370000D03*
X152900000Y-138370000D03*
X153400000Y-138370000D03*
X153900000Y-138370000D03*
%TD*%
D16*
%TO.C,J8*%
X142500000Y-74200000D03*
D17*
X142500000Y-71660000D03*
X145040000Y-74200000D03*
X145040000Y-71660000D03*
X147580000Y-74200000D03*
X147580000Y-71660000D03*
X150120000Y-74200000D03*
X150120000Y-71660000D03*
X152660000Y-74200000D03*
X152660000Y-71660000D03*
X155200000Y-74200000D03*
X155200000Y-71660000D03*
X157740000Y-74200000D03*
X157740000Y-71660000D03*
%TD*%
D16*
%TO.C,J10*%
X211000000Y-72200000D03*
D17*
X208460000Y-72200000D03*
X205920000Y-72200000D03*
%TD*%
D31*
%TO.C,R16*%
X97000000Y-121210000D03*
X97000000Y-120190000D03*
%TD*%
D32*
%TO.C,J16*%
X90500000Y-127200000D03*
D24*
X93500000Y-127200000D03*
D33*
X86180000Y-129350000D03*
X86180000Y-125050000D03*
%TD*%
D34*
%TO.C,R3*%
X194510000Y-142700000D03*
X193490000Y-142700000D03*
%TD*%
D35*
%TO.C,J14*%
X263180000Y-145350000D03*
D24*
X263180000Y-148350000D03*
X263180000Y-151350000D03*
X260180000Y-145350000D03*
X260180000Y-148350000D03*
X260180000Y-151350000D03*
D33*
X267500000Y-143200000D03*
X267500000Y-153500000D03*
%TD*%
D36*
%TO.C,R27*%
X228650000Y-89950000D03*
X227000000Y-89950000D03*
%TD*%
D32*
%TO.C,J17*%
X90500000Y-148200000D03*
D24*
X93500000Y-148200000D03*
D33*
X86180000Y-150350000D03*
X86180000Y-146050000D03*
%TD*%
D37*
%TO.C,SPI_2*%
X258465000Y-124050000D03*
D38*
X258465000Y-128250000D03*
X258465000Y-132450000D03*
X258465000Y-136650000D03*
X252965000Y-124050000D03*
X252965000Y-128250000D03*
X252965000Y-132450000D03*
X252965000Y-136650000D03*
%TD*%
D39*
%TO.C,U9*%
X228350000Y-83950000D03*
X237150000Y-83950000D03*
%TD*%
D40*
%TO.C,C4*%
X189500000Y-144320000D03*
X189500000Y-138080000D03*
%TD*%
D41*
%TO.C,C1*%
X188230000Y-150700000D03*
X187270000Y-150700000D03*
%TD*%
D42*
%TO.C,R12*%
X198500000Y-78700000D03*
X200500000Y-78700000D03*
%TD*%
D43*
%TO.C,C7*%
X115000000Y-149680000D03*
X115000000Y-148720000D03*
%TD*%
D44*
%TO.C,TP6*%
X216250000Y-90450000D03*
%TD*%
D45*
%TO.C,R25*%
X223175000Y-81450000D03*
X224825000Y-81450000D03*
%TD*%
D46*
%TO.C,J5*%
X168930000Y-145470000D03*
X168930000Y-151150000D03*
X182070000Y-145470000D03*
X182070000Y-151150000D03*
D47*
X172000000Y-149150000D03*
X174500000Y-149150000D03*
X176500000Y-149150000D03*
X179000000Y-149150000D03*
X179500000Y-147650000D03*
X177500000Y-147650000D03*
X175500000Y-147650000D03*
X173500000Y-147600000D03*
X171500000Y-147650000D03*
X172000000Y-145950000D03*
X174500000Y-145950000D03*
X176500000Y-145950000D03*
X179000000Y-145950000D03*
X179500000Y-144450000D03*
X177500000Y-144450000D03*
X175500000Y-144450000D03*
X173500000Y-144400000D03*
X171500000Y-144450000D03*
%TD*%
D48*
%TO.C,D4*%
X228500000Y-99550000D03*
X228500000Y-102850000D03*
%TD*%
D32*
%TO.C,J15*%
X90500000Y-116700000D03*
D24*
X93500000Y-116700000D03*
D33*
X86180000Y-118850000D03*
X86180000Y-114550000D03*
%TD*%
D49*
%TO.C,J9*%
X210125000Y-83900000D03*
X210125000Y-82900000D03*
X210125000Y-81900000D03*
X210125000Y-80900000D03*
D50*
X207600000Y-85200000D03*
X207600000Y-79600000D03*
%TD*%
D51*
%TO.C,J24*%
X247500000Y-85250000D03*
D52*
X247500000Y-90750000D03*
%TD*%
D29*
%TO.C,H8*%
X268500000Y-95200000D03*
%TD*%
D36*
%TO.C,R26*%
X239075000Y-74200000D03*
X237425000Y-74200000D03*
%TD*%
D53*
%TO.C,C2*%
X193270000Y-150700000D03*
X194230000Y-150700000D03*
%TD*%
D54*
%TO.C,C3*%
X192950000Y-128950000D03*
X191050000Y-128950000D03*
%TD*%
D55*
%TO.C,J20*%
X204033400Y-142428301D03*
X204033400Y-144428300D03*
X204033400Y-146428301D03*
X204033400Y-148428299D03*
D24*
X201283400Y-149178301D03*
X206783400Y-149178301D03*
%TD*%
D56*
%TO.C,C22*%
X234750000Y-76425000D03*
X234750000Y-77975000D03*
%TD*%
D57*
%TO.C,C23*%
X216750000Y-102675000D03*
X216750000Y-99725000D03*
%TD*%
D58*
%TO.C,C24*%
X233475000Y-72700000D03*
X235025000Y-72700000D03*
%TD*%
D59*
%TO.C,JP1*%
X253200000Y-148200000D03*
D60*
X254500000Y-148200000D03*
%TD*%
D30*
%TO.C,R8*%
X210490000Y-94200000D03*
X211510000Y-94200000D03*
%TD*%
D61*
%TO.C,U1*%
X191950000Y-131825000D03*
X191000000Y-131825000D03*
X190050000Y-131825000D03*
X190050000Y-134100000D03*
X191000000Y-134100000D03*
X191950000Y-134100000D03*
%TD*%
D62*
%TO.C,C20*%
X221025000Y-82450000D03*
X219475000Y-82450000D03*
%TD*%
D63*
%TO.C,C5*%
X172800000Y-141450000D03*
X174700000Y-141450000D03*
%TD*%
D58*
%TO.C,C21*%
X228725000Y-72700000D03*
X230275000Y-72700000D03*
%TD*%
D64*
%TO.C,SW1*%
X108500000Y-75090000D03*
X115510000Y-75090000D03*
D65*
X109750000Y-72600000D03*
X114250000Y-72600000D03*
%TD*%
D66*
%TO.C,R28*%
X238250000Y-77375000D03*
X238250000Y-79025000D03*
%TD*%
D42*
%TO.C,R11*%
X198500000Y-81200000D03*
X200500000Y-81200000D03*
%TD*%
D31*
%TO.C,R17*%
X98500000Y-130210000D03*
X98500000Y-129190000D03*
%TD*%
D67*
%TO.C,J23*%
X259299996Y-85404099D03*
X265000000Y-85404099D03*
%TD*%
D68*
%TO.C,U8*%
X226750000Y-75140000D03*
X226750000Y-76410000D03*
X226750000Y-77680000D03*
X226750000Y-78950000D03*
X232174000Y-78950000D03*
X232174000Y-77680000D03*
X232174000Y-76410000D03*
X232174000Y-75140000D03*
D69*
X229462000Y-77045000D03*
%TD*%
D31*
%TO.C,R19*%
X97000000Y-134710000D03*
X97000000Y-133690000D03*
%TD*%
D34*
%TO.C,R4*%
X190738791Y-135815365D03*
X189718791Y-135815365D03*
%TD*%
D43*
%TO.C,C9*%
X155886647Y-138416805D03*
X155886647Y-137456805D03*
%TD*%
D30*
%TO.C,R2*%
X195490000Y-149200000D03*
X196510000Y-149200000D03*
%TD*%
D57*
%TO.C,C26*%
X224750000Y-102675000D03*
X224750000Y-99725000D03*
%TD*%
D31*
%TO.C,R9*%
X119500000Y-156460000D03*
X119500000Y-155440000D03*
%TD*%
D70*
%TO.C,J12*%
X227000000Y-154950000D03*
D71*
X230000000Y-154950000D03*
X233000000Y-154950000D03*
%TD*%
D31*
%TO.C,R15*%
X163789745Y-138426012D03*
X163789745Y-137406012D03*
%TD*%
D37*
%TO.C,SPI_1*%
X258465000Y-102410000D03*
D38*
X258465000Y-106610000D03*
X258465000Y-110810000D03*
X258465000Y-115010000D03*
X252965000Y-102410000D03*
X252965000Y-106610000D03*
X252965000Y-110810000D03*
X252965000Y-115010000D03*
%TD*%
D31*
%TO.C,R13*%
X117000000Y-156460000D03*
X117000000Y-155440000D03*
%TD*%
%TO.C,R14*%
X166116715Y-138425966D03*
X166116715Y-137405966D03*
%TD*%
D16*
%TO.C,5V_Fan1*%
X239500000Y-116200000D03*
D72*
X236960000Y-116200000D03*
%TD*%
D73*
%TO.C,Module1*%
X199000000Y-121200000D03*
X199000000Y-73200000D03*
X166000000Y-121200000D03*
X166000000Y-73200000D03*
D10*
X201040000Y-104500000D03*
X197960000Y-104500000D03*
X201040000Y-104100000D03*
X197960000Y-104100000D03*
X201040000Y-103700000D03*
X197960000Y-103700000D03*
X201040000Y-103300000D03*
X197960000Y-103300000D03*
X201040000Y-102900000D03*
X197960000Y-102900000D03*
X201040000Y-102500000D03*
X197960000Y-102500000D03*
X201040000Y-102100000D03*
X197960000Y-102100000D03*
X201040000Y-101700000D03*
X197960000Y-101700000D03*
X201040000Y-101300000D03*
X197960000Y-101300000D03*
X201040000Y-100900000D03*
X197960000Y-100900000D03*
X201040000Y-100500000D03*
X197960000Y-100500000D03*
X201040000Y-100100000D03*
X197960000Y-100100000D03*
X201040000Y-99700000D03*
X197960000Y-99700000D03*
X201040000Y-99300000D03*
X197960000Y-99300000D03*
X201040000Y-98900000D03*
X197960000Y-98900000D03*
X201040000Y-98500000D03*
X197960000Y-98500000D03*
X201040000Y-98100000D03*
X197960000Y-98100000D03*
X201040000Y-97700000D03*
X197960000Y-97700000D03*
X201040000Y-97300000D03*
X197960000Y-97300000D03*
X201040000Y-96900000D03*
X197960000Y-96900000D03*
X201040000Y-96500000D03*
X197960000Y-96500000D03*
X201040000Y-96100000D03*
X197960000Y-96100000D03*
X201040000Y-95700000D03*
X197960000Y-95700000D03*
X201040000Y-95300000D03*
X197960000Y-95300000D03*
X201040000Y-94900000D03*
X197960000Y-94900000D03*
X201040000Y-94500000D03*
X197960000Y-94500000D03*
X201040000Y-94100000D03*
X197960000Y-94100000D03*
X201040000Y-93700000D03*
X197960000Y-93700000D03*
X201040000Y-93300000D03*
X197960000Y-93300000D03*
X201040000Y-92900000D03*
X197960000Y-92900000D03*
X201040000Y-92500000D03*
X197960000Y-92500000D03*
X201040000Y-92100000D03*
X197960000Y-92100000D03*
X201040000Y-91700000D03*
X197960000Y-91700000D03*
X201040000Y-91300000D03*
X197960000Y-91300000D03*
X201040000Y-90900000D03*
X197960000Y-90900000D03*
X201040000Y-90500000D03*
X197960000Y-90500000D03*
X201040000Y-90100000D03*
X197960000Y-90100000D03*
X201040000Y-89700000D03*
X197960000Y-89700000D03*
X201040000Y-89300000D03*
X197960000Y-89300000D03*
X201040000Y-88900000D03*
X197960000Y-88900000D03*
X201040000Y-88500000D03*
X197960000Y-88500000D03*
X201040000Y-88100000D03*
X197960000Y-88100000D03*
X201040000Y-87700000D03*
X197960000Y-87700000D03*
X201040000Y-87300000D03*
X197960000Y-87300000D03*
X201040000Y-86900000D03*
X197960000Y-86900000D03*
X201040000Y-86500000D03*
X197960000Y-86500000D03*
X201040000Y-86100000D03*
X197960000Y-86100000D03*
X201040000Y-85700000D03*
X197960000Y-85700000D03*
X201040000Y-85300000D03*
X197960000Y-85300000D03*
X201040000Y-84900000D03*
X197960000Y-84900000D03*
X167040000Y-104500000D03*
X163960000Y-104500000D03*
X167040000Y-104100000D03*
X163960000Y-104100000D03*
X167040000Y-103700000D03*
X163960000Y-103700000D03*
X167040000Y-103300000D03*
X163960000Y-103300000D03*
X167040000Y-102900000D03*
X163960000Y-102900000D03*
X167040000Y-102500000D03*
X163960000Y-102500000D03*
X167040000Y-102100000D03*
X163960000Y-102100000D03*
X167040000Y-101700000D03*
X163960000Y-101700000D03*
X167040000Y-101300000D03*
X163960000Y-101300000D03*
X167040000Y-100900000D03*
X163960000Y-100900000D03*
X167040000Y-100500000D03*
X163960000Y-100500000D03*
X167040000Y-100100000D03*
X163960000Y-100100000D03*
X167040000Y-99700000D03*
X163960000Y-99700000D03*
X167040000Y-99300000D03*
X163960000Y-99300000D03*
X167040000Y-98900000D03*
X163960000Y-98900000D03*
X167040000Y-98500000D03*
X163960000Y-98500000D03*
X167040000Y-98100000D03*
X163960000Y-98100000D03*
X167040000Y-97700000D03*
X163960000Y-97700000D03*
X167040000Y-97300000D03*
X163960000Y-97300000D03*
X167040000Y-96900000D03*
X163960000Y-96900000D03*
X167040000Y-96500000D03*
X163960000Y-96500000D03*
X167040000Y-96100000D03*
X163960000Y-96100000D03*
X167040000Y-95700000D03*
X163960000Y-95700000D03*
X167040000Y-95300000D03*
X163960000Y-95300000D03*
X167040000Y-94900000D03*
X163960000Y-94900000D03*
X167040000Y-94500000D03*
X163960000Y-94500000D03*
X167040000Y-94100000D03*
X163960000Y-94100000D03*
X167040000Y-93700000D03*
X163960000Y-93700000D03*
X167040000Y-93300000D03*
X163960000Y-93300000D03*
X167040000Y-92900000D03*
X163960000Y-92900000D03*
X167040000Y-92500000D03*
X163960000Y-92500000D03*
X167040000Y-92100000D03*
X163960000Y-92100000D03*
X167040000Y-91700000D03*
X163960000Y-91700000D03*
X167040000Y-91300000D03*
X163960000Y-91300000D03*
X167040000Y-90900000D03*
X163960000Y-90900000D03*
X167040000Y-90500000D03*
X163960000Y-90500000D03*
X167040000Y-90100000D03*
X163960000Y-90100000D03*
X167040000Y-89700000D03*
X163960000Y-89700000D03*
X167040000Y-89300000D03*
X163960000Y-89300000D03*
X167040000Y-88900000D03*
X163960000Y-88900000D03*
X167040000Y-88500000D03*
X163960000Y-88500000D03*
X167040000Y-88100000D03*
X163960000Y-88100000D03*
X167040000Y-87700000D03*
X163960000Y-87700000D03*
X167040000Y-87300000D03*
X163960000Y-87300000D03*
X167040000Y-86900000D03*
X163960000Y-86900000D03*
X167040000Y-86500000D03*
X163960000Y-86500000D03*
X167040000Y-86100000D03*
X163960000Y-86100000D03*
X167040000Y-85700000D03*
X163960000Y-85700000D03*
X167040000Y-85300000D03*
X163960000Y-85300000D03*
X167040000Y-84900000D03*
X163960000Y-84900000D03*
%TD*%
D32*
%TO.C,J18*%
X90500000Y-137200000D03*
D24*
X93500000Y-137200000D03*
D33*
X86180000Y-139350000D03*
X86180000Y-135050000D03*
%TD*%
D74*
%TO.C,C19*%
X222950000Y-76450000D03*
X217550000Y-76450000D03*
%TD*%
D43*
%TO.C,C8*%
X120500000Y-148680000D03*
X120500000Y-147720000D03*
%TD*%
D29*
%TO.C,H1*%
X255000000Y-154950000D03*
%TD*%
D30*
%TO.C,R5*%
X136228044Y-79410000D03*
X137248044Y-79410000D03*
%TD*%
D75*
%TO.C,U10*%
X235000000Y-91000000D03*
X235000000Y-97400000D03*
%TD*%
D57*
%TO.C,C25*%
X220750000Y-102675000D03*
X220750000Y-99725000D03*
%TD*%
D31*
%TO.C,R18*%
X96000000Y-144710000D03*
X96000000Y-143690000D03*
%TD*%
D63*
%TO.C,C6*%
X172800000Y-139200000D03*
X174700000Y-139200000D03*
%TD*%
M02*
