M48
; DRILL file {KiCad 9.0.6} date 2026-05-20T03:56:18+0100
; FORMAT={-:-/ absolute / inch / decimal}
; #@! TF.CreationDate,2026-05-20T03:56:18+01:00
; #@! TF.GenerationSoftware,Kicad,Pcbnew,9.0.6
; #@! TF.FileFunction,Plated,1,4,PTH
FMAT,2
INCH
; #@! TA.AperFunction,Plated,PTH,ViaDrill
T1C0.0079
; #@! TA.AperFunction,Plated,PTH,ComponentDrill
T2C0.0236
; #@! TA.AperFunction,Plated,PTH,ComponentDrill
T3C0.0276
; #@! TA.AperFunction,Plated,PTH,ComponentDrill
T4C0.0354
; #@! TA.AperFunction,Plated,PTH,ComponentDrill
T5C0.0360
; #@! TA.AperFunction,Plated,PTH,ComponentDrill
T6C0.0390
; #@! TA.AperFunction,Plated,PTH,ComponentDrill
T7C0.0394
; #@! TA.AperFunction,Plated,PTH,ComponentDrill
T8C0.0402
; #@! TA.AperFunction,Plated,PTH,ComponentDrill
T9C0.0512
; #@! TA.AperFunction,Plated,PTH,ComponentDrill
T10C0.0531
; #@! TA.AperFunction,Plated,PTH,ComponentDrill
T11C0.0669
; #@! TA.AperFunction,Plated,PTH,ComponentDrill
T12C0.0709
; #@! TA.AperFunction,Plated,PTH,ComponentDrill
T13C0.0730
; #@! TA.AperFunction,Plated,PTH,ComponentDrill
T14C0.0906
; #@! TA.AperFunction,Plated,PTH,ComponentDrill
T15C0.0949
%
G90
G05
T1
X3.2913Y-3.0512
X3.2953Y-3.2953
X3.2953Y-3.4764
X3.3465Y-2.8425
X3.3465Y-3.8031
X3.3465Y-4.0236
X3.4921Y-2.9331
X3.4921Y-3.1063
X3.4941Y-3.0512
X3.5098Y-3.0787
X3.5374Y-3.0787
X3.5433Y-2.8425
X3.5531Y-2.935
X3.5531Y-3.0512
X3.5531Y-3.1063
X3.6102Y-2.9331
X3.6122Y-3.0512
X3.6142Y-3.1102
X3.628Y-3.0827
X3.6319Y-6.1102
X3.6496Y-3.4921
X3.6555Y-3.0827
X3.6713Y-2.935
X3.6713Y-3.0512
X3.7303Y-3.0551
X3.7323Y-2.9331
X3.7874Y-2.937
X3.7894Y-3.0512
X3.7933Y-3.3701
X3.7953Y-3.4331
X3.7992Y-4.811
X3.8189Y-3.3878
X3.8189Y-3.4154
X3.8386Y-2.8425
X3.8445Y-3.3701
X3.8445Y-3.4331
X3.8484Y-2.937
X3.8484Y-3.0512
X3.8976Y-3.185
X3.9173Y-4.8307
X3.9232Y-3.0138
X3.9764Y-3.5787
X4.0138Y-5.8076
X4.0157Y-5.9488
X4.0492Y-5.6973
X4.0512Y-3.5354
X4.0531Y-4.5256
X4.0591Y-2.7795
X4.0748Y-4.3583
X4.1142Y-5.0276
X4.1339Y-5.8189
X4.1339Y-5.9508
X4.1339Y-6.189
X4.1457Y-3.4291
X4.1535Y-4.5748
X4.1929Y-5.8189
X4.1929Y-5.9508
X4.2008Y-2.7795
X4.2028Y-5.5039
X4.2126Y-5.1063
X4.2323Y-2.8543
X4.2323Y-3.1929
X4.2323Y-4.3583
X4.248Y-3.7047
X4.252Y-5.8189
X4.252Y-5.9508
X4.2756Y-3.689
X4.2953Y-3.6693
X4.311Y-3.6496
X4.311Y-5.185
X4.311Y-5.8189
X4.311Y-5.9508
X4.3287Y-5.4021
X4.3504Y-4.6732
X4.3524Y-5.7879
X4.3583Y-3.8937
X4.3898Y-4.5551
X4.4783Y-5.6619
X4.4803Y-3.7953
X4.4823Y-5.2603
X4.4921Y-3.1811
X4.5217Y-3.187
X4.5236Y-5.6181
X4.5276Y-3.2165
X4.5354Y-3.1378
X4.5394Y-3.748
X4.5413Y-3.1674
X4.561Y-5.5832
X4.5748Y-3.1614
X4.5748Y-3.685
X4.5846Y-5.1619
X4.5866Y-3.2953
X4.5945Y-3.6654
X4.6088Y-3.1678
X4.6102Y-6.1969
X4.6142Y-3.1969
X4.6181Y-2.8504
X4.622Y-3.1181
X4.6284Y-3.1482
X4.6289Y-6.0266
X4.6299Y-5.7874
X4.6575Y-3.1535
X4.689Y-5.4528
X4.6969Y-2.7795
X4.6969Y-6.1914
X4.7047Y-6.0276
X4.7618Y-2.8583
X4.7913Y-4.9528
X4.813Y-5.3351
X4.9055Y-3.5039
X4.9075Y-3.1024
X4.9094Y-3.1514
X4.9114Y-3.0512
X4.9213Y-2.8543
X4.9272Y-3.1299
X4.9291Y-5.622
X4.9311Y-5.7603
X4.9547Y-3.1299
X4.9646Y-5.185
X4.9705Y-3.0512
X4.9705Y-3.1024
X4.9705Y-3.1575
X4.9862Y-3.0787
X5.0Y-5.815
X5.0Y-5.9488
X5.0138Y-3.0787
X5.0295Y-3.0512
X5.0295Y-3.1043
X5.0295Y-3.1575
X5.0394Y-5.5039
X5.0453Y-3.1299
X5.0472Y-4.685
X5.0728Y-3.1299
X5.0787Y-2.7756
X5.0886Y-3.0512
X5.0886Y-3.1024
X5.0886Y-3.9449
X5.1043Y-3.0787
X5.1043Y-3.1339
X5.1102Y-5.0433
X5.1181Y-5.8169
X5.1181Y-5.9469
X5.1181Y-6.1732
X5.1319Y-3.0787
X5.1476Y-3.0512
X5.1614Y-3.0984
X5.1772Y-5.8169
X5.1772Y-5.9488
X5.1791Y-2.8543
X5.2067Y-3.0512
X5.2283Y-5.3189
X5.2323Y-3.0689
X5.2323Y-3.0965
X5.2362Y-5.8169
X5.2362Y-5.9469
X5.2657Y-3.0512
X5.2756Y-3.5039
X5.2913Y-4.8701
X5.2953Y-5.8169
X5.2953Y-5.9469
X5.2972Y-2.9055
X5.3327Y-5.654
X5.3425Y-2.7795
X5.3465Y-3.0138
X5.3898Y-4.626
X5.4094Y-5.1339
X5.4508Y-5.5399
X5.4961Y-5.9764
X5.4961Y-6.1063
X5.5079Y-4.8661
X5.5354Y-2.7874
X5.5669Y-4.3858
X5.5866Y-4.9567
X5.6122Y-5.5384
X5.6142Y-3.5
X5.6496Y-4.7205
X5.6949Y-5.2997
X5.7421Y-5.4104
X5.7441Y-4.8031
X5.7913Y-4.5748
X5.8327Y-5.158
X5.8937Y-3.5236
X5.9016Y-3.3386
X5.9134Y-5.2402
X5.9252Y-3.5276
X5.9449Y-4.4291
X5.9488Y-4.6063
X5.9882Y-3.528
X6.0197Y-4.9685
X6.0197Y-5.3898
X6.0197Y-5.4764
X6.0354Y-5.1575
X6.0512Y-3.5236
X6.1063Y-5.4134
X6.1516Y-6.1791
X6.1614Y-5.4134
X6.1614Y-5.7657
X6.1772Y-3.6575
X6.1949Y-3.6319
X6.2047Y-4.5394
X6.2047Y-4.7756
X6.2126Y-3.6575
X6.2283Y-3.6319
X6.2441Y-3.6575
X6.2559Y-5.4764
X6.2586Y-5.3934
X6.2598Y-3.6339
X6.2638Y-5.1535
X6.2661Y-2.9703
X6.2756Y-3.6575
X6.3071Y-2.7874
X6.3386Y-3.3583
X6.3661Y-3.3819
X6.3937Y-3.4961
X6.4252Y-3.5945
X6.4252Y-3.689
X6.4291Y-3.4016
X6.4291Y-4.0681
X6.4821Y-3.8707
X6.4843Y-3.3579
X6.4843Y-3.4528
X6.4843Y-3.5472
X6.4843Y-3.6417
X6.4843Y-3.7362
X6.4843Y-3.8311
X6.4843Y-3.9252
X6.4843Y-3.9764
X6.4882Y-3.7795
X6.4903Y-3.679
X6.4941Y-4.0207
X6.5079Y-3.6575
X6.5117Y-3.7324
X6.5118Y-3.8071
X6.513Y-3.7689
X6.5236Y-3.4016
X6.5354Y-3.9803
X6.5419Y-3.7354
X6.5472Y-3.8701
X6.5472Y-4.0197
X6.5512Y-3.5
X6.5512Y-3.5945
X6.5512Y-3.8307
X6.5512Y-3.9252
X6.5512Y-4.0657
X6.5513Y-3.6887
X6.5527Y-3.4061
X6.5748Y-5.1575
X6.5787Y-6.1752
X6.6024Y-5.0157
X6.6063Y-3.3579
X6.6063Y-3.4531
X6.6063Y-3.5476
X6.6063Y-3.6421
X6.6081Y-3.935
X6.6081Y-3.9627
X6.6142Y-4.0276
X6.6142Y-4.8937
X6.6142Y-4.9685
X6.6339Y-3.9685
X6.6357Y-4.9192
X6.6357Y-4.9469
X6.6378Y-3.937
X6.6382Y-5.0175
X6.6535Y-4.9685
X6.6575Y-3.9843
X6.6575Y-4.0098
X6.6575Y-4.8937
X6.6575Y-5.0709
X6.6577Y-5.0371
X6.6581Y-3.8877
X6.6581Y-3.9154
X6.6654Y-4.811
X6.6693Y-3.9409
X6.6732Y-2.7894
X6.6732Y-3.8622
X6.6772Y-2.9198
X6.689Y-3.9016
X6.689Y-3.9803
X6.689Y-4.0079
X6.689Y-5.0433
X6.6929Y-6.2087
X6.6949Y-3.061
X6.6949Y-4.8091
X6.6969Y-4.7756
X6.7008Y-5.4331
X6.7015Y-3.8169
X6.7015Y-3.8445
X6.7145Y-4.8287
X6.7205Y-4.8583
X6.7244Y-3.7992
X6.7283Y-3.8622
X6.7283Y-4.7323
X6.7323Y-3.0598
X6.7362Y-4.6378
X6.7441Y-4.5591
X6.7441Y-4.8346
X6.752Y-3.7539
X6.752Y-3.7816
X6.7559Y-5.6181
X6.7579Y-4.7381
X6.7638Y-3.7323
X6.7638Y-4.7677
X6.7658Y-4.6436
X6.7717Y-4.6732
X6.7737Y-4.5649
X6.7756Y-3.7992
X6.7775Y-4.7186
X6.7795Y-4.5945
X6.7815Y-3.0571
X6.7854Y-4.6241
X6.7932Y-4.5453
X6.7953Y-4.5197
X6.8071Y-4.7205
X6.815Y-3.0551
X6.815Y-3.5551
X6.8228Y-4.5472
X6.8346Y-3.8425
X6.8445Y-3.0531
X6.8583Y-3.8307
X6.8661Y-3.5098
X6.8661Y-3.5374
X6.874Y-3.0551
X6.874Y-5.2598
X6.874Y-5.437
X6.874Y-5.5197
X6.874Y-5.6181
X6.8957Y-3.5413
X6.8976Y-3.0551
X6.8996Y-3.5098
X6.9173Y-4.5591
X6.9213Y-4.8268
X6.9291Y-3.4665
X6.9291Y-3.4941
X6.9291Y-4.4843
X6.9449Y-5.1969
X6.9488Y-3.3209
X6.9488Y-3.3484
X6.9488Y-4.5906
X6.9567Y-3.4587
X6.9567Y-4.5118
X6.9626Y-3.5
X6.9646Y-4.4488
X6.9685Y-5.5689
X6.9783Y-3.311
X6.9803Y-3.3445
X6.9823Y-3.4154
X6.9823Y-3.4429
X6.9882Y-4.4213
X7.0Y-4.4961
X7.0059Y-3.3484
X7.0118Y-3.4193
X7.0118Y-3.4469
X7.0236Y-4.4567
X7.0276Y-3.1181
X7.0315Y-4.378
X7.0413Y-2.7874
X7.0413Y-2.8425
X7.0413Y-2.8976
X7.0413Y-2.9606
X7.0472Y-3.3681
X7.0472Y-3.3957
X7.0472Y-5.0787
X7.0551Y-3.1181
X7.0591Y-3.4272
X7.061Y-3.313
X7.0669Y-4.4134
X7.0787Y-4.3307
X7.0827Y-3.1181
X7.0827Y-3.3268
X7.0866Y-5.5787
X7.0866Y-6.2185
X7.0945Y-3.6339
X7.0984Y-4.6496
X7.1024Y-3.3425
X7.1063Y-4.3661
X7.1162Y-4.3385
X7.126Y-4.2835
X7.1357Y-4.319
X7.1417Y-4.2638
X7.1457Y-5.4311
X7.1535Y-4.9685
X7.1535Y-5.0472
X7.1654Y-4.9901
X7.1654Y-5.0178
X7.185Y-5.0433
X7.1929Y-5.0079
X7.2008Y-5.5276
X7.2087Y-4.5394
X7.2205Y-3.311
X7.2323Y-3.0118
X7.2338Y-5.5369
X7.2402Y-5.5669
X7.248Y-3.3071
X7.248Y-5.4882
X7.2534Y-5.5173
X7.2835Y-3.311
X7.2835Y-5.5236
X7.2874Y-3.0669
X7.2913Y-4.8386
X7.3118Y-3.6378
X7.315Y-3.063
X7.3189Y-3.3071
X7.3228Y-3.0118
X7.3228Y-5.313
X7.3346Y-3.6378
X7.3425Y-3.0866
X7.3524Y-5.0079
X7.3622Y-4.1575
X7.3622Y-4.4055
X7.3622Y-6.0039
X7.378Y-3.5512
X7.3858Y-3.0906
X7.3898Y-5.9843
X7.3976Y-4.7323
X7.4055Y-5.9646
X7.4094Y-3.1134
X7.4094Y-3.7165
X7.4134Y-3.3189
X7.4134Y-5.7441
X7.4193Y-3.0118
X7.4213Y-5.4921
X7.4252Y-5.9843
X7.4449Y-3.3425
X7.4567Y-5.4921
X7.4606Y-5.7441
X7.4764Y-3.6181
X7.4803Y-3.2992
X7.4803Y-4.1614
X7.4843Y-4.2677
X7.4921Y-3.4488
X7.4921Y-5.4921
X7.4921Y-6.1201
X7.4961Y-5.7441
X7.5Y-4.2205
X7.5Y-4.6417
X7.5079Y-3.6142
X7.5098Y-3.0118
X7.5177Y-3.2972
X7.5197Y-5.1417
X7.5197Y-5.2323
X7.5256Y-3.9862
X7.5276Y-4.6417
X7.5394Y-3.6142
X7.5394Y-4.1811
X7.5472Y-3.7913
X7.5669Y-4.8976
X7.5827Y-3.7913
X7.5866Y-3.7488
X7.5866Y-5.9882
X7.5925Y-3.0118
X7.5984Y-5.1417
X7.6063Y-5.9685
X7.6142Y-4.1614
X7.6142Y-5.9921
X7.624Y-3.189
X7.624Y-3.2323
X7.624Y-3.2756
X7.6299Y-3.7346
X7.6339Y-3.937
X7.6457Y-4.1614
X7.6594Y-3.2047
X7.6594Y-3.252
X7.6654Y-3.3976
X7.6654Y-3.9409
X7.6693Y-3.7346
X7.6693Y-3.8304
X7.689Y-5.2047
X7.6919Y-5.2323
X7.6929Y-5.1339
X7.6949Y-3.0118
X7.6969Y-3.3976
X7.6969Y-3.9449
X7.6969Y-5.9823
X7.6987Y-3.8821
X7.6992Y-3.6714
X7.7021Y-3.736
X7.7106Y-2.9764
X7.7146Y-2.7835
X7.7205Y-4.0433
X7.7244Y-4.4213
X7.7283Y-3.3976
X7.7289Y-3.8791
X7.7323Y-3.7244
X7.7323Y-3.7992
X7.7362Y-3.9608
X7.7382Y-3.4606
X7.7402Y-4.0236
X7.7441Y-4.8858
X7.7461Y-6.002
X7.7566Y-3.8769
X7.7598Y-3.4252
X7.7598Y-3.7205
X7.7598Y-3.7992
X7.7598Y-3.9449
X7.7616Y-3.6417
X7.7677Y-5.1299
X7.7677Y-5.1575
X7.7722Y-4.1257
X7.7992Y-5.1614
X7.8189Y-3.3577
X7.8189Y-3.548
X7.8189Y-3.6102
X7.8189Y-4.0669
X7.8209Y-4.0197
X7.8221Y-3.8778
X7.8228Y-3.7205
X7.8228Y-3.7992
X7.8239Y-3.9648
X7.8248Y-3.4606
X7.8268Y-3.6907
X7.8386Y-3.8583
X7.8465Y-3.9921
X7.8504Y-3.7953
X7.8504Y-3.9256
X7.8543Y-5.2835
X7.8543Y-5.6673
X7.8661Y-3.8701
X7.8768Y-3.7446
X7.878Y-3.7079
X7.8819Y-3.7835
X7.8819Y-3.9764
X7.8819Y-4.0118
X7.8841Y-3.6803
X7.8858Y-3.563
X7.8858Y-3.6535
X7.8868Y-3.6077
X7.8898Y-3.374
X7.8957Y-3.3248
X7.9035Y-4.1339
X7.9311Y-4.185
X7.9331Y-3.315
X7.9331Y-5.0768
X7.9407Y-4.0669
X7.9409Y-4.4173
X7.9409Y-4.8819
X7.9417Y-3.9394
X7.9439Y-3.8976
X7.9439Y-3.7244
X7.9449Y-3.7598
X7.9449Y-3.8701
X7.9449Y-4.6417
X7.9459Y-3.7855
X7.9488Y-3.374
X7.9488Y-3.815
X7.9528Y-3.8425
X7.9528Y-3.9606
X7.9585Y-3.3425
X7.9677Y-3.7407
X7.9685Y-3.9843
X7.9717Y-4.0118
X7.9764Y-3.8228
X7.9843Y-3.8937
X8.0Y-2.9724
X8.0039Y-3.8228
X8.0118Y-5.3031
X8.0315Y-3.5039
X8.0335Y-3.4685
X8.0512Y-4.8898
X8.065Y-3.4606
X8.0669Y-3.1496
X8.0669Y-3.5
X8.1102Y-4.0039
X8.1398Y-3.9646
X8.1496Y-3.187
X8.1693Y-3.9252
X8.2047Y-3.7008
X8.2087Y-2.9803
X8.2087Y-4.1614
X8.2087Y-4.6437
X8.2244Y-3.1929
X8.2244Y-3.2244
X8.2283Y-3.2638
X8.2283Y-4.0433
X8.2283Y-4.1024
X8.311Y-3.4646
X8.3661Y-2.8425
X8.3957Y-4.2008
X8.4055Y-3.9941
X8.4843Y-3.561
X8.5047Y-3.5329
X8.5047Y-3.5891
X8.5138Y-3.561
X8.5377Y-3.5437
X8.5377Y-3.5784
X8.5531Y-3.7972
X8.622Y-3.1083
X8.6417Y-5.7165
X8.6614Y-2.9114
X8.6811Y-5.9528
X8.7008Y-3.5315
X8.7795Y-5.4016
X8.805Y-2.8138
X8.814Y-2.8474
X8.8296Y-2.7892
X8.8386Y-2.8228
X8.8386Y-3.1181
X8.8476Y-2.8564
X8.8632Y-2.7982
X8.8722Y-2.8318
X8.878Y-3.6988
X8.937Y-3.4528
X8.9961Y-3.6791
X8.9961Y-5.6083
X9.0354Y-5.9331
X9.0551Y-5.7854
X9.1043Y-4.7421
X9.1142Y-3.9941
X9.1535Y-4.4173
X9.2337Y-4.1818
X9.2421Y-2.9311
X9.2445Y-4.2148
X9.2618Y-4.1614
X9.2618Y-4.1909
X9.2792Y-4.2148
X9.2899Y-4.1818
X9.3012Y-5.6673
X9.311Y-5.7953
X9.3504Y-4.9094
X9.3996Y-3.1969
X9.4488Y-5.2047
X9.4587Y-2.9803
X9.4685Y-3.0591
X9.4685Y-3.2461
X9.4685Y-5.0472
X9.4685Y-5.5787
X9.4685Y-5.7756
X9.4783Y-3.5413
X9.4783Y-3.7776
X9.5079Y-4.8701
X9.5276Y-4.1811
X9.5374Y-5.8445
X9.6063Y-4.5748
X9.626Y-3.9941
X9.6949Y-5.0571
X9.813Y-3.187
X9.8327Y-5.1358
X9.8917Y-5.8248
X10.128Y-5.6378
X10.1575Y-3.1772
X10.3839Y-5.6378
X10.4823Y-5.1358
X10.4921Y-4.25
X10.6004Y-3.5118
X10.6201Y-2.9311
T3
X6.752Y-5.687
X6.752Y-5.813
X6.7717Y-5.7461
X6.7717Y-5.872
X6.8307Y-5.685
X6.8307Y-5.811
X6.8701Y-5.7461
X6.8701Y-5.872
X6.9094Y-5.687
X6.9094Y-5.813
X6.9488Y-5.7461
X6.9488Y-5.872
X6.9882Y-5.687
X6.9882Y-5.813
X7.0472Y-5.7461
X7.0472Y-5.872
X7.0669Y-5.687
X7.0669Y-5.813
T4
X5.9364Y-5.5634
X5.9364Y-5.7626
X5.9864Y-5.6634
X6.0364Y-5.5634
X6.0364Y-5.8126
X6.0864Y-5.6634
X6.1364Y-5.5634
X6.1864Y-5.6634
X6.2364Y-5.5634
X6.2864Y-5.6634
X6.2864Y-5.8126
X6.3364Y-5.5634
X6.3864Y-5.6634
X6.3864Y-5.7626
T5
X8.0328Y-5.6074
X8.0328Y-5.6862
X8.0328Y-5.7649
X8.0328Y-5.8436
T6
X4.3209Y-2.8583
X4.498Y-2.8583
T7
X3.5776Y-4.1705
X3.5776Y-4.2705
X3.6776Y-4.1705
X3.6776Y-4.2705
X3.7776Y-4.1705
X3.7776Y-4.2705
X3.8776Y-4.1705
X3.8776Y-4.2705
X3.9776Y-4.1705
X3.9776Y-4.2705
X4.0776Y-4.1705
X4.0776Y-4.2705
X4.1776Y-4.1705
X4.1776Y-4.2705
X4.2776Y-4.1705
X4.2776Y-4.2705
X4.3776Y-4.1705
X4.3776Y-4.2705
X4.4776Y-4.1705
X4.4776Y-4.2705
X4.5776Y-4.1705
X4.5776Y-4.2705
X4.6776Y-4.1705
X4.6776Y-4.2705
X4.7776Y-4.1705
X4.7776Y-4.2705
X4.8776Y-4.1705
X4.8776Y-4.2705
X4.878Y-3.9512
X4.878Y-4.0512
X4.9776Y-4.1705
X4.9776Y-4.2705
X4.978Y-3.9512
X4.978Y-4.0512
X5.0776Y-4.1705
X5.0776Y-4.2705
X5.1776Y-4.1705
X5.1776Y-4.2705
X5.2776Y-4.1705
X5.2776Y-4.2705
X5.3776Y-4.1705
X5.3776Y-4.2705
X5.4776Y-4.1705
X5.4776Y-4.2705
X5.6102Y-2.8213
X5.6102Y-2.9213
X5.6193Y-5.8634
X5.6193Y-5.9634
X5.7102Y-2.8213
X5.7102Y-2.9213
X5.7193Y-5.8634
X5.7193Y-5.9634
X5.8102Y-2.8213
X5.8102Y-2.9213
X5.9102Y-2.8213
X5.9102Y-2.9213
X6.0102Y-2.8213
X6.0102Y-2.9213
X6.1102Y-2.8213
X6.1102Y-2.9213
X6.2102Y-2.8213
X6.2102Y-2.9213
X8.1071Y-2.8425
X8.2071Y-2.8425
X8.3071Y-2.8425
X9.3291Y-4.5748
X9.4291Y-4.5748
T8
X3.563Y-4.5945
X3.563Y-5.0079
X3.563Y-5.4016
X3.563Y-5.8346
X3.6811Y-4.5945
X3.6811Y-5.0079
X3.6811Y-5.4016
X3.6811Y-5.8346
X5.9004Y-6.0732
X6.0004Y-6.0732
X6.3224Y-6.0732
X6.4224Y-6.0732
X8.937Y-6.1004
X9.0551Y-6.1004
X9.1732Y-6.1004
X10.2433Y-5.7224
X10.2433Y-5.8406
X10.2433Y-5.9587
X10.3614Y-5.7224
X10.3614Y-5.8406
X10.3614Y-5.9587
T9
X4.2717Y-2.9563
X4.5476Y-2.9563
T10
X7.9245Y-5.8732
X8.1411Y-5.8732
T11
X5.8514Y-5.7933
X6.4715Y-5.7933
T12
X9.7441Y-3.3563
X9.7441Y-3.5728
X9.9593Y-4.0319
X9.9593Y-4.1972
X9.9593Y-4.3626
X9.9593Y-4.528
X9.9593Y-4.8839
X9.9593Y-5.0492
X9.9593Y-5.2146
X9.9593Y-5.3799
X10.1758Y-4.0319
X10.1758Y-4.1972
X10.1758Y-4.3626
X10.1758Y-4.528
X10.1758Y-4.8839
X10.1758Y-5.0492
X10.1758Y-5.2146
X10.1758Y-5.3799
T13
X10.2087Y-3.3624
X10.4331Y-3.3624
T14
X6.6508Y-5.7272
X6.6508Y-5.9508
X7.1681Y-5.7272
X7.1681Y-5.9508
T15
X3.3929Y-4.5098
X3.3929Y-4.6791
X3.3929Y-4.9232
X3.3929Y-5.0925
X3.3929Y-5.3169
X3.3929Y-5.4862
X3.3929Y-5.75
X3.3929Y-5.9193
X10.5315Y-5.6378
X10.5315Y-6.0433
T2
G00X7.3299Y-6.0461
M15
G01X7.3299Y-6.0894
M16
G05
G00X7.3299Y-6.2165
M15
G01X7.3299Y-6.248
M16
G05
G00X7.6701Y-6.0461
M15
G01X7.6701Y-6.0894
M16
G05
G00X7.6701Y-6.2165
M15
G01X7.6701Y-6.248
M16
G05
T4
G00X3.8681Y-5.876
M15
G01X3.8681Y-5.9469
M16
G05
G00X3.8681Y-6.1303
M15
G01X3.8681Y-6.1618
M16
G05
G00X4.439Y-5.876
M15
G01X4.439Y-5.9469
M16
G05
G00X4.439Y-6.1303
M15
G01X4.439Y-6.1618
M16
G05
G00X4.8524Y-5.876
M15
G01X4.8524Y-5.9469
M16
G05
G00X4.8524Y-6.1303
M15
G01X4.8524Y-6.1618
M16
G05
G00X5.4232Y-5.876
M15
G01X5.4232Y-5.9469
M16
G05
G00X5.4232Y-6.1303
M15
G01X5.4232Y-6.1618
M16
G05
M30
