%TF.GenerationSoftware,KiCad,Pcbnew,9.0.6*%
%TF.CreationDate,2026-05-20T03:56:18+01:00*%
%TF.ProjectId,CM5IO,434d3549-4f2e-46b6-9963-61645f706362,rev?*%
%TF.SameCoordinates,Original*%
%TF.FileFunction,Soldermask,Bot*%
%TF.FilePolarity,Negative*%
%FSLAX46Y46*%
G04 Gerber Fmt 4.6, Leading zero omitted, Abs format (unit mm)*
G04 Created by KiCad (PCBNEW 9.0.6) date 2026-05-20 03:56:18*
%MOMM*%
%LPD*%
G01*
G04 APERTURE LIST*
G04 Aperture macros list*
%AMRoundRect*
0 Rectangle with rounded corners*
0 $1 Rounding radius*
0 $2 $3 $4 $5 $6 $7 $8 $9 X,Y pos of 4 corners*
0 Add a 4 corners polygon primitive as box body*
4,1,4,$2,$3,$4,$5,$6,$7,$8,$9,$2,$3,0*
0 Add four circle primitives for the rounded corners*
1,1,$1+$1,$2,$3*
1,1,$1+$1,$4,$5*
1,1,$1+$1,$6,$7*
1,1,$1+$1,$8,$9*
0 Add four rect primitives between the rounded corners*
20,1,$1+$1,$2,$3,$4,$5,0*
20,1,$1+$1,$4,$5,$6,$7,0*
20,1,$1+$1,$6,$7,$8,$9,0*
20,1,$1+$1,$8,$9,$2,$3,0*%
G04 Aperture macros list end*
%ADD10R,1.700000X1.700000*%
%ADD11O,1.700000X1.700000*%
%ADD12C,0.650000*%
%ADD13O,1.000000X2.100000*%
%ADD14O,1.000000X1.800000*%
%ADD15C,3.200000*%
%ADD16RoundRect,0.250500X-0.499500X-0.499500X0.499500X-0.499500X0.499500X0.499500X-0.499500X0.499500X0*%
%ADD17C,1.500000*%
%ADD18C,2.500000*%
%ADD19O,1.500000X3.300000*%
%ADD20O,1.500000X2.300000*%
%ADD21C,5.300000*%
%ADD22RoundRect,0.250001X0.499999X-0.499999X0.499999X0.499999X-0.499999X0.499999X-0.499999X-0.499999X0*%
%ADD23C,3.410000*%
%ADD24RoundRect,0.250001X-0.499999X0.499999X-0.499999X-0.499999X0.499999X-0.499999X0.499999X0.499999X0*%
%ADD25C,3.000000*%
%ADD26RoundRect,0.250001X-1.599999X1.099999X-1.599999X-1.099999X1.599999X-1.099999X1.599999X1.099999X0*%
%ADD27O,3.700000X2.700000*%
%ADD28C,3.100000*%
%ADD29C,1.100000*%
%ADD30RoundRect,0.250002X-1.599998X-1.599998X1.599998X-1.599998X1.599998X1.599998X-1.599998X1.599998X0*%
%ADD31C,3.700000*%
%ADD32C,1.346200*%
%ADD33C,1.422400*%
%ADD34C,2.100000*%
%ADD35C,1.750000*%
%ADD36C,2.362200*%
%ADD37C,1.270000*%
%ADD38RoundRect,0.250001X-0.499999X-0.759999X0.499999X-0.759999X0.499999X0.759999X-0.499999X0.759999X0*%
%ADD39O,1.500000X2.020000*%
%ADD40C,1.700000*%
%ADD41C,6.100000*%
%ADD42R,2.000000X2.000000*%
G04 APERTURE END LIST*
D10*
%TO.C,J11*%
X90870000Y-108470000D03*
D11*
X90870000Y-105930000D03*
X93410000Y-108470000D03*
X93410000Y-105930000D03*
X95950000Y-108470000D03*
X95950000Y-105930000D03*
X98490000Y-108470000D03*
X98490000Y-105930000D03*
X101030000Y-108470000D03*
X101030000Y-105930000D03*
X103570000Y-108470000D03*
X103570000Y-105930000D03*
X106110000Y-108470000D03*
X106110000Y-105930000D03*
X108650000Y-108470000D03*
X108650000Y-105930000D03*
X111190000Y-108470000D03*
X111190000Y-105930000D03*
X113730000Y-108470000D03*
X113730000Y-105930000D03*
X116270000Y-108470000D03*
X116270000Y-105930000D03*
X118810000Y-108470000D03*
X118810000Y-105930000D03*
X121350000Y-108470000D03*
X121350000Y-105930000D03*
X123890000Y-108470000D03*
X123890000Y-105930000D03*
X126430000Y-108470000D03*
X126430000Y-105930000D03*
X128970000Y-108470000D03*
X128970000Y-105930000D03*
X131510000Y-108470000D03*
X131510000Y-105930000D03*
X134050000Y-108470000D03*
X134050000Y-105930000D03*
X136590000Y-108470000D03*
X136590000Y-105930000D03*
X139130000Y-108470000D03*
X139130000Y-105930000D03*
%TD*%
D10*
%TO.C,J13*%
X145270000Y-151470000D03*
D11*
X142730000Y-151470000D03*
X145270000Y-148930000D03*
X142730000Y-148930000D03*
%TD*%
D12*
%TO.C,J1*%
X187610000Y-154620000D03*
X193390000Y-154620000D03*
D13*
X186180000Y-154120000D03*
D14*
X186180000Y-158300000D03*
D13*
X194820000Y-154120000D03*
D14*
X194820000Y-158300000D03*
%TD*%
D15*
%TO.C,U5*%
X150785000Y-150200000D03*
X162215000Y-150200000D03*
D16*
X150785000Y-141310000D03*
D17*
X152055000Y-143850000D03*
X153325000Y-141310000D03*
X154595000Y-143850000D03*
X155865000Y-141310000D03*
X157135000Y-143850000D03*
X158405000Y-141310000D03*
X159675000Y-143850000D03*
X160945000Y-141310000D03*
X162215000Y-143850000D03*
X150785000Y-146370000D03*
X153325000Y-147640000D03*
X159675000Y-147640000D03*
X162215000Y-146370000D03*
X149870000Y-154260000D03*
X152410000Y-154260000D03*
X160590000Y-154260000D03*
X163130000Y-154260000D03*
D18*
X148625000Y-147150000D03*
X164375000Y-147150000D03*
%TD*%
D19*
%TO.C,J7*%
X137750000Y-150150000D03*
X123250000Y-150150000D03*
D20*
X123250000Y-156110000D03*
X137750000Y-156110000D03*
%TD*%
D19*
%TO.C,J6*%
X112750000Y-150150000D03*
X98250000Y-150150000D03*
D20*
X98250000Y-156110000D03*
X112750000Y-156110000D03*
%TD*%
D21*
%TO.C,H2*%
X88250000Y-156200000D03*
%TD*%
%TO.C,H3*%
X86000000Y-107200000D03*
%TD*%
%TO.C,H4*%
X144000000Y-156700000D03*
%TD*%
%TO.C,H5*%
X143750000Y-106950000D03*
%TD*%
%TO.C,H6*%
X215500000Y-155200000D03*
%TD*%
%TO.C,H7*%
X93500000Y-82700000D03*
%TD*%
D10*
%TO.C,J4*%
X123900000Y-102900000D03*
D11*
X123900000Y-100360000D03*
X126440000Y-102900000D03*
X126440000Y-100360000D03*
%TD*%
D10*
%TO.C,J8*%
X142500000Y-74200000D03*
D11*
X142500000Y-71660000D03*
X145040000Y-74200000D03*
X145040000Y-71660000D03*
X147580000Y-74200000D03*
X147580000Y-71660000D03*
X150120000Y-74200000D03*
X150120000Y-71660000D03*
X152660000Y-74200000D03*
X152660000Y-71660000D03*
X155200000Y-74200000D03*
X155200000Y-71660000D03*
X157740000Y-74200000D03*
X157740000Y-71660000D03*
%TD*%
D10*
%TO.C,J10*%
X211000000Y-72200000D03*
D11*
X208460000Y-72200000D03*
X205920000Y-72200000D03*
%TD*%
D22*
%TO.C,J16*%
X90500000Y-127200000D03*
D17*
X93500000Y-127200000D03*
D23*
X86180000Y-129350000D03*
X86180000Y-125050000D03*
%TD*%
D24*
%TO.C,J14*%
X263180000Y-145350000D03*
D17*
X263180000Y-148350000D03*
X263180000Y-151350000D03*
X260180000Y-145350000D03*
X260180000Y-148350000D03*
X260180000Y-151350000D03*
D23*
X267500000Y-143200000D03*
X267500000Y-153500000D03*
%TD*%
D22*
%TO.C,J17*%
X90500000Y-148200000D03*
D17*
X93500000Y-148200000D03*
D23*
X86180000Y-150350000D03*
X86180000Y-146050000D03*
%TD*%
D25*
%TO.C,SPI_2*%
X265765000Y-124050000D03*
X265765000Y-136650000D03*
D26*
X258465000Y-124050000D03*
D27*
X258465000Y-128250000D03*
X258465000Y-132450000D03*
X258465000Y-136650000D03*
X252965000Y-124050000D03*
X252965000Y-128250000D03*
X252965000Y-132450000D03*
X252965000Y-136650000D03*
%TD*%
D28*
%TO.C,J5*%
X168930000Y-145470000D03*
X168930000Y-151150000D03*
X182070000Y-145470000D03*
X182070000Y-151150000D03*
D29*
X172000000Y-149150000D03*
X174500000Y-149150000D03*
X176500000Y-149150000D03*
X179000000Y-149150000D03*
X179500000Y-147650000D03*
X177500000Y-147650000D03*
X175500000Y-147650000D03*
X173500000Y-147600000D03*
X171500000Y-147650000D03*
X172000000Y-145950000D03*
X174500000Y-145950000D03*
X176500000Y-145950000D03*
X179000000Y-145950000D03*
X179500000Y-144450000D03*
X177500000Y-144450000D03*
X175500000Y-144450000D03*
X173500000Y-144400000D03*
X171500000Y-144450000D03*
%TD*%
D22*
%TO.C,J15*%
X90500000Y-116700000D03*
D17*
X93500000Y-116700000D03*
D23*
X86180000Y-118850000D03*
X86180000Y-114550000D03*
%TD*%
D25*
%TO.C,J24*%
X247500000Y-77950000D03*
D30*
X247500000Y-85250000D03*
D31*
X247500000Y-90750000D03*
%TD*%
D21*
%TO.C,H8*%
X268500000Y-95200000D03*
%TD*%
D32*
%TO.C,J20*%
X201298402Y-142158299D03*
X206768398Y-142158299D03*
D33*
X204033400Y-142428301D03*
X204033400Y-144428300D03*
X204033400Y-146428301D03*
X204033400Y-148428299D03*
D17*
X201283400Y-149178301D03*
X206783400Y-149178301D03*
%TD*%
D34*
%TO.C,SW1*%
X108500000Y-75090000D03*
X115510000Y-75090000D03*
D35*
X109750000Y-72600000D03*
X114250000Y-72600000D03*
%TD*%
D36*
%TO.C,J23*%
X259299996Y-85404099D03*
X265000000Y-85404099D03*
%TD*%
D37*
%TO.C,J12*%
X224000000Y-152990000D03*
X236000000Y-152990000D03*
D38*
X227000000Y-154950000D03*
D39*
X230000000Y-154950000D03*
X233000000Y-154950000D03*
%TD*%
D25*
%TO.C,SPI_1*%
X265765000Y-102410000D03*
X265765000Y-115010000D03*
D26*
X258465000Y-102410000D03*
D27*
X258465000Y-106610000D03*
X258465000Y-110810000D03*
X258465000Y-115010000D03*
X252965000Y-102410000D03*
X252965000Y-106610000D03*
X252965000Y-110810000D03*
X252965000Y-115010000D03*
%TD*%
D10*
%TO.C,5V_Fan1*%
X239500000Y-116200000D03*
D40*
X236960000Y-116200000D03*
%TD*%
D41*
%TO.C,Module1*%
X199000000Y-121200000D03*
X199000000Y-73200000D03*
X166000000Y-121200000D03*
X166000000Y-73200000D03*
%TD*%
D22*
%TO.C,J18*%
X90500000Y-137200000D03*
D17*
X93500000Y-137200000D03*
D23*
X86180000Y-139350000D03*
X86180000Y-135050000D03*
%TD*%
D21*
%TO.C,H1*%
X255000000Y-154950000D03*
%TD*%
D42*
%TO.C,TP3*%
X120000000Y-155950000D03*
%TD*%
%TO.C,TP1*%
X207500000Y-79450000D03*
%TD*%
%TO.C,TP4*%
X116250000Y-155950000D03*
%TD*%
M02*
