%TF.GenerationSoftware,KiCad,Pcbnew,9.0.6*%
%TF.CreationDate,2026-05-20T03:56:18+01:00*%
%TF.ProjectId,CM5IO,434d3549-4f2e-46b6-9963-61645f706362,rev?*%
%TF.SameCoordinates,Original*%
%TF.FileFunction,Paste,Top*%
%TF.FilePolarity,Positive*%
%FSLAX46Y46*%
G04 Gerber Fmt 4.6, Leading zero omitted, Abs format (unit mm)*
G04 Created by KiCad (PCBNEW 9.0.6) date 2026-05-20 03:56:18*
%MOMM*%
%LPD*%
G01*
G04 APERTURE LIST*
G04 Aperture macros list*
%AMRoundRect*
0 Rectangle with rounded corners*
0 $1 Rounding radius*
0 $2 $3 $4 $5 $6 $7 $8 $9 X,Y pos of 4 corners*
0 Add a 4 corners polygon primitive as box body*
4,1,4,$2,$3,$4,$5,$6,$7,$8,$9,$2,$3,0*
0 Add four circle primitives for the rounded corners*
1,1,$1+$1,$2,$3*
1,1,$1+$1,$4,$5*
1,1,$1+$1,$6,$7*
1,1,$1+$1,$8,$9*
0 Add four rect primitives between the rounded corners*
20,1,$1+$1,$2,$3,$4,$5,0*
20,1,$1+$1,$4,$5,$6,$7,0*
20,1,$1+$1,$6,$7,$8,$9,0*
20,1,$1+$1,$8,$9,$2,$3,0*%
G04 Aperture macros list end*
%ADD10R,0.700000X0.200000*%
%ADD11R,0.300000X1.300000*%
%ADD12R,1.800000X2.200000*%
%ADD13RoundRect,0.135000X-0.185000X0.135000X-0.185000X-0.135000X0.185000X-0.135000X0.185000X0.135000X0*%
%ADD14RoundRect,0.075000X0.075000X0.200000X-0.075000X0.200000X-0.075000X-0.200000X0.075000X-0.200000X0*%
%ADD15RoundRect,0.162500X0.162500X-0.837500X0.162500X0.837500X-0.162500X0.837500X-0.162500X-0.837500X0*%
%ADD16RoundRect,0.218750X0.218750X0.256250X-0.218750X0.256250X-0.218750X-0.256250X0.218750X-0.256250X0*%
%ADD17RoundRect,0.150000X-0.150000X-0.425000X0.150000X-0.425000X0.150000X0.425000X-0.150000X0.425000X0*%
%ADD18RoundRect,0.075000X-0.075000X-0.500000X0.075000X-0.500000X0.075000X0.500000X-0.075000X0.500000X0*%
%ADD19O,1.000000X2.100000*%
%ADD20O,1.000000X1.800000*%
%ADD21R,0.300000X2.600000*%
%ADD22RoundRect,0.135000X-0.135000X-0.185000X0.135000X-0.185000X0.135000X0.185000X-0.135000X0.185000X0*%
%ADD23RoundRect,0.135000X0.185000X-0.135000X0.185000X0.135000X-0.185000X0.135000X-0.185000X-0.135000X0*%
%ADD24RoundRect,0.135000X0.135000X0.185000X-0.135000X0.185000X-0.135000X-0.185000X0.135000X-0.185000X0*%
%ADD25RoundRect,0.200000X0.200000X0.275000X-0.200000X0.275000X-0.200000X-0.275000X0.200000X-0.275000X0*%
%ADD26RoundRect,0.250000X2.000000X-1.400000X2.000000X1.400000X-2.000000X1.400000X-2.000000X-1.400000X0*%
%ADD27RoundRect,0.250000X1.045000X-0.785000X1.045000X0.785000X-1.045000X0.785000X-1.045000X-0.785000X0*%
%ADD28RoundRect,0.140000X0.140000X0.170000X-0.140000X0.170000X-0.140000X-0.170000X0.140000X-0.170000X0*%
%ADD29RoundRect,0.250000X-0.350000X-0.450000X0.350000X-0.450000X0.350000X0.450000X-0.350000X0.450000X0*%
%ADD30RoundRect,0.140000X0.170000X-0.140000X0.170000X0.140000X-0.170000X0.140000X-0.170000X-0.140000X0*%
%ADD31RoundRect,0.200000X-0.200000X-0.275000X0.200000X-0.275000X0.200000X0.275000X-0.200000X0.275000X0*%
%ADD32RoundRect,0.225000X-0.375000X0.225000X-0.375000X-0.225000X0.375000X-0.225000X0.375000X0.225000X0*%
%ADD33RoundRect,0.150000X0.625000X-0.150000X0.625000X0.150000X-0.625000X0.150000X-0.625000X-0.150000X0*%
%ADD34RoundRect,0.250000X0.650000X-0.350000X0.650000X0.350000X-0.650000X0.350000X-0.650000X-0.350000X0*%
%ADD35RoundRect,0.140000X-0.140000X-0.170000X0.140000X-0.170000X0.140000X0.170000X-0.140000X0.170000X0*%
%ADD36RoundRect,0.250000X0.250000X0.475000X-0.250000X0.475000X-0.250000X-0.475000X0.250000X-0.475000X0*%
%ADD37RoundRect,0.225000X-0.250000X0.225000X-0.250000X-0.225000X0.250000X-0.225000X0.250000X0.225000X0*%
%ADD38RoundRect,0.250000X0.650000X-0.325000X0.650000X0.325000X-0.650000X0.325000X-0.650000X-0.325000X0*%
%ADD39RoundRect,0.225000X-0.225000X-0.250000X0.225000X-0.250000X0.225000X0.250000X-0.225000X0.250000X0*%
%ADD40RoundRect,0.150000X-0.150000X0.512500X-0.150000X-0.512500X0.150000X-0.512500X0.150000X0.512500X0*%
%ADD41RoundRect,0.225000X0.225000X0.250000X-0.225000X0.250000X-0.225000X-0.250000X0.225000X-0.250000X0*%
%ADD42RoundRect,0.250000X-0.250000X-0.475000X0.250000X-0.475000X0.250000X0.475000X-0.250000X0.475000X0*%
%ADD43RoundRect,0.200000X-0.275000X0.200000X-0.275000X-0.200000X0.275000X-0.200000X0.275000X0.200000X0*%
%ADD44R,1.525000X0.650000*%
%ADD45R,2.400000X3.100000*%
%ADD46RoundRect,0.250000X1.500000X0.550000X-1.500000X0.550000X-1.500000X-0.550000X1.500000X-0.550000X0*%
%ADD47R,3.600000X3.600000*%
G04 APERTURE END LIST*
D10*
%TO.C,J101*%
X197960000Y-84900000D03*
X201040000Y-84900000D03*
X197960000Y-85300000D03*
X201040000Y-85300000D03*
X197960000Y-85700000D03*
X201040000Y-85700000D03*
X197960000Y-86100000D03*
X201040000Y-86100000D03*
X197960000Y-86500000D03*
X201040000Y-86500000D03*
X197960000Y-86900000D03*
X201040000Y-86900000D03*
X197960000Y-87300000D03*
X201040000Y-87300000D03*
X197960000Y-87700000D03*
X201040000Y-87700000D03*
X197960000Y-88100000D03*
X201040000Y-88100000D03*
X197960000Y-88500000D03*
X201040000Y-88500000D03*
X197960000Y-88900000D03*
X201040000Y-88900000D03*
X197960000Y-89300000D03*
X201040000Y-89300000D03*
X197960000Y-89700000D03*
X201040000Y-89700000D03*
X197960000Y-90100000D03*
X201040000Y-90100000D03*
X197960000Y-90500000D03*
X201040000Y-90500000D03*
X197960000Y-90900000D03*
X201040000Y-90900000D03*
X197960000Y-91300000D03*
X201040000Y-91300000D03*
X197960000Y-91700000D03*
X201040000Y-91700000D03*
X197960000Y-92100000D03*
X201040000Y-92100000D03*
X197960000Y-92500000D03*
X201040000Y-92500000D03*
X197960000Y-92900000D03*
X201040000Y-92900000D03*
X197960000Y-93300000D03*
X201040000Y-93300000D03*
X197960000Y-93700000D03*
X201040000Y-93700000D03*
X197960000Y-94100000D03*
X201040000Y-94100000D03*
X197960000Y-94500000D03*
X201040000Y-94500000D03*
X197960000Y-94900000D03*
X201040000Y-94900000D03*
X197960000Y-95300000D03*
X201040000Y-95300000D03*
X197960000Y-95700000D03*
X201040000Y-95700000D03*
X197960000Y-96100000D03*
X201040000Y-96100000D03*
X197960000Y-96500000D03*
X201040000Y-96500000D03*
X197960000Y-96900000D03*
X201040000Y-96900000D03*
X197960000Y-97300000D03*
X201040000Y-97300000D03*
X197960000Y-97700000D03*
X201040000Y-97700000D03*
X197960000Y-98100000D03*
X201040000Y-98100000D03*
X197960000Y-98500000D03*
X201040000Y-98500000D03*
X197960000Y-98900000D03*
X201040000Y-98900000D03*
X197960000Y-99300000D03*
X201040000Y-99300000D03*
X197960000Y-99700000D03*
X201040000Y-99700000D03*
X197960000Y-100100000D03*
X201040000Y-100100000D03*
X197960000Y-100500000D03*
X201040000Y-100500000D03*
X197960000Y-100900000D03*
X201040000Y-100900000D03*
X197960000Y-101300000D03*
X201040000Y-101300000D03*
X197960000Y-101700000D03*
X201040000Y-101700000D03*
X197960000Y-102100000D03*
X201040000Y-102100000D03*
X197960000Y-102500000D03*
X201040000Y-102500000D03*
X197960000Y-102900000D03*
X201040000Y-102900000D03*
X197960000Y-103300000D03*
X201040000Y-103300000D03*
X197960000Y-103700000D03*
X201040000Y-103700000D03*
X197960000Y-104100000D03*
X201040000Y-104100000D03*
X197960000Y-104500000D03*
X201040000Y-104500000D03*
%TD*%
%TO.C,J100*%
X163960000Y-84900000D03*
X167040000Y-84900000D03*
X163960000Y-85300000D03*
X167040000Y-85300000D03*
X163960000Y-85700000D03*
X167040000Y-85700000D03*
X163960000Y-86100000D03*
X167040000Y-86100000D03*
X163960000Y-86500000D03*
X167040000Y-86500000D03*
X163960000Y-86900000D03*
X167040000Y-86900000D03*
X163960000Y-87300000D03*
X167040000Y-87300000D03*
X163960000Y-87700000D03*
X167040000Y-87700000D03*
X163960000Y-88100000D03*
X167040000Y-88100000D03*
X163960000Y-88500000D03*
X167040000Y-88500000D03*
X163960000Y-88900000D03*
X167040000Y-88900000D03*
X163960000Y-89300000D03*
X167040000Y-89300000D03*
X163960000Y-89700000D03*
X167040000Y-89700000D03*
X163960000Y-90100000D03*
X167040000Y-90100000D03*
X163960000Y-90500000D03*
X167040000Y-90500000D03*
X163960000Y-90900000D03*
X167040000Y-90900000D03*
X163960000Y-91300000D03*
X167040000Y-91300000D03*
X163960000Y-91700000D03*
X167040000Y-91700000D03*
X163960000Y-92100000D03*
X167040000Y-92100000D03*
X163960000Y-92500000D03*
X167040000Y-92500000D03*
X163960000Y-92900000D03*
X167040000Y-92900000D03*
X163960000Y-93300000D03*
X167040000Y-93300000D03*
X163960000Y-93700000D03*
X167040000Y-93700000D03*
X163960000Y-94100000D03*
X167040000Y-94100000D03*
X163960000Y-94500000D03*
X167040000Y-94500000D03*
X163960000Y-94900000D03*
X167040000Y-94900000D03*
X163960000Y-95300000D03*
X167040000Y-95300000D03*
X163960000Y-95700000D03*
X167040000Y-95700000D03*
X163960000Y-96100000D03*
X167040000Y-96100000D03*
X163960000Y-96500000D03*
X167040000Y-96500000D03*
X163960000Y-96900000D03*
X167040000Y-96900000D03*
X163960000Y-97300000D03*
X167040000Y-97300000D03*
X163960000Y-97700000D03*
X167040000Y-97700000D03*
X163960000Y-98100000D03*
X167040000Y-98100000D03*
X163960000Y-98500000D03*
X167040000Y-98500000D03*
X163960000Y-98900000D03*
X167040000Y-98900000D03*
X163960000Y-99300000D03*
X167040000Y-99300000D03*
X163960000Y-99700000D03*
X167040000Y-99700000D03*
X163960000Y-100100000D03*
X167040000Y-100100000D03*
X163960000Y-100500000D03*
X167040000Y-100500000D03*
X163960000Y-100900000D03*
X167040000Y-100900000D03*
X163960000Y-101300000D03*
X167040000Y-101300000D03*
X163960000Y-101700000D03*
X167040000Y-101700000D03*
X163960000Y-102100000D03*
X167040000Y-102100000D03*
X163960000Y-102500000D03*
X167040000Y-102500000D03*
X163960000Y-102900000D03*
X167040000Y-102900000D03*
X163960000Y-103300000D03*
X167040000Y-103300000D03*
X163960000Y-103700000D03*
X167040000Y-103700000D03*
X163960000Y-104100000D03*
X167040000Y-104100000D03*
X163960000Y-104500000D03*
X167040000Y-104500000D03*
%TD*%
D11*
%TO.C,J2*%
X88750000Y-76550000D03*
X89250000Y-76550000D03*
X89750000Y-76550000D03*
X90250000Y-76550000D03*
X90750000Y-76550000D03*
X91250000Y-76550000D03*
X91750000Y-76550000D03*
X92250000Y-76550000D03*
X92750000Y-76550000D03*
X93250000Y-76550000D03*
X93750000Y-76550000D03*
X94250000Y-76550000D03*
X94750000Y-76550000D03*
X95250000Y-76550000D03*
X95750000Y-76550000D03*
X96250000Y-76550000D03*
X96750000Y-76550000D03*
X97250000Y-76550000D03*
X97750000Y-76550000D03*
X98250000Y-76550000D03*
X98750000Y-76550000D03*
X99250000Y-76550000D03*
D12*
X101150000Y-73300000D03*
X86850000Y-73300000D03*
%TD*%
D11*
%TO.C,J3*%
X124750000Y-76550000D03*
X125250000Y-76550000D03*
X125750000Y-76550000D03*
X126250000Y-76550000D03*
X126750000Y-76550000D03*
X127250000Y-76550000D03*
X127750000Y-76550000D03*
X128250000Y-76550000D03*
X128750000Y-76550000D03*
X129250000Y-76550000D03*
X129750000Y-76550000D03*
X130250000Y-76550000D03*
X130750000Y-76550000D03*
X131250000Y-76550000D03*
X131750000Y-76550000D03*
X132250000Y-76550000D03*
X132750000Y-76550000D03*
X133250000Y-76550000D03*
X133750000Y-76550000D03*
X134250000Y-76550000D03*
X134750000Y-76550000D03*
X135250000Y-76550000D03*
D12*
X137150000Y-73300000D03*
X122850000Y-73300000D03*
%TD*%
D13*
%TO.C,R10*%
X224500000Y-146865000D03*
X224500000Y-147885000D03*
%TD*%
D14*
%TO.C,U3*%
X159900000Y-137600000D03*
X159400000Y-137600000D03*
X158900000Y-137600000D03*
X158400000Y-137600000D03*
X157900000Y-137600000D03*
X157900000Y-138370000D03*
X158400000Y-138370000D03*
X158900000Y-138370000D03*
X159400000Y-138370000D03*
X159900000Y-138370000D03*
%TD*%
D15*
%TO.C,U2*%
X116650000Y-149010000D03*
X118550000Y-149010000D03*
X117600000Y-145590000D03*
%TD*%
D16*
%TO.C,D2*%
X117037500Y-158700000D03*
X115462500Y-158700000D03*
%TD*%
D17*
%TO.C,J1*%
X187300000Y-153545000D03*
X188100000Y-153545000D03*
D18*
X189250000Y-153545000D03*
X190250000Y-153545000D03*
X190750000Y-153545000D03*
X191750000Y-153545000D03*
D17*
X192900000Y-153545000D03*
X193700000Y-153545000D03*
X193700000Y-153545000D03*
X192900000Y-153545000D03*
D18*
X192250000Y-153545000D03*
X191250000Y-153545000D03*
X189750000Y-153545000D03*
X188750000Y-153545000D03*
D17*
X188100000Y-153545000D03*
X187300000Y-153545000D03*
D19*
X186180000Y-154120000D03*
D20*
X186180000Y-158300000D03*
D19*
X194820000Y-154120000D03*
D20*
X194820000Y-158300000D03*
%TD*%
D16*
%TO.C,D1*%
X120787500Y-158700000D03*
X119212500Y-158700000D03*
%TD*%
D13*
%TO.C,R1*%
X195000000Y-127940000D03*
X195000000Y-128960000D03*
%TD*%
D21*
%TO.C,J7*%
X135000000Y-149420000D03*
X134500000Y-149420000D03*
X134000000Y-149420000D03*
X133500000Y-149420000D03*
X133000000Y-149420000D03*
X132500000Y-149420000D03*
X132000000Y-149420000D03*
X131500000Y-149420000D03*
X131000000Y-149420000D03*
X130500000Y-149420000D03*
X130000000Y-149420000D03*
X129500000Y-149420000D03*
X129000000Y-149420000D03*
X128500000Y-149420000D03*
X128000000Y-149420000D03*
X127500000Y-149420000D03*
X127000000Y-149420000D03*
X126500000Y-149420000D03*
X126000000Y-149420000D03*
%TD*%
%TO.C,J6*%
X110000000Y-149420000D03*
X109500000Y-149420000D03*
X109000000Y-149420000D03*
X108500000Y-149420000D03*
X108000000Y-149420000D03*
X107500000Y-149420000D03*
X107000000Y-149420000D03*
X106500000Y-149420000D03*
X106000000Y-149420000D03*
X105500000Y-149420000D03*
X105000000Y-149420000D03*
X104500000Y-149420000D03*
X104000000Y-149420000D03*
X103500000Y-149420000D03*
X103000000Y-149420000D03*
X102500000Y-149420000D03*
X102000000Y-149420000D03*
X101500000Y-149420000D03*
X101000000Y-149420000D03*
%TD*%
D22*
%TO.C,R6*%
X114675000Y-94300000D03*
X115695000Y-94300000D03*
%TD*%
%TO.C,R7*%
X114675000Y-95800000D03*
X115695000Y-95800000D03*
%TD*%
D14*
%TO.C,U4*%
X153900000Y-137600000D03*
X153400000Y-137600000D03*
X152900000Y-137600000D03*
X152400000Y-137600000D03*
X151900000Y-137600000D03*
X151900000Y-138370000D03*
X152400000Y-138370000D03*
X152900000Y-138370000D03*
X153400000Y-138370000D03*
X153900000Y-138370000D03*
%TD*%
D23*
%TO.C,R16*%
X97000000Y-121210000D03*
X97000000Y-120190000D03*
%TD*%
D24*
%TO.C,R3*%
X194510000Y-142700000D03*
X193490000Y-142700000D03*
%TD*%
D25*
%TO.C,R27*%
X228650000Y-89950000D03*
X227000000Y-89950000D03*
%TD*%
D26*
%TO.C,U9*%
X228350000Y-83950000D03*
X237150000Y-83950000D03*
%TD*%
D27*
%TO.C,C4*%
X189500000Y-144320000D03*
X189500000Y-138080000D03*
%TD*%
D28*
%TO.C,C1*%
X188230000Y-150700000D03*
X187270000Y-150700000D03*
%TD*%
D29*
%TO.C,R12*%
X198500000Y-78700000D03*
X200500000Y-78700000D03*
%TD*%
D30*
%TO.C,C7*%
X115000000Y-149680000D03*
X115000000Y-148720000D03*
%TD*%
D31*
%TO.C,R25*%
X223175000Y-81450000D03*
X224825000Y-81450000D03*
%TD*%
D32*
%TO.C,D4*%
X228500000Y-99550000D03*
X228500000Y-102850000D03*
%TD*%
D33*
%TO.C,J9*%
X210125000Y-83900000D03*
X210125000Y-82900000D03*
X210125000Y-81900000D03*
X210125000Y-80900000D03*
D34*
X207600000Y-85200000D03*
X207600000Y-79600000D03*
%TD*%
D25*
%TO.C,R26*%
X239075000Y-74200000D03*
X237425000Y-74200000D03*
%TD*%
D35*
%TO.C,C2*%
X193270000Y-150700000D03*
X194230000Y-150700000D03*
%TD*%
D36*
%TO.C,C3*%
X192950000Y-128950000D03*
X191050000Y-128950000D03*
%TD*%
D37*
%TO.C,C22*%
X234750000Y-76425000D03*
X234750000Y-77975000D03*
%TD*%
D38*
%TO.C,C23*%
X216750000Y-102675000D03*
X216750000Y-99725000D03*
%TD*%
D39*
%TO.C,C24*%
X233475000Y-72700000D03*
X235025000Y-72700000D03*
%TD*%
D22*
%TO.C,R8*%
X210490000Y-94200000D03*
X211510000Y-94200000D03*
%TD*%
D40*
%TO.C,U1*%
X191950000Y-131825000D03*
X191000000Y-131825000D03*
X190050000Y-131825000D03*
X190050000Y-134100000D03*
X191000000Y-134100000D03*
X191950000Y-134100000D03*
%TD*%
D41*
%TO.C,C20*%
X221025000Y-82450000D03*
X219475000Y-82450000D03*
%TD*%
D42*
%TO.C,C5*%
X172800000Y-141450000D03*
X174700000Y-141450000D03*
%TD*%
D39*
%TO.C,C21*%
X228725000Y-72700000D03*
X230275000Y-72700000D03*
%TD*%
D43*
%TO.C,R28*%
X238250000Y-77375000D03*
X238250000Y-79025000D03*
%TD*%
D29*
%TO.C,R11*%
X198500000Y-81200000D03*
X200500000Y-81200000D03*
%TD*%
D23*
%TO.C,R17*%
X98500000Y-130210000D03*
X98500000Y-129190000D03*
%TD*%
D44*
%TO.C,U8*%
X226750000Y-75140000D03*
X226750000Y-76410000D03*
X226750000Y-77680000D03*
X226750000Y-78950000D03*
X232174000Y-78950000D03*
X232174000Y-77680000D03*
X232174000Y-76410000D03*
X232174000Y-75140000D03*
D45*
X229462000Y-77045000D03*
%TD*%
D23*
%TO.C,R19*%
X97000000Y-134710000D03*
X97000000Y-133690000D03*
%TD*%
D24*
%TO.C,R4*%
X190738791Y-135815365D03*
X189718791Y-135815365D03*
%TD*%
D30*
%TO.C,C9*%
X155886647Y-138416805D03*
X155886647Y-137456805D03*
%TD*%
D22*
%TO.C,R2*%
X195490000Y-149200000D03*
X196510000Y-149200000D03*
%TD*%
D38*
%TO.C,C26*%
X224750000Y-102675000D03*
X224750000Y-99725000D03*
%TD*%
D23*
%TO.C,R9*%
X119500000Y-156460000D03*
X119500000Y-155440000D03*
%TD*%
%TO.C,R15*%
X163789745Y-138426012D03*
X163789745Y-137406012D03*
%TD*%
%TO.C,R13*%
X117000000Y-156460000D03*
X117000000Y-155440000D03*
%TD*%
%TO.C,R14*%
X166116715Y-138425966D03*
X166116715Y-137405966D03*
%TD*%
D10*
%TO.C,Module1*%
X201040000Y-104500000D03*
X197960000Y-104500000D03*
X201040000Y-104100000D03*
X197960000Y-104100000D03*
X201040000Y-103700000D03*
X197960000Y-103700000D03*
X201040000Y-103300000D03*
X197960000Y-103300000D03*
X201040000Y-102900000D03*
X197960000Y-102900000D03*
X201040000Y-102500000D03*
X197960000Y-102500000D03*
X201040000Y-102100000D03*
X197960000Y-102100000D03*
X201040000Y-101700000D03*
X197960000Y-101700000D03*
X201040000Y-101300000D03*
X197960000Y-101300000D03*
X201040000Y-100900000D03*
X197960000Y-100900000D03*
X201040000Y-100500000D03*
X197960000Y-100500000D03*
X201040000Y-100100000D03*
X197960000Y-100100000D03*
X201040000Y-99700000D03*
X197960000Y-99700000D03*
X201040000Y-99300000D03*
X197960000Y-99300000D03*
X201040000Y-98900000D03*
X197960000Y-98900000D03*
X201040000Y-98500000D03*
X197960000Y-98500000D03*
X201040000Y-98100000D03*
X197960000Y-98100000D03*
X201040000Y-97700000D03*
X197960000Y-97700000D03*
X201040000Y-97300000D03*
X197960000Y-97300000D03*
X201040000Y-96900000D03*
X197960000Y-96900000D03*
X201040000Y-96500000D03*
X197960000Y-96500000D03*
X201040000Y-96100000D03*
X197960000Y-96100000D03*
X201040000Y-95700000D03*
X197960000Y-95700000D03*
X201040000Y-95300000D03*
X197960000Y-95300000D03*
X201040000Y-94900000D03*
X197960000Y-94900000D03*
X201040000Y-94500000D03*
X197960000Y-94500000D03*
X201040000Y-94100000D03*
X197960000Y-94100000D03*
X201040000Y-93700000D03*
X197960000Y-93700000D03*
X201040000Y-93300000D03*
X197960000Y-93300000D03*
X201040000Y-92900000D03*
X197960000Y-92900000D03*
X201040000Y-92500000D03*
X197960000Y-92500000D03*
X201040000Y-92100000D03*
X197960000Y-92100000D03*
X201040000Y-91700000D03*
X197960000Y-91700000D03*
X201040000Y-91300000D03*
X197960000Y-91300000D03*
X201040000Y-90900000D03*
X197960000Y-90900000D03*
X201040000Y-90500000D03*
X197960000Y-90500000D03*
X201040000Y-90100000D03*
X197960000Y-90100000D03*
X201040000Y-89700000D03*
X197960000Y-89700000D03*
X201040000Y-89300000D03*
X197960000Y-89300000D03*
X201040000Y-88900000D03*
X197960000Y-88900000D03*
X201040000Y-88500000D03*
X197960000Y-88500000D03*
X201040000Y-88100000D03*
X197960000Y-88100000D03*
X201040000Y-87700000D03*
X197960000Y-87700000D03*
X201040000Y-87300000D03*
X197960000Y-87300000D03*
X201040000Y-86900000D03*
X197960000Y-86900000D03*
X201040000Y-86500000D03*
X197960000Y-86500000D03*
X201040000Y-86100000D03*
X197960000Y-86100000D03*
X201040000Y-85700000D03*
X197960000Y-85700000D03*
X201040000Y-85300000D03*
X197960000Y-85300000D03*
X201040000Y-84900000D03*
X197960000Y-84900000D03*
X167040000Y-104500000D03*
X163960000Y-104500000D03*
X167040000Y-104100000D03*
X163960000Y-104100000D03*
X167040000Y-103700000D03*
X163960000Y-103700000D03*
X167040000Y-103300000D03*
X163960000Y-103300000D03*
X167040000Y-102900000D03*
X163960000Y-102900000D03*
X167040000Y-102500000D03*
X163960000Y-102500000D03*
X167040000Y-102100000D03*
X163960000Y-102100000D03*
X167040000Y-101700000D03*
X163960000Y-101700000D03*
X167040000Y-101300000D03*
X163960000Y-101300000D03*
X167040000Y-100900000D03*
X163960000Y-100900000D03*
X167040000Y-100500000D03*
X163960000Y-100500000D03*
X167040000Y-100100000D03*
X163960000Y-100100000D03*
X167040000Y-99700000D03*
X163960000Y-99700000D03*
X167040000Y-99300000D03*
X163960000Y-99300000D03*
X167040000Y-98900000D03*
X163960000Y-98900000D03*
X167040000Y-98500000D03*
X163960000Y-98500000D03*
X167040000Y-98100000D03*
X163960000Y-98100000D03*
X167040000Y-97700000D03*
X163960000Y-97700000D03*
X167040000Y-97300000D03*
X163960000Y-97300000D03*
X167040000Y-96900000D03*
X163960000Y-96900000D03*
X167040000Y-96500000D03*
X163960000Y-96500000D03*
X167040000Y-96100000D03*
X163960000Y-96100000D03*
X167040000Y-95700000D03*
X163960000Y-95700000D03*
X167040000Y-95300000D03*
X163960000Y-95300000D03*
X167040000Y-94900000D03*
X163960000Y-94900000D03*
X167040000Y-94500000D03*
X163960000Y-94500000D03*
X167040000Y-94100000D03*
X163960000Y-94100000D03*
X167040000Y-93700000D03*
X163960000Y-93700000D03*
X167040000Y-93300000D03*
X163960000Y-93300000D03*
X167040000Y-92900000D03*
X163960000Y-92900000D03*
X167040000Y-92500000D03*
X163960000Y-92500000D03*
X167040000Y-92100000D03*
X163960000Y-92100000D03*
X167040000Y-91700000D03*
X163960000Y-91700000D03*
X167040000Y-91300000D03*
X163960000Y-91300000D03*
X167040000Y-90900000D03*
X163960000Y-90900000D03*
X167040000Y-90500000D03*
X163960000Y-90500000D03*
X167040000Y-90100000D03*
X163960000Y-90100000D03*
X167040000Y-89700000D03*
X163960000Y-89700000D03*
X167040000Y-89300000D03*
X163960000Y-89300000D03*
X167040000Y-88900000D03*
X163960000Y-88900000D03*
X167040000Y-88500000D03*
X163960000Y-88500000D03*
X167040000Y-88100000D03*
X163960000Y-88100000D03*
X167040000Y-87700000D03*
X163960000Y-87700000D03*
X167040000Y-87300000D03*
X163960000Y-87300000D03*
X167040000Y-86900000D03*
X163960000Y-86900000D03*
X167040000Y-86500000D03*
X163960000Y-86500000D03*
X167040000Y-86100000D03*
X163960000Y-86100000D03*
X167040000Y-85700000D03*
X163960000Y-85700000D03*
X167040000Y-85300000D03*
X163960000Y-85300000D03*
X167040000Y-84900000D03*
X163960000Y-84900000D03*
%TD*%
D46*
%TO.C,C19*%
X222950000Y-76450000D03*
X217550000Y-76450000D03*
%TD*%
D30*
%TO.C,C8*%
X120500000Y-148680000D03*
X120500000Y-147720000D03*
%TD*%
D22*
%TO.C,R5*%
X136228044Y-79410000D03*
X137248044Y-79410000D03*
%TD*%
D47*
%TO.C,U10*%
X235000000Y-91000000D03*
X235000000Y-97400000D03*
%TD*%
D38*
%TO.C,C25*%
X220750000Y-102675000D03*
X220750000Y-99725000D03*
%TD*%
D23*
%TO.C,R18*%
X96000000Y-144710000D03*
X96000000Y-143690000D03*
%TD*%
D42*
%TO.C,C6*%
X172800000Y-139200000D03*
X174700000Y-139200000D03*
%TD*%
M02*
