M48
; DRILL file {KiCad 9.0.6} date 2026-05-20T02:11:32+0100
; FORMAT={-:-/ absolute / inch / decimal}
; #@! TF.CreationDate,2026-05-20T02:11:32+01:00
; #@! TF.GenerationSoftware,Kicad,Pcbnew,9.0.6
; #@! TF.FileFunction,Plated,1,2,PTH
FMAT,2
INCH
; #@! TA.AperFunction,Plated,PTH,ViaDrill
T1C0.0118
; #@! TA.AperFunction,Plated,PTH,ComponentDrill
T2C0.0295
; #@! TA.AperFunction,Plated,PTH,ComponentDrill
T3C0.0354
; #@! TA.AperFunction,Plated,PTH,ComponentDrill
T4C0.0358
; #@! TA.AperFunction,Plated,PTH,ComponentDrill
T5C0.0394
; #@! TA.AperFunction,Plated,PTH,ComponentDrill
T6C0.0402
; #@! TA.AperFunction,Plated,PTH,ComponentDrill
T7C0.0433
; #@! TA.AperFunction,Plated,PTH,ComponentDrill
T8C0.0472
; #@! TA.AperFunction,Plated,PTH,ComponentDrill
T9C0.0949
; #@! TA.AperFunction,Plated,PTH,ComponentDrill
T10C0.1354
; #@! TA.AperFunction,Plated,PTH,ComponentDrill
T11C0.6693
%
G90
G05
T1
X4.9803Y-6.7126
X5.0394Y-6.6339
X5.0394Y-6.9685
X5.7087Y-6.811
X5.7677Y-3.0118
X5.8268Y-4.5669
X6.122Y-5.2165
X6.3583Y-3.0118
X6.5354Y-5.5906
X6.7717Y-7.3228
X6.7913Y-5.1575
T2
X5.2933Y-8.2283
X5.2933Y-8.3071
X6.4941Y-8.2283
X6.4941Y-8.3071
T3
X5.8055Y-7.315
X5.9055Y-7.315
X6.0055Y-7.315
T4
X6.4222Y-3.253
X6.4272Y-5.2165
X6.4715Y-3.3317
X6.4764Y-5.2953
X6.5207Y-3.253
X6.5256Y-5.2165
X6.5699Y-3.3317
X6.5748Y-5.2953
T5
X5.4518Y-5.561
X5.4518Y-5.661
X5.4518Y-5.761
X5.4518Y-5.861
X5.4518Y-5.961
X5.4518Y-6.061
X5.4518Y-6.161
X5.4518Y-6.261
X5.4518Y-6.361
X5.4518Y-6.461
X5.4518Y-6.561
X5.4518Y-6.661
X5.4518Y-6.761
X5.4518Y-6.861
X5.4518Y-6.961
X6.3518Y-5.561
X6.3518Y-5.661
X6.3518Y-5.761
X6.3518Y-5.861
X6.3518Y-5.961
X6.3518Y-6.061
X6.3518Y-6.161
X6.3518Y-6.261
X6.3518Y-6.361
X6.3518Y-6.461
X6.3518Y-6.561
X6.3518Y-6.661
X6.3518Y-6.761
X6.3518Y-6.861
X6.3518Y-6.961
T6
X5.7874Y-10.1575
X5.7874Y-10.2756
X5.9055Y-10.1575
X5.9055Y-10.2756
X6.0236Y-10.1575
X6.0236Y-10.2756
T7
X5.8071Y-3.5945
X5.8071Y-4.1654
X5.8071Y-5.563
X5.8071Y-6.1339
X5.9055Y-4.1654
X5.9055Y-6.1339
X6.0039Y-3.5945
X6.0039Y-4.1654
X6.0039Y-5.563
X6.0039Y-6.1339
T8
X6.063Y-7.7165
X6.4173Y-9.3701
T9
X5.7028Y-10.4457
X6.1083Y-10.4457
T10
X5.685Y-3.8701
X5.685Y-5.8386
X6.126Y-3.8701
X6.126Y-5.8386
T11
X5.9055Y-8.2874
M30
